<svg width="37" height="36" viewBox="0 0 37 36" fill="none" xmlns="http://www.w3.org/2000/svg">
<g clipPpath="url(#clip0_710_1265)">
<path d="M24.2109 22.6687H12.5391C12.2508 22.6687 12.0117 22.9078 12.0117 23.1961C12.0117 23.4844 12.2508 23.7234 12.5391 23.7234H24.2109C24.4992 23.7234 24.7383 23.4844 24.7383 23.1961C24.7383 22.9078 24.5063 22.6687 24.2109 22.6687Z" fill="#1A3F34"/>
<path d="M22.7204 24.8766H14.0298C13.7415 24.8766 13.5024 25.1156 13.5024 25.4039C13.5024 25.6922 13.7415 25.9312 14.0298 25.9312H22.7274C23.0157 25.9312 23.2548 25.6922 23.2548 25.4039C23.2478 25.1086 23.0157 24.8766 22.7204 24.8766Z" fill="#1A3F34"/>
<path d="M8.34844 22.3031H5.36016C4.62891 22.3031 4.03125 22.9008 4.03125 23.632V25.2703C4.03125 26.0016 4.62891 26.5992 5.36016 26.5992H8.34844C9.07969 26.5992 9.67734 26.0016 9.67734 25.2703V23.632C9.67734 22.9008 9.07969 22.3031 8.34844 22.3031ZM8.62266 25.2633C8.62266 25.4109 8.50313 25.5375 8.34844 25.5375H5.36016C5.2125 25.5375 5.08594 25.418 5.08594 25.2633V23.625C5.08594 23.4773 5.20547 23.3508 5.36016 23.3508H8.34844C8.49609 23.3508 8.62266 23.4703 8.62266 23.625V25.2633Z" fill="#1A3F34"/>
<path d="M31.3899 22.3031H28.4017C27.6704 22.3031 27.0728 22.9008 27.0728 23.632V25.2703C27.0728 26.0016 27.6704 26.5992 28.4017 26.5992H31.3899C32.1212 26.5992 32.7188 26.0016 32.7188 25.2703V23.632C32.7188 22.9008 32.1212 22.3031 31.3899 22.3031ZM31.6642 25.2633C31.6642 25.4109 31.5446 25.5375 31.3899 25.5375H28.4017C28.254 25.5375 28.1274 25.418 28.1274 25.2633V23.625C28.1274 23.4773 28.247 23.3508 28.4017 23.3508H31.3899C31.5376 23.3508 31.6642 23.4703 31.6642 23.625V25.2633Z" fill="#1A3F34"/>
<path d="M7.03355 21.2344C7.30074 21.3961 7.61011 21.4945 7.91246 21.4945H28.8445C29.1539 21.4945 29.4703 21.4172 29.7375 21.2555C30.307 20.9039 30.5953 20.2711 30.5179 19.6383C30.5179 19.6172 30.5109 19.5961 30.5039 19.568L29.5757 15.9961C29.5054 15.7148 29.2171 15.5461 28.9359 15.6164C28.6546 15.6867 28.4859 15.975 28.5562 16.2563L29.4773 19.793C29.4914 19.9477 29.4421 20.1023 29.3437 20.2219C29.175 20.4258 28.9148 20.4398 28.6757 20.4398C28.4296 19.5961 27.7054 18.9492 26.8265 18.8016C26.5453 18 25.9687 17.3602 25.2304 16.9875C25.7367 16.5094 26.0531 15.8344 26.0531 15.0891C26.0531 13.6547 24.8859 12.4875 23.4515 12.4875C22.0171 12.4875 20.85 13.6547 20.85 15.0891C20.85 15.8344 21.1664 16.5094 21.6726 16.9875C21.2578 17.1984 20.8921 17.4938 20.6039 17.8594C20.4211 17.557 20.1679 17.2969 19.8796 17.107C20.1468 16.7344 20.3015 16.3195 20.3015 15.8625C20.3015 14.8078 19.4437 13.95 18.389 13.95C17.3343 13.95 16.4765 14.8078 16.4765 15.8625C16.4765 16.3195 16.6382 16.7344 16.8984 17.107C16.6031 17.3039 16.357 17.557 16.1742 17.8594C15.8859 17.4938 15.5203 17.1984 15.1054 16.9875C15.6117 16.5094 15.9281 15.8344 15.9281 15.0891C15.9281 13.6547 14.7609 12.4875 13.3265 12.4875C11.8921 12.4875 10.725 13.6547 10.725 15.0891C10.725 15.8344 11.0414 16.5094 11.5476 16.9875C10.8164 17.3602 10.2398 18 9.95152 18.8016C9.07261 18.9492 8.35542 19.5891 8.1023 20.4398H7.91246C7.56792 20.4398 7.26558 20.1586 7.29371 19.8L8.16558 16.418C8.23589 16.1367 8.06714 15.8484 7.78589 15.7781C7.50464 15.7078 7.21636 15.8766 7.13902 16.1578L6.26011 19.575C6.0773 20.25 6.46402 20.8898 7.03355 21.2344ZM23.4375 13.5422C24.2882 13.5422 24.9843 14.2383 24.9843 15.0891C24.9843 15.9398 24.2882 16.6359 23.4375 16.6359C22.5867 16.6359 21.8906 15.9398 21.8906 15.0891C21.8906 14.2383 22.5867 13.5422 23.4375 13.5422ZM23.1421 17.6906H23.7328C24.5203 17.6906 25.2375 18.1195 25.6312 18.7664H21.2437C21.6375 18.1195 22.3546 17.6906 23.1421 17.6906ZM18.375 15.0047C18.8461 15.0047 19.2328 15.3914 19.2328 15.8625C19.2328 16.3336 18.8461 16.7203 18.375 16.7203C17.9039 16.7203 17.5171 16.3336 17.5171 15.8625C17.5171 15.3914 17.9039 15.0047 18.375 15.0047ZM18.1781 17.775H18.5718C19.1835 17.775 19.6968 18.2039 19.8375 18.7734H16.9125C17.0461 18.1969 17.5664 17.775 18.1781 17.775ZM13.3125 13.5422C14.1632 13.5422 14.8593 14.2383 14.8593 15.0891C14.8593 15.9398 14.1632 16.6359 13.3125 16.6359C12.4617 16.6359 11.7656 15.9398 11.7656 15.0891C11.7656 14.2383 12.4617 13.5422 13.3125 13.5422ZM13.0171 17.6906H13.6078C14.3953 17.6906 15.1125 18.1195 15.5062 18.7664H11.1187C11.5125 18.1195 12.2296 17.6906 13.0171 17.6906ZM10.3242 19.8281H26.4257C26.8828 19.8281 27.2906 20.0742 27.5156 20.4398H9.23433C9.45933 20.0742 9.86714 19.8281 10.3242 19.8281Z" fill="#1A3F34"/>
<path d="M8.18664 14.2383C8.46789 14.3086 8.75617 14.1398 8.82649 13.8586L9.31164 11.9883C9.33977 11.8828 9.43117 11.8125 9.54367 11.8125H27.2132C27.3187 11.8125 27.4171 11.8828 27.4452 11.9883L27.9304 13.8516C28.0007 14.1328 28.289 14.3016 28.5702 14.2313C28.8515 14.1609 29.0202 13.8727 28.9499 13.5914L28.4648 11.7281C28.3171 11.1586 27.8038 10.7648 27.2132 10.7648H9.54367C8.95305 10.7648 8.43977 11.1656 8.29211 11.7281L7.80695 13.5984C7.73664 13.8797 7.90539 14.168 8.18664 14.2383Z" fill="#1A3F34"/>
<path d="M35.1727 16.5727H33.1406C32.775 16.5727 32.4305 16.7133 32.1703 16.9523L30.3562 9.91406C30.1594 9.07734 29.4211 8.48672 28.5562 8.48672H26.0672C26.1164 8.33203 26.1445 8.17031 26.1445 8.00156V5.99766C26.1445 5.11172 25.4203 4.3875 24.5344 4.3875H23.9367C23.9438 4.33828 23.9438 4.28203 23.9438 4.23281V2.82656C23.9438 2.11641 23.3672 1.54688 22.6641 1.54688H14.0789C13.3687 1.54688 12.7992 2.12344 12.7992 2.82656V4.22578C12.7992 4.28203 12.8063 4.33125 12.8063 4.38047H12.2086C11.3227 4.38047 10.5984 5.10469 10.5984 5.99062V7.99453C10.5984 8.16328 10.6266 8.325 10.6758 8.47969H8.18672C7.32188 8.47969 6.58359 9.06328 6.38672 9.9L4.57969 16.9594C4.31953 16.7203 3.98203 16.5797 3.60938 16.5797H1.57734C0.916406 16.5797 0.375 17.1211 0.375 17.782V18.8578C0.375 19.5188 0.916406 20.0602 1.57734 20.0602H2.88516L2.65313 20.2289C1.84453 20.8055 1.35938 21.7547 1.35938 22.7531V26.8453C1.35938 28.2586 2.35781 29.4398 3.68672 29.7141V31.7602C3.68672 33.2156 4.875 34.4039 6.33047 34.4039H7.73672C9.19219 34.4039 10.3805 33.2156 10.3805 31.7602V29.7773H26.3555V31.7602C26.3555 33.2156 27.5438 34.4039 28.9992 34.4039H30.4055C31.8609 34.4039 33.0492 33.2156 33.0492 31.7602V29.7141C34.3781 29.4328 35.3766 28.2516 35.3766 26.8453V22.7531C35.3766 21.7547 34.8914 20.8125 34.0828 20.2289L33.8508 20.0602H35.1586C35.8195 20.0602 36.3609 19.5188 36.3609 18.8578V17.782C36.375 17.1141 35.8336 16.5727 35.1727 16.5727ZM11.6531 5.99766C11.6531 5.68828 11.9062 5.44219 12.2086 5.44219H15.0492C15.3375 5.44219 15.5766 5.20312 15.5766 4.91484C15.5766 4.62656 15.3375 4.3875 15.0492 4.3875H13.9172C13.875 4.34531 13.8539 4.28906 13.8539 4.23281V2.82656C13.8539 2.7 13.9594 2.60156 14.0789 2.60156H22.6641C22.7906 2.60156 22.8891 2.70703 22.8891 2.82656V4.22578C22.8891 4.28203 22.868 4.33828 22.8258 4.38047H17.5031C17.2148 4.38047 16.9758 4.61953 16.9758 4.90781C16.9758 5.19609 17.2148 5.43516 17.5031 5.43516H24.5344C24.8438 5.43516 25.0898 5.68828 25.0898 5.99062V7.99453C25.0898 8.19844 24.9773 8.38125 24.8016 8.47969H11.9344C11.7586 8.38125 11.6461 8.19844 11.6461 7.99453V5.99766H11.6531ZM1.57734 19.0055C1.49297 19.0055 1.42969 18.9352 1.42969 18.8578V17.782C1.42969 17.6977 1.5 17.6344 1.57734 17.6344H3.60938C3.77109 17.6344 3.91875 17.7469 3.96797 17.9016L4.15781 18.5906L4.05234 19.0055H1.57734ZM9.33281 31.7602C9.33281 32.6391 8.62266 33.3492 7.74375 33.3492H6.3375C5.45859 33.3492 4.74844 32.6391 4.74844 31.7602V29.7773H9.33984V31.7602H9.33281ZM32.0086 31.7602C32.0086 32.6391 31.2984 33.3492 30.4195 33.3492H29.0133C28.1344 33.3492 27.4242 32.6391 27.4242 31.7602V29.7773H32.0156V31.7602H32.0086ZM34.3359 22.7531V26.8453C34.3359 27.8508 33.5414 28.6805 32.543 28.7227H32.5359C32.5219 28.7227 32.5078 28.7227 32.4937 28.7227C32.4797 28.7227 32.4727 28.7227 32.4586 28.7227H4.29844C3.26484 28.7227 2.42109 27.8789 2.42109 26.8453V22.7531C2.42109 22.0922 2.74453 21.4664 3.27891 21.0797L4.45312 20.2359C4.7625 20.0109 4.98047 19.6875 5.07188 19.3148L7.42734 10.1672C7.42734 10.1602 7.42734 10.1602 7.42734 10.1531C7.51172 9.79453 7.82812 9.54141 8.20078 9.54141H28.5703C28.943 9.54141 29.2594 9.79453 29.3438 10.1531C29.3438 10.1602 29.3438 10.1602 29.3438 10.1672L31.6992 19.3148C31.7836 19.6875 32.0086 20.0109 32.318 20.2359L33.4922 21.0797C34.0125 21.4664 34.3359 22.0922 34.3359 22.7531ZM35.3203 18.8578C35.3203 18.9422 35.25 19.0055 35.1727 19.0055H32.6977L32.5922 18.5906L32.782 17.9016C32.8242 17.7398 32.9719 17.6344 33.1406 17.6344H35.1727C35.257 17.6344 35.3203 17.6977 35.3203 17.782V18.8578Z" fill="#1A3F34"/>
<path d="M2.34379 2.05313C3.25082 2.05313 3.98207 2.79141 3.98207 3.69141C3.98207 3.99375 4.22816 4.23985 4.53051 4.23985C4.83285 4.23985 5.07894 4.00078 5.07894 3.69141C5.07894 2.79141 5.81722 2.05313 6.71722 2.05313C7.01957 2.05313 7.26566 1.81407 7.26566 1.50469C7.26566 1.20235 7.0266 0.956253 6.71722 0.956253C5.83129 0.956253 5.03676 1.38516 4.53754 2.05313C4.03832 1.38516 3.25082 0.956253 2.35785 0.956253C2.05551 0.956253 1.80941 1.20235 1.80941 1.50469C1.79535 1.81407 2.04144 2.05313 2.34379 2.05313Z" fill="#1A3F34"/>
<path d="M6.16172 34.9102H5.07188C4.76953 34.9102 4.52344 35.1562 4.52344 35.4586C4.52344 35.7609 4.76953 36.007 5.07188 36.007H6.16172C6.46406 36.007 6.71016 35.7609 6.71016 35.4586C6.71016 35.1562 6.46406 34.9102 6.16172 34.9102Z" fill="#1A3F34"/>
<path d="M9.16416 34.9102H8.07432C7.77197 34.9102 7.52588 35.1562 7.52588 35.4586C7.52588 35.7609 7.77197 36.007 8.07432 36.007H9.16416C9.4665 36.007 9.7126 35.7609 9.7126 35.4586C9.7126 35.1562 9.4665 34.9102 9.16416 34.9102Z" fill="#1A3F34"/>
<path d="M28.9359 34.9102H27.846C27.5437 34.9102 27.2976 35.1562 27.2976 35.4586C27.2976 35.7609 27.5437 36.007 27.846 36.007H28.9359C29.2382 36.007 29.4843 35.7609 29.4843 35.4586C29.4843 35.1562 29.2382 34.9102 28.9359 34.9102Z" fill="#1A3F34"/>
<path d="M31.9454 34.9102H30.8556C30.5532 34.9102 30.3071 35.1562 30.3071 35.4586C30.3071 35.7609 30.5532 36.007 30.8556 36.007H31.9454C32.2478 36.007 32.4938 35.7609 32.4938 35.4586C32.4938 35.1562 32.2478 34.9102 31.9454 34.9102Z" fill="#1A3F34"/>
</g>
<defs>
<clipPath id="clip0_710_1265">
<rect width="36" height="36" fill="white" transform="translate(0.375)"/>
</clipPath>
</defs>
</svg>
