<svg width="18" height="18" viewBox="0 0 18 18" fill="none" xmlns="http://www.w3.org/2000/svg">
<path d="M13.3421 13.3421C13.7609 13.3421 14.1625 13.5085 14.4586 13.8046C14.7547 14.1007 14.9211 14.5023 14.9211 14.9211C14.9211 15.3398 14.7547 15.7414 14.4586 16.0375C14.1625 16.3336 13.7609 16.5 13.3421 16.5C12.9233 16.5 12.5217 16.3336 12.2256 16.0375C11.9295 15.7414 11.7632 15.3398 11.7632 14.9211C11.7632 14.5023 11.9295 14.1007 12.2256 13.8046C12.5217 13.5085 12.9233 13.3421 13.3421 13.3421ZM13.3421 14.1316C13.1327 14.1316 12.9319 14.2148 12.7839 14.3628C12.6358 14.5109 12.5526 14.7117 12.5526 14.9211C12.5526 15.1304 12.6358 15.3312 12.7839 15.4793C12.9319 15.6274 13.1327 15.7105 13.3421 15.7105C13.5515 15.7105 13.7523 15.6274 13.9003 15.4793C14.0484 15.3312 14.1316 15.1304 14.1316 14.9211C14.1316 14.7117 14.0484 14.5109 13.9003 14.3628C13.7523 14.2148 13.5515 14.1316 13.3421 14.1316ZM6.23684 13.3421C6.6556 13.3421 7.05722 13.5085 7.35333 13.8046C7.64944 14.1007 7.81579 14.5023 7.81579 14.9211C7.81579 15.3398 7.64944 15.7414 7.35333 16.0375C7.05722 16.3336 6.6556 16.5 6.23684 16.5C5.81808 16.5 5.41647 16.3336 5.12036 16.0375C4.82425 15.7414 4.65789 15.3398 4.65789 14.9211C4.65789 14.5023 4.82425 14.1007 5.12036 13.8046C5.41647 13.5085 5.81808 13.3421 6.23684 13.3421ZM6.23684 14.1316C6.02746 14.1316 5.82665 14.2148 5.6786 14.3628C5.53054 14.5109 5.44737 14.7117 5.44737 14.9211C5.44737 15.1304 5.53054 15.3312 5.6786 15.4793C5.82665 15.6274 6.02746 15.7105 6.23684 15.7105C6.44622 15.7105 6.64703 15.6274 6.79508 15.4793C6.94314 15.3312 7.02632 15.1304 7.02632 14.9211C7.02632 14.7117 6.94314 14.5109 6.79508 14.3628C6.64703 14.2148 6.44622 14.1316 6.23684 14.1316ZM14.9211 3.86842H4.08395L6.09474 8.60526H12.5526C12.6754 8.60545 12.7965 8.57684 12.9062 8.52172C13.0159 8.4666 13.1111 8.38651 13.1842 8.2879L15.5526 5.13H15.5534C15.641 5.01265 15.6942 4.87326 15.7071 4.72742C15.72 4.58157 15.692 4.43502 15.6264 4.30413C15.5608 4.17323 15.4601 4.06317 15.3355 3.98622C15.211 3.90928 15.0675 3.86849 14.9211 3.86842ZM12.5526 9.39474H6.13105L5.52632 10.6263L5.44737 10.9737C5.44737 11.1831 5.53054 11.3839 5.6786 11.5319C5.82665 11.68 6.02746 11.7632 6.23684 11.7632H14.9211V12.5526H6.23684C5.96192 12.5528 5.69173 12.4811 5.453 12.3448C5.21427 12.2084 5.01528 12.0121 4.87572 11.7752C4.73615 11.5384 4.66085 11.2692 4.65726 10.9943C4.65367 10.7194 4.72193 10.4483 4.85526 10.2079L5.42368 9.04421L2.55632 2.28947H1.5V1.5H3.07895L3.74921 3.07895H14.9211C15.2194 3.07898 15.5116 3.16352 15.7638 3.32278C16.0161 3.48204 16.2181 3.70951 16.3464 3.97883C16.4747 4.24816 16.524 4.54832 16.4888 4.84455C16.4535 5.14078 16.335 5.42096 16.1471 5.65263L13.8466 8.72053C13.7011 8.92879 13.5075 9.09885 13.2822 9.21624C13.057 9.33362 12.8067 9.39486 12.5526 9.39474Z" fill="white"/>
</svg>
