<svg width="37" height="36" viewBox="0 0 37 36" fill="none" xmlns="http://www.w3.org/2000/svg">
<g clipPath="url(#clip0_710_1281)">
<path d="M5.46135 20.2626C5.25123 20.4675 5.24684 20.804 5.45173 21.0141C5.55583 21.1209 5.69398 21.1745 5.83213 21.1745C5.96589 21.1745 6.09993 21.1245 6.2032 21.0237C7.2653 19.9885 6.83024 19.1365 6.54213 18.5727C6.27159 18.0437 6.1598 17.8245 6.72972 17.2881C6.94313 17.087 6.95356 16.7506 6.75224 16.5372C6.55119 16.3232 6.21473 16.3133 6.00132 16.5144C4.85023 17.5976 5.29875 18.4754 5.59565 19.0563C5.85521 19.5642 5.9626 19.7743 5.46135 20.2626Z" fill="#1A3F34"/>
<path d="M8.40299 17.4136C8.19287 17.6185 8.18848 17.955 8.39337 18.1651C8.49747 18.2719 8.63562 18.3255 8.77405 18.3255C8.90753 18.3255 9.04157 18.2755 9.14484 18.1747C10.2075 17.1389 9.77133 16.287 9.48267 15.7234C9.21185 15.1944 9.09979 14.9752 9.66943 14.4391C9.88312 14.238 9.89328 13.9016 9.69223 13.6881C9.49091 13.4742 9.15445 13.4643 8.94104 13.6653C7.78995 14.7489 8.23929 15.6267 8.53674 16.2076C8.79657 16.7151 8.90396 16.9253 8.40299 17.4136Z" fill="#1A3F34"/>
<path d="M16.211 14.402C16.3486 14.402 16.486 14.3487 16.5901 14.2424C16.7631 14.0889 17.5368 14.0905 17.7077 14.244C17.9147 14.4522 18.2512 14.4533 18.4591 14.2465C18.6673 14.0397 18.6684 13.7032 18.4616 13.4951C18.0773 13.1081 17.4206 13.0644 17.1446 13.0644C17.141 13.0644 17.1375 13.0644 17.1339 13.0644C16.8686 13.0655 16.2108 13.11 15.8315 13.4981C15.6263 13.7079 15.6293 14.0452 15.8394 14.2504C15.9427 14.3514 16.077 14.402 16.211 14.402Z" fill="#1A3F34"/>
<path d="M20.5145 14.402C20.6521 14.402 20.7895 14.3487 20.8933 14.2424C21.0663 14.0889 21.8403 14.0905 22.0112 14.244C22.218 14.4522 22.5544 14.4533 22.7626 14.2465C22.9708 14.0397 22.9719 13.7032 22.7651 13.4951C22.3806 13.1081 21.7241 13.0644 21.4481 13.0644C21.4443 13.0644 21.4407 13.0644 21.4374 13.0644C21.1721 13.0655 20.5143 13.11 20.135 13.4981C19.9298 13.7079 19.9328 14.0452 20.1427 14.2501C20.2462 14.3514 20.3802 14.402 20.5145 14.402Z" fill="#1A3F34"/>
<path d="M19.3513 7.88516C19.6446 7.88516 19.8825 7.64731 19.8825 7.3537V4.91336C19.8825 4.62003 19.6446 4.38217 19.3513 4.38217C19.0577 4.38217 18.8198 4.62003 18.8198 4.91336V7.3537C18.8198 7.64731 19.0577 7.88516 19.3513 7.88516Z" fill="#1A3F34"/>
<path d="M15.7436 5.4852C15.4503 5.4852 15.2124 5.72305 15.2124 6.01666V8.45508C15.2124 8.74841 15.4503 8.98627 15.7436 8.98627C16.0372 8.98627 16.2751 8.74841 16.2751 8.45508V6.01666C16.2751 5.72305 16.0372 5.4852 15.7436 5.4852Z" fill="#1A3F34"/>
<path d="M22.959 8.98627C23.2523 8.98627 23.4901 8.74841 23.4901 8.4548V6.01639C23.4901 5.72305 23.2523 5.4852 22.959 5.4852C22.6653 5.4852 22.4275 5.72305 22.4275 6.01639V8.4548C22.4275 8.74841 22.6653 8.98627 22.959 8.98627Z" fill="#1A3F34"/>
<path d="M34.3134 19.4049C35.4502 19.4049 36.375 18.4793 36.375 17.3416V12.7148C36.375 11.5774 35.4502 10.6518 34.3134 10.6518H32.0576C30.9208 10.6518 29.9961 11.5774 29.9961 12.7148V17.3416C29.9961 18.4793 30.9208 19.4049 32.0576 19.4049H32.6542V26.8459H32.2142C32.062 26.8459 31.9143 26.8651 31.7734 26.9011L31.2664 24.7533C30.6772 22.2558 28.603 20.9053 25.1011 20.7394C25.0986 20.7392 25.0962 20.7392 25.0937 20.7392C24.8116 20.7298 24.5707 20.679 24.3579 20.5779C24.3496 20.5741 24.3417 20.5697 24.3332 20.5661C24.0797 20.4403 23.8657 20.2404 23.6688 19.9512C23.7819 19.8641 23.894 19.7751 24.0025 19.6823C25.5386 18.3708 26.3843 16.7069 26.3843 14.9966V11.5757C26.3923 11.5233 26.392 11.4714 26.3843 11.4211V7.93323C27.3794 7.20374 27.79 6.16086 27.4851 5.09491C27.1135 3.7955 25.7872 2.88803 24.2593 2.88803H22.7605C22.2982 1.82154 21.293 1.1272 19.9991 1.00333C18.4302 0.853365 16.9034 1.60208 16.097 2.88803H14.6652C13.1153 2.88803 11.7695 3.80896 11.3924 5.1276C11.0911 6.18201 11.4943 7.21253 12.4748 7.93296V14.0611V14.0661V15.2724C12.4748 17.064 13.5663 18.4735 14.482 19.3401C14.7014 19.548 14.9338 19.7457 15.175 19.9325C14.9739 20.233 14.7553 20.4398 14.4944 20.5683C14.4935 20.5689 14.493 20.5692 14.4922 20.5694C14.2746 20.6763 14.028 20.7296 13.7377 20.7392C13.7352 20.7392 13.7327 20.7394 13.7303 20.7394C13.1927 20.765 12.689 20.8185 12.2191 20.8998C12.2172 20.9001 12.2152 20.9004 12.2133 20.9009C9.9007 21.3022 8.40683 22.3783 7.75836 24.112H2.17099C1.18057 24.112 0.375 24.9189 0.375 25.911C0.375 26.902 1.18057 27.7083 2.17099 27.7083H3.55197C4.08316 28.9435 4.90494 29.9954 5.95441 30.7884H5.43777C4.57205 30.7884 3.86783 31.4931 3.86783 32.3594V33.4446C3.86783 34.3109 4.57205 35.0156 5.43777 35.0156H8.54993C8.84326 35.0156 9.08112 34.7778 9.08112 34.4844C9.08112 34.1908 8.84326 33.953 8.54993 33.953H5.43777C5.1579 33.953 4.93048 33.725 4.93048 33.4446V32.3594C4.93048 32.079 5.15817 31.851 5.43777 31.851H16.5046C16.7487 31.851 16.9531 32.0246 17.0014 32.2553C17.0031 32.2729 17.0058 32.2902 17.0094 32.3075C17.0113 32.3245 17.0121 32.3418 17.0121 32.3594V33.4446C17.0121 33.725 16.7845 33.953 16.5046 33.953H10.9702C10.6769 33.953 10.439 34.1908 10.439 34.4844C10.439 34.7778 10.6769 35.0156 10.9702 35.0156H16.5046C17.3706 35.0156 18.0748 34.3109 18.0748 33.4446V32.7299H30.4361C30.4806 33.6742 31.2609 34.4284 32.2139 34.4284H33.1854C34.7026 34.4284 35.9369 33.1933 35.9369 31.675V29.5994C35.9369 28.2632 34.9806 27.1464 33.7166 26.8981V19.4049H34.3134ZM30.232 24.9975L30.8258 27.5142C30.5811 27.8193 30.4341 28.2063 30.4341 28.6274V31.6673H28.923L28.0542 26.6366C27.9468 25.9961 27.5791 25.5136 27.0822 25.3131V22.0828C28.8411 22.5332 29.878 23.4962 30.232 24.9975ZM26.0196 21.8845V25.2112H24.6578V21.7642C24.7833 21.7837 24.9152 21.7963 25.0544 21.801C25.3931 21.8172 25.7141 21.8455 26.0196 21.8845ZM21.0315 25.2112C20.7579 24.5657 20.1185 24.112 19.375 24.112H15.2777V22.4926C16.2912 23.2322 17.7614 23.5627 19.0498 23.6121C19.1624 23.6165 19.2773 23.6187 19.3937 23.6187C20.7958 23.6187 22.4537 23.2968 23.5952 22.4464V25.2112H21.0315ZM18.4667 26.2419C18.5541 25.8467 18.5656 25.4844 18.5041 25.1744H19.375C19.7804 25.1744 20.1103 25.5048 20.1103 25.911C20.1103 26.3161 19.7804 26.6454 19.375 26.6454H18.3654C18.4025 26.5122 18.4365 26.3779 18.4667 26.2419ZM25.3217 11.9235V13.3555C24.788 13.1243 24.1016 12.64 23.9989 11.6661C24.4406 11.7411 24.8817 11.8271 25.3217 11.9235ZM14.8377 11.6667C14.7352 12.6189 14.0722 13.1042 13.5374 13.3429V11.9224C13.97 11.8265 14.4037 11.7414 14.8377 11.6667ZM13.5374 15.2724V14.4756C13.8668 14.3682 14.3164 14.1779 14.7372 13.8529C15.2807 13.4338 15.8888 12.6988 15.9149 11.503C16.7152 11.3975 17.5148 11.3277 18.3083 11.2953C18.6016 11.2835 18.8296 11.036 18.8177 10.743C18.8057 10.4496 18.5568 10.2228 18.2651 10.2335C17.2882 10.2733 16.303 10.3673 15.3178 10.5134C15.3134 10.5136 15.309 10.5136 15.3046 10.5142C15.2856 10.5164 15.2672 10.5194 15.2488 10.5233C14.6778 10.6095 14.1068 10.7133 13.5372 10.8347V7.65143C13.5372 7.46796 13.4427 7.2974 13.2867 7.20044C12.5305 6.7294 12.2205 6.09714 12.4144 5.41956C12.6228 4.68979 13.463 3.95069 14.6652 3.95069H16.4054C16.6048 3.95069 16.7875 3.83917 16.8784 3.66175C17.5159 2.41782 18.8537 1.96134 19.8977 2.06131C20.8909 2.15634 21.6311 2.71939 21.8777 3.56781C21.9436 3.79468 22.1516 3.95069 22.388 3.95069H24.2593C25.4914 3.95069 26.2654 4.69556 26.4631 5.38742C26.657 6.0661 26.3324 6.72693 25.5721 7.20044C25.4161 7.2974 25.3217 7.46796 25.3217 7.65143V10.835C24.749 10.7147 24.1747 10.6125 23.6004 10.5266C23.5784 10.5213 23.5559 10.5167 23.5328 10.5142C23.5257 10.5134 23.5185 10.5134 23.5114 10.5128C22.6163 10.3818 21.7214 10.2917 20.8335 10.2459C20.5418 10.2305 20.2905 10.456 20.2754 10.749C20.2603 11.0421 20.4857 11.292 20.7788 11.3071C21.4896 11.3437 22.2054 11.411 22.9222 11.5046C22.9478 12.7521 23.6034 13.5014 24.189 13.923C24.5944 14.2147 25.014 14.3861 25.3217 14.4836V14.9966C25.3217 16.3908 24.6081 17.7679 23.3125 18.8742C22.1612 19.857 20.6538 20.5118 19.3794 20.5829C19.3484 20.5845 19.3163 20.5856 19.283 20.5856C18.5376 20.5854 17.3357 20.152 16.2036 19.3694C16.1862 19.3557 16.1678 19.3434 16.1492 19.3318C15.8264 19.1052 15.5103 18.8501 15.2126 18.5683C14.4485 17.8451 13.5374 16.686 13.5374 15.2724ZM19.2833 21.6483C19.3358 21.6483 19.3877 21.6466 19.4382 21.6439C20.5267 21.5832 21.7113 21.1877 22.7885 20.5483C22.945 20.7784 23.1384 21.0078 23.3817 21.2061C22.5144 22.2111 20.6761 22.611 19.0908 22.5503C17.4431 22.4871 16.0574 21.9611 15.4532 21.2033C15.6987 21.0023 15.8929 20.7699 16.0503 20.537C17.169 21.2239 18.3618 21.6483 19.2833 21.6483ZM13.7769 21.8013C13.9319 21.7958 14.0774 21.7804 14.2153 21.7571V24.112H12.8535V21.879C13.1463 21.843 13.4537 21.8167 13.7769 21.8013ZM11.7909 22.0721V24.112H8.91742C9.43103 23.099 10.3816 22.4234 11.7909 22.0721ZM2.17099 26.6454C1.76669 26.6454 1.43765 26.3161 1.43765 25.911C1.43765 25.5048 1.76669 25.1744 2.17099 25.1744H3.04248C2.98068 25.4844 2.99222 25.8467 3.07956 26.2419V26.2428C3.10977 26.3787 3.1441 26.5128 3.18036 26.6454H2.17099ZM8.08768 30.7884C6.05301 29.9553 4.60858 28.22 4.11722 26.0126C4.02713 25.6058 4.06943 25.3169 4.14661 25.2205C4.15787 25.2068 4.18369 25.1746 4.29987 25.1746H8.13986H8.14178H8.14343H17.2462C17.3632 25.1746 17.3893 25.2068 17.4002 25.2205C17.4771 25.3163 17.5189 25.605 17.4291 26.0123C16.9545 28.1563 15.4936 29.9345 13.5111 30.7884H8.08768ZM17.9138 31.6673C17.6576 31.1471 17.1223 30.7884 16.5049 30.7884H15.5883C16.629 29.9861 17.4563 28.9265 17.9886 27.7081H19.375C20.2424 27.7081 20.968 27.0915 21.1364 26.2735H26.5508C26.9053 26.2735 26.9968 26.7572 27.0064 26.8149L27.8447 31.6673H17.9138ZM34.8743 29.5994V31.675C34.8743 32.6072 34.1168 33.3658 33.1854 33.3658H32.2142C31.8184 33.3658 31.4965 33.0425 31.4965 32.6451V28.6274C31.4965 28.4079 31.5954 28.2115 31.7506 28.0797C31.7555 28.0758 31.7602 28.072 31.7649 28.0679C31.8879 27.9684 32.0442 27.9086 32.2139 27.9086H33.1854C34.1168 27.9086 34.8743 28.6672 34.8743 29.5994ZM31.0584 17.3416V12.7148C31.0584 12.1632 31.5067 11.7144 32.0576 11.7144H34.3134C34.8641 11.7144 35.3123 12.1632 35.3123 12.7148V17.3416C35.3123 17.8934 34.8641 18.3422 34.3134 18.3422H32.0576C31.5067 18.3422 31.0584 17.8934 31.0584 17.3416Z" fill="#1A3F34"/>
</g>
<defs>
<clipPath id="clip0_710_1281">
<rect width="36" height="36" fill="white" transform="translate(0.375)"/>
</clipPath>
</defs>
</svg>
