<svg width="37" height="36" viewBox="0 0 37 36" fill="none" xmlns="http://www.w3.org/2000/svg">
<g clipPath="url(#clip0_710_1345)">
<path d="M36.8247 28.2558C36.932 27.5686 36.8738 25.9012 36.5998 25.1441C36.0106 23.5159 34.4113 22.4315 32.6084 22.4315C32.5882 22.4315 32.5673 22.4321 32.5465 22.4321C32.2541 22.4358 31.9169 22.4977 31.5148 22.6228C30.8374 22.833 30.1484 22.9808 29.4526 23.077V4.51303C29.4526 4.22062 29.246 3.96928 28.9597 3.91227L10.5692 0.234176C10.5441 0.229272 10.5196 0.237854 10.4945 0.236015C10.4626 0.23295 10.4313 0.220689 10.3982 0.223754L3.04201 0.836771C2.72447 0.86313 2.47988 1.12857 2.47988 1.44795V32.5671L0.875 35.7769H11.2963H12.667H21.0911H31.0575L29.4526 32.5671V31.4858H30.2759L31.3989 33.8808C31.7563 34.9996 32.8168 35.7769 33.9938 35.7769C35.4963 35.7769 36.7187 34.5545 36.7175 33.0097L36.5427 30.4663C36.4894 29.6915 36.5188 29.586 36.5979 29.3046C36.6568 29.095 36.7377 28.8081 36.8247 28.2558ZM23.8938 22.6264C23.4843 22.5038 23.03 22.4382 22.5433 22.4321C22.5224 22.4321 22.5016 22.4315 22.4795 22.4315C20.6742 22.4315 19.0736 23.5171 18.4845 25.1478C18.2111 25.9061 18.1535 27.5716 18.2614 28.2552C18.3484 28.8075 18.4281 29.095 18.487 29.3046C18.566 29.586 18.5955 29.6908 18.5421 30.4657L18.4299 32.0988H11.0615V13.1823L28.226 15.4707V23.1824C26.8068 23.2388 25.3583 23.0647 23.8938 22.6264ZM3.70591 13.6586L6.15798 13.4545V32.0988H3.70591V13.6586ZM7.38401 13.3521L9.83607 13.148V32.0988H9.45723H7.38401V13.3521ZM28.2266 14.2336L11.0621 11.9452V1.5822L28.2266 5.01509V14.2336ZM9.83607 11.9183L7.38401 12.1224V1.70542L9.83607 1.50128V11.9183ZM6.15798 1.80718V12.2248L3.70591 12.4289V2.01131L6.15798 1.80718ZM2.85872 34.5508L3.47174 33.3248H10.0702L10.6833 34.5508H2.85872ZM12.054 34.5508L11.441 33.3248H18.3797C18.387 33.4014 18.4024 33.475 18.4165 33.5492C18.4208 33.5731 18.4232 33.5976 18.4281 33.6209C18.4612 33.7748 18.509 33.9231 18.5667 34.0659C18.5789 34.0966 18.5924 34.1266 18.6059 34.1567C18.6666 34.2934 18.7346 34.4264 18.8168 34.5496H12.054V34.5508ZM23.369 34.5508C23.4052 34.4963 23.434 34.4362 23.4659 34.378C23.4873 34.3387 23.5112 34.3019 23.5315 34.2615C23.5915 34.1401 23.6449 34.0138 23.6872 33.8814L23.9502 33.3248H28.4607L29.0738 34.5508H23.369ZM28.2266 32.0988H24.5307C24.6631 31.8205 24.7569 31.6243 24.8237 31.4858H28.2272L28.2266 32.0988ZM35.6128 28.0657C35.5374 28.5457 35.4712 28.783 35.4179 28.973C35.3026 29.3825 35.2548 29.6032 35.3198 30.5491L35.4933 33.0508C35.4933 33.8777 34.8208 34.5496 33.9944 34.5496C33.3379 34.5496 32.7482 34.1101 32.5594 33.4817L31.0556 30.2585H28.8402H24.5117C24.1065 30.1727 24.0421 30.2646 23.1735 32.0975L23.0809 32.2937C23.0564 32.3458 23.0337 32.3936 23.0073 32.4482C23.0073 32.4482 23.0073 32.4488 23.0067 32.4494C22.9123 32.6486 22.8081 32.8699 22.6965 33.106L22.5598 33.3959L22.5267 33.4817C22.3349 34.1205 21.758 34.5496 21.0911 34.5496C20.9881 34.5496 20.8881 34.5392 20.7907 34.5196C20.1139 34.3816 19.602 33.7864 19.5922 33.0722L19.7657 30.5484C19.8301 29.6032 19.7823 29.3825 19.6676 28.973C19.6143 28.7823 19.5481 28.5463 19.4733 28.0651C19.3924 27.5551 19.4451 26.0979 19.6382 25.5634C20.052 24.4189 21.1897 23.6575 22.4808 23.6575C22.4961 23.6575 22.512 23.6581 22.5274 23.6581C22.9001 23.663 23.2415 23.7109 23.5425 23.801C23.8981 23.907 24.253 23.9996 24.6079 24.0793C24.6104 24.0799 24.6128 24.0799 24.6159 24.0805C25.6513 24.3116 26.6824 24.4293 27.6926 24.4293C27.9814 24.4293 28.2903 24.4146 28.6171 24.3919C29.7229 24.3208 30.8135 24.1234 31.8783 23.793C32.2314 23.6833 32.4447 23.6588 32.5624 23.6575C32.5771 23.6575 32.5925 23.6569 32.6072 23.6569C33.8957 23.6569 35.0329 24.4177 35.4467 25.5603C35.6398 26.0949 35.6931 27.5539 35.6128 28.0657Z" fill="#1A3F34"/>
<path d="M32.5177 24.7426C31.1654 24.7426 30.0657 25.8423 30.0657 27.1946C30.0657 28.5469 31.1654 29.6467 32.5177 29.6467C33.8701 29.6467 34.9698 28.5469 34.9698 27.1946C34.9698 25.8423 33.8701 24.7426 32.5177 24.7426ZM32.5177 28.4207C31.8416 28.4207 31.2917 27.8708 31.2917 27.1946C31.2917 26.5185 31.8416 25.9686 32.5177 25.9686C33.1939 25.9686 33.7438 26.5185 33.7438 27.1946C33.7438 27.8708 33.1939 28.4207 32.5177 28.4207Z" fill="#1A3F34"/>
<path d="M22.6364 24.7426C21.2841 24.7426 20.1843 25.8423 20.1843 27.1946C20.1843 28.5469 21.2841 29.6467 22.6364 29.6467C23.9887 29.6467 25.0885 28.5469 25.0885 27.1946C25.0885 25.8423 23.9887 24.7426 22.6364 24.7426ZM22.6364 28.4207C21.9602 28.4207 21.4104 27.8708 21.4104 27.1946C21.4104 26.5185 21.9602 25.9686 22.6364 25.9686C23.3125 25.9686 23.8624 26.5185 23.8624 27.1946C23.8624 27.8708 23.3125 28.4207 22.6364 28.4207Z" fill="#1A3F34"/>
<path d="M28.8395 25.3556C28.5005 25.3556 28.2265 25.6296 28.2265 25.9686H27.0004C27.0004 25.6296 26.7264 25.3556 26.3874 25.3556C26.0484 25.3556 25.7744 25.6296 25.7744 25.9686V26.5816C25.7744 26.9206 26.0484 27.1946 26.3874 27.1946H28.8395C29.1785 27.1946 29.4525 26.9206 29.4525 26.5816V25.9686C29.4525 25.6296 29.1785 25.3556 28.8395 25.3556Z" fill="#1A3F34"/>
</g>
<defs>
<clipPath id="clip0_710_1345">
<rect width="36" height="36" fill="white" transform="translate(0.875)"/>
</clipPath>
</defs>
</svg>
