<svg xmlns="http://www.w3.org/2000/svg" width="37" height="36" viewBox="0 0 37 36" fill="none">
  <path d="M12.3552 29.5222H9.40542C9.11841 29.5222 8.88574 29.7548 8.88574 30.0419C8.88574 30.3289 9.11841 30.5615 9.40542 30.5615H12.3552C12.6423 30.5615 12.8749 30.3289 12.8749 30.0419C12.8749 29.7548 12.6423 29.5222 12.3552 29.5222Z" fill="#1A3F34"/>
  <path d="M20.6372 29.0556H16.6977C16.4106 29.0556 16.178 29.2883 16.178 29.5753C16.178 29.8623 16.4106 30.0949 16.6977 30.0949H20.6372C20.9242 30.0949 21.1569 29.8623 21.1569 29.5753C21.1569 29.2883 20.9242 29.0556 20.6372 29.0556Z" fill="#1A3F34"/>
  <path d="M20.6372 30.6854H16.6977C16.4106 30.6854 16.178 30.918 16.178 31.205C16.178 31.4921 16.4106 31.7247 16.6977 31.7247H20.6372C20.9242 31.7247 21.1569 31.4921 21.1569 31.205C21.1569 30.918 20.9242 30.6854 20.6372 30.6854Z" fill="#1A3F34"/>
  <path d="M29.4475 30.2254H23.9992C23.7122 30.2254 23.4795 30.4581 23.4795 30.7451C23.4795 31.0321 23.7122 31.2648 23.9992 31.2648H29.4475C29.7345 31.2648 29.9672 31.0321 29.9672 30.7451C29.9672 30.4581 29.7345 30.2254 29.4475 30.2254Z" fill="#1A3F34"/>
  <path d="M10.8804 20.6815C9.61517 20.6815 8.58594 21.7107 8.58594 22.9759C8.58594 24.2411 9.61517 25.2704 10.8804 25.2704C12.1455 25.2704 13.1748 24.2411 13.1748 22.9759C13.1748 21.7107 12.1455 20.6815 10.8804 20.6815ZM10.8804 24.2309C10.1884 24.2309 9.62537 23.6679 9.62537 22.9759C9.62537 22.2839 10.1884 21.7209 10.8804 21.7209C11.5724 21.7209 12.1354 22.2839 12.1354 22.9759C12.1354 23.668 11.5724 24.2309 10.8804 24.2309Z" fill="#1A3F34"/>
  <path d="M21.1479 13.6495C19.5488 12.975 17.7872 12.9743 16.1877 13.6477C15.6692 13.866 15.3363 14.3909 15.3595 14.9536L15.4008 15.9555C15.4117 16.2217 15.5657 16.4625 15.8026 16.584C16.0397 16.7057 16.3254 16.6903 16.5482 16.5439C17.9148 15.6459 19.4199 15.6465 20.7862 16.5457C20.9092 16.6267 21.0515 16.6676 21.1941 16.6676C21.3098 16.6676 21.4257 16.6406 21.532 16.5862C21.769 16.4647 21.9231 16.2238 21.9341 15.9576L21.9754 14.955C21.9985 14.3927 21.666 13.868 21.1479 13.6495ZM20.9161 15.4148C20.19 15.027 19.428 14.8331 18.6658 14.8331C17.9049 14.8331 17.1439 15.0264 16.4187 15.413L16.3981 14.9108C16.3926 14.7792 16.4702 14.6565 16.5911 14.6056C17.9496 14.0336 19.3856 14.0342 20.744 14.6071C20.8647 14.658 20.9422 14.7807 20.9368 14.9123L20.9161 15.4148Z" fill="#1A3F34"/>
  <path d="M21.345 18.5841C21.1825 18.4185 20.9653 18.3274 20.7333 18.3274H16.6017C16.3698 18.3274 16.1526 18.4185 15.9901 18.584C15.8276 18.7495 15.7405 18.9683 15.7448 19.2002L15.8027 22.3594C15.8112 22.8234 16.1957 23.2008 16.6597 23.2008H20.6754C21.1394 23.2008 21.5238 22.8234 21.5323 22.3594L21.5903 19.2003C21.5946 18.9684 21.5075 18.7496 21.345 18.5841ZM20.4964 22.1614H16.8386L16.7874 19.3668H20.5476L20.4964 22.1614Z" fill="#1A3F34"/>
  <path d="M26.7233 24.3069C24.9592 24.3069 23.5774 25.326 23.5774 26.627C23.5775 27.928 24.9592 28.9471 26.7233 28.9471C28.4874 28.9471 29.8692 27.928 29.8692 26.627C29.8692 25.326 28.4874 24.3069 26.7233 24.3069ZM26.7233 27.9076C25.5814 27.9076 24.6168 27.3211 24.6168 26.6269C24.6169 25.9327 25.5815 25.3463 26.7233 25.3463C27.8651 25.3463 28.8298 25.9327 28.8298 26.6269C28.8298 27.3211 27.8652 27.9076 26.7233 27.9076Z" fill="#1A3F34"/>
  <path d="M31.6449 16.3477L29.3477 14.5185C29.4626 14.169 29.5621 13.6134 29.5621 12.7373C29.5621 11.4136 29.2925 10.2876 29.0562 9.55505C29.2023 9.40957 29.2928 9.20848 29.2928 8.98664V5.89486C29.2928 5.45224 28.9327 5.09217 28.4902 5.09217H24.9567C24.514 5.09217 24.154 5.45231 24.154 5.89486V8.98664C24.154 9.20855 24.2445 9.40964 24.3906 9.55505C24.1543 10.2876 23.8847 11.4136 23.8847 12.7373C23.8847 13.6135 23.9842 14.1691 24.0991 14.5185L23.6696 14.8605L23.7119 12.4289C23.7281 11.987 23.5611 11.5523 23.2529 11.2351L21.244 9.16713C21.0398 8.95683 20.9273 8.67966 20.9273 8.38652V7.52147C21.0437 7.38155 21.1139 7.20183 21.1139 7.00594V0.807398C21.1139 0.36218 20.7518 0 20.3066 0H17.0284C16.5831 0 16.221 0.36218 16.221 0.807398V7.00587C16.221 7.20176 16.2911 7.38141 16.4076 7.5214V8.38652C16.4076 8.67966 16.2951 8.95683 16.0909 9.16713L14.0819 11.2352C13.7737 11.5524 13.6068 11.9872 13.6231 12.4291L13.6935 16.4832C13.15 16.242 12.7702 15.713 12.7333 15.1002C12.9525 14.9601 13.0985 14.7151 13.0985 14.4361V11.7969C13.0985 11.3622 12.7449 11.0086 12.3102 11.0086H9.45009C9.01542 11.0086 8.66174 11.3622 8.66174 11.7969V14.4361C8.66174 14.7151 8.80778 14.96 9.02702 15.1002C8.9804 15.8733 8.38809 16.5142 7.61064 16.6106C7.6105 16.6106 7.61036 16.6106 7.61022 16.6107C6.25924 16.7778 5.24048 17.9304 5.24048 19.2916V20.9161C5.24048 21.2031 5.47314 21.4358 5.76016 21.4358C6.04717 21.4358 6.27984 21.2031 6.27984 20.9161V19.2916C6.27984 18.4559 6.90407 17.748 7.73263 17.6429C7.78354 17.6389 7.91362 17.6354 8.10318 17.6323C8.10374 17.6323 8.10438 17.6323 8.10494 17.6323C8.15121 17.6316 8.20106 17.6309 8.25407 17.6302C8.27179 17.63 8.29042 17.6298 8.30892 17.6296C8.3189 17.6295 8.32846 17.6294 8.33866 17.6292C8.35328 17.6291 8.36868 17.6289 8.3838 17.6287C8.39871 17.6286 8.41319 17.6284 8.42852 17.6283C9.64879 17.6157 12.11 17.6157 13.3307 17.6283C13.3513 17.6285 13.371 17.6287 13.3909 17.6289C13.4007 17.629 13.4109 17.6291 13.4205 17.6292C13.4359 17.6295 13.4504 17.6296 13.4654 17.6298C13.4786 17.6299 13.4923 17.6301 13.5052 17.6303C13.5817 17.6313 13.6511 17.6323 13.7133 17.6334L13.7413 19.2477H7.90441C7.23904 19.2477 6.69778 19.789 6.69778 20.4543V31.1737C6.69778 31.7327 7.15249 32.1873 7.71133 32.1873H13.9563C13.9483 32.2132 13.9358 32.235 13.9194 32.2469C13.6584 32.436 13.5078 32.7418 13.5165 33.0648L13.5624 34.7619C13.5642 34.83 13.5727 34.8961 13.5845 34.9609H6.72154C6.47812 34.9609 6.28012 34.7628 6.28012 34.5194V23.3364C6.28012 23.0494 6.04746 22.8168 5.76044 22.8168C5.47342 22.8168 5.24076 23.0494 5.24076 23.3364V34.5191C5.24076 35.3357 5.90507 36 6.72161 36H30.9393C30.9401 36 30.9393 36 30.9401 36C31.8055 36 32.5096 35.2959 32.5096 34.4305V18.1414C32.5096 17.439 32.1944 16.7852 31.6449 16.3477ZM9.70131 12.0479H12.0592V14.1849H9.70131V12.0479ZM10.2043 16.58C10.203 16.58 10.2017 16.58 10.2005 16.58C9.9794 16.5804 9.76277 16.5811 9.5545 16.5819C9.55303 16.5819 9.55148 16.5819 9.55 16.5819C9.83674 16.1942 10.02 15.7274 10.0619 15.2243H11.6986C11.7405 15.7274 11.9238 16.1942 12.2106 16.5819C11.5809 16.5793 10.8733 16.5786 10.2043 16.58ZM7.73721 20.454C7.73721 20.3619 7.81223 20.2868 7.90441 20.2868H13.7598L13.8536 25.6871H7.73721V20.454ZM7.73721 26.7266H13.8717L13.886 27.5505H7.73721V26.7266ZM7.73721 31.1476V28.5898H13.904L13.9485 31.1476H7.73721ZM17.2604 1.03943H20.0745V1.84226H17.2604V1.03943ZM17.2604 2.88169H20.0745V6.77377H17.2604V2.88169ZM22.7336 34.7336C22.7302 34.8609 22.6278 34.9605 22.5004 34.9606C22.5004 34.9606 22.5003 34.9606 22.5002 34.9606H14.8346C14.7073 34.9606 14.6048 34.8609 14.6014 34.7336L14.5564 33.0681C14.8444 32.8456 15.0115 32.4893 15.0048 32.1078L14.6624 12.4053C14.6624 12.404 14.6621 12.3943 14.6621 12.3929C14.6555 12.2325 14.7159 12.0745 14.8277 11.9594L16.8366 9.89135C17.2303 9.48607 17.4472 8.95162 17.4472 8.38652V7.81327H19.888V8.38652C19.888 8.95162 20.1048 9.486 20.4986 9.89135L22.5075 11.9594C22.6194 12.0746 22.6797 12.2325 22.6732 12.393C22.6732 12.3933 22.6728 12.405 22.6728 12.4053L22.3304 32.1078C22.3237 32.4893 22.4908 32.8456 22.7788 33.0681L22.7336 34.7336ZM25.1933 6.13153H28.2534V6.9312H25.1933V6.13153ZM25.1933 7.89462H28.2534V8.7499H25.1933V7.89462ZM25.4074 9.78933H28.0394C28.2168 10.32 28.4248 11.1121 28.4968 12.0578H24.9501C25.022 11.1121 25.23 10.32 25.4074 9.78933ZM30.94 34.9606H23.7505C23.7623 34.8958 23.7708 34.8298 23.7726 34.7617L23.7987 33.7961H31.4701V34.4305H31.4701C31.4701 34.7228 31.2323 34.9606 30.94 34.9606ZM31.4703 18.6762H31.4701H26.9144C26.6274 18.6762 26.3948 18.9089 26.3948 19.1959C26.3948 19.4829 26.6274 19.7156 26.9144 19.7156H31.4701V32.7566H23.7759C23.7151 32.5542 23.5911 32.3738 23.4156 32.2466C23.3871 32.2258 23.3686 32.1773 23.3695 32.1259L23.5209 23.4176C23.6963 23.5902 23.932 23.6855 24.174 23.6855C24.3007 23.6855 24.429 23.6595 24.5512 23.605C26.0332 22.9438 27.4137 22.9439 28.8955 23.605C28.8955 23.605 28.8955 23.605 28.8956 23.605C29.3265 23.7971 29.8336 23.635 30.075 23.2277L30.4753 22.5525C30.6095 22.326 30.6418 22.0519 30.5637 21.8004C30.4853 21.5482 30.303 21.3401 30.0633 21.2291C27.906 20.2307 25.7191 20.2046 23.5603 21.1499L23.5853 19.7156H24.4757C24.7627 19.7156 24.9954 19.4829 24.9954 19.1959C24.9954 18.9089 24.7627 18.6762 24.4757 18.6762H23.6034L23.6463 16.2078L25.0684 15.0756C25.1839 14.9836 25.2549 14.8468 25.2635 14.6993C25.2712 14.5684 25.2291 14.4401 25.1467 14.3397C25.1227 14.2975 24.9655 13.9881 24.931 13.0972H28.516C28.4815 13.9881 28.3243 14.2975 28.3003 14.3397C28.218 14.4401 28.1759 14.5684 28.1835 14.6993C28.1922 14.8468 28.2631 14.9836 28.3786 15.0756L30.9976 17.1608C31.298 17.4 31.4703 17.7574 31.4703 18.1414V18.6762ZM29.2291 22.6163C27.5441 21.8896 25.9028 21.8895 24.2177 22.6163L23.926 22.1243C25.7829 21.2968 27.664 21.2968 29.5208 22.1243L29.2291 22.6163Z" fill="#1A3F34"/>
</svg>