<svg width="37" height="36" viewBox="0 0 37 36" fill="none" xmlns="http://www.w3.org/2000/svg">
<g clipPath="url(#clip0_710_1355)">
<path d="M17.7848 33.8874H1.60565C1.40205 33.8874 1.20769 33.8024 1.06939 33.6527C0.931086 33.5033 0.861473 33.3028 0.877182 33.0995L2.68804 9.95079C2.71792 9.57038 3.03518 9.27715 3.41651 9.27715H20.1797C20.3863 9.27715 20.5835 9.36462 20.7221 9.51833C20.8607 9.67203 20.9275 9.87717 20.9066 10.0829L18.5117 33.2317C18.4732 33.6044 18.1593 33.8874 17.7848 33.8874ZM2.39573 32.4259H17.1259L19.3696 10.7384H4.09231L2.39573 32.4259Z" fill="#1A3F34"/>
<path d="M32.1744 33.8874H24.1708C23.815 33.8874 23.5113 33.6312 23.4506 33.2809L20.6981 17.3162C20.6615 17.1037 20.7206 16.8862 20.8595 16.7214C20.9985 16.5566 21.2027 16.4614 21.4183 16.4614H33.7496C33.956 16.4614 34.1525 16.5486 34.2911 16.7014C34.4297 16.8542 34.4972 17.0584 34.4769 17.2638L32.9016 33.2283C32.8647 33.6025 32.5505 33.8874 32.1744 33.8874ZM24.7865 32.4259H31.5125L32.9432 17.9227H22.2857L24.7865 32.4259Z" fill="#1A3F34"/>
<path d="M24.1706 33.8874H17.7847C17.578 33.8874 17.3806 33.7996 17.2423 33.6459C17.1037 33.4922 17.0368 33.2871 17.0581 33.0813L19.4526 9.93261C19.4902 9.56945 19.7899 9.28977 20.1549 9.27745C20.5196 9.2642 20.8375 9.52386 20.8997 9.88363L24.8908 33.0324C24.9274 33.2449 24.8683 33.4624 24.7293 33.6275C24.5907 33.7923 24.3862 33.8874 24.1706 33.8874ZM18.5948 32.4259H23.3032L20.3607 15.3584L18.5948 32.4259Z" fill="#1A3F34"/>
<path d="M16.1884 14.7297C15.7849 14.7297 15.4578 14.4026 15.4578 13.9988V7.21401C15.4578 5.19617 13.816 3.55441 11.7982 3.55441C9.78032 3.55441 8.13856 5.19586 8.13856 7.21401V13.9988C8.13856 14.4026 7.81144 14.7297 7.40763 14.7297C7.00412 14.7297 6.677 14.4026 6.677 13.9988V7.21401C6.677 4.39038 8.97423 2.09285 11.7982 2.09285C14.6218 2.09285 16.919 4.39038 16.919 7.21401V13.9988C16.919 14.4026 16.5919 14.7297 16.1884 14.7297Z" fill="#1A3F34"/>
<path d="M36.1444 33.8874H32.1743C31.9683 33.8874 31.7718 33.8003 31.6331 33.6472C31.4945 33.4944 31.4271 33.2902 31.4474 33.085L33.0226 17.1203C33.0587 16.7534 33.3627 16.471 33.7311 16.4614C34.1001 16.4528 34.4177 16.7189 34.4722 17.0836L36.867 33.0481C36.8985 33.2585 36.8369 33.4722 36.6979 33.6333C36.5593 33.7947 36.357 33.8874 36.1444 33.8874ZM32.9807 32.4259H35.2958L33.8993 23.1159L32.9807 32.4259Z" fill="#1A3F34"/>
<path d="M30.5566 20.7796C30.1531 20.7796 29.826 20.4525 29.826 20.049V15.4065C29.826 14.1528 28.8345 13.1333 27.616 13.1333C26.3971 13.1333 25.4056 14.1528 25.4056 15.4065V20.049C25.4056 20.4522 25.0785 20.7796 24.675 20.7796C24.2715 20.7796 23.9443 20.4525 23.9443 20.049V15.4065C23.9443 13.347 25.5913 11.6717 27.616 11.6717C29.6403 11.6717 31.2873 13.3473 31.2873 15.4065V20.049C31.2873 20.4525 30.9601 20.7796 30.5566 20.7796Z" fill="#1A3F34"/>
<path d="M12.0315 30.412H2.53238C2.12888 30.412 1.80176 30.0846 1.80176 29.6811C1.80176 29.2776 2.12888 28.9505 2.53238 28.9505H12.0315C12.435 28.9505 12.7621 29.2776 12.7621 29.6811C12.7621 30.0846 12.435 30.412 12.0315 30.412Z" fill="#1A3F34"/>
<path d="M14.9542 30.412H14.2236C13.8201 30.412 13.4927 30.0846 13.4927 29.6811C13.4927 29.2776 13.8201 28.9505 14.2236 28.9505H14.9542C15.3577 28.9505 15.6849 29.2776 15.6849 29.6811C15.6849 30.0846 15.3577 30.412 14.9542 30.412Z" fill="#1A3F34"/>
<path d="M28.8376 31.1427H23.7226C23.3191 31.1427 22.9919 30.8155 22.9919 30.412C22.9919 30.0082 23.3191 29.6811 23.7226 29.6811H28.8376C29.2411 29.6811 29.5682 30.0082 29.5682 30.412C29.5682 30.8155 29.2411 31.1427 28.8376 31.1427Z" fill="#1A3F34"/>
<path d="M11.052 25.1085C10.8579 25.1085 10.6722 25.0315 10.5351 24.8944C10.0604 24.4198 9.58578 23.9953 9.12683 23.5847C7.62769 22.2439 6.33276 21.0858 6.33276 19.2536C6.33276 17.7511 7.55499 16.5289 9.05752 16.5289C9.99575 16.5289 10.6056 16.8896 11.052 17.4024C11.4983 16.8896 12.1082 16.5289 13.0461 16.5289C14.5499 16.5289 15.7733 17.7511 15.7733 19.2536C15.7733 21.0851 14.4787 22.2427 12.9793 23.5829C12.5194 23.9941 12.0441 24.4192 11.5688 24.8944C11.4314 25.0315 11.2457 25.1085 11.052 25.1085ZM9.05752 17.9901C8.36078 17.9901 7.79402 18.5569 7.79402 19.2536C7.79402 20.4321 8.76182 21.2977 10.1011 22.4956C10.4113 22.7731 10.7285 23.0568 11.052 23.3608C11.376 23.0562 11.6942 22.7716 12.0053 22.4937C13.3446 21.2961 14.3121 20.4312 14.3121 19.2536C14.3121 18.5569 13.7441 17.9901 13.0461 17.9901C12.4966 17.9901 12.1725 18.1478 11.7056 19.0821C11.5818 19.3297 11.3286 19.4859 11.052 19.4859C10.775 19.4859 10.5222 19.3297 10.3983 19.0821C9.93107 18.1478 9.60734 17.9901 9.05752 17.9901Z" fill="#1A3F34"/>
<path d="M21.5306 8.49138C20.3219 8.49138 19.3384 7.50787 19.3384 6.2992C19.3384 5.09052 20.3219 4.10732 21.5306 4.10732C22.7392 4.10732 23.7224 5.09052 23.7224 6.2992C23.7224 7.50787 22.7392 8.49138 21.5306 8.49138ZM21.5306 5.56857C21.1277 5.56857 20.7996 5.8963 20.7996 6.2992C20.7996 6.70209 21.1277 7.02982 21.5306 7.02982C21.9335 7.02982 22.2612 6.70209 22.2612 6.2992C22.2612 5.8963 21.9335 5.56857 21.5306 5.56857Z" fill="#1A3F34"/>
<path d="M33.2215 13.6061C32.0128 13.6061 31.0293 12.6226 31.0293 11.4139C31.0293 10.2052 32.0128 9.222 33.2215 9.222C34.4302 9.222 35.4134 10.2052 35.4134 11.4139C35.4134 12.6226 34.4302 13.6061 33.2215 13.6061ZM33.2215 10.6833C32.8186 10.6833 32.4909 11.011 32.4909 11.4139C32.4909 11.8168 32.8186 12.1448 33.2215 12.1448C33.6244 12.1448 33.9521 11.8168 33.9521 11.4139C33.9521 11.011 33.6244 10.6833 33.2215 10.6833Z" fill="#1A3F34"/>
</g>
<defs>
<clipPath id="clip0_710_1355">
<rect width="36" height="36" fill="white" transform="translate(0.875)"/>
</clipPath>
</defs>
</svg>
