<svg width="37" height="36" viewBox="0 0 37 36" fill="none" xmlns="http://www.w3.org/2000/svg">
<path d="M29.2858 15.2384C29.9242 15.8328 30.4335 16.552 30.7821 17.3516C31.1308 18.1511 31.3113 19.0138 31.3125 19.886C31.3095 20.9674 31.5211 22.0386 31.9349 23.0376C32.3487 24.0367 32.9566 24.9437 33.7233 25.7063L34.2897 26.2727L35.0853 25.4773L34.5189 24.9108C33.8569 24.2525 33.3321 23.4694 32.9748 22.6069C32.6176 21.7444 32.4349 20.8196 32.4375 19.886C32.434 18.4277 32.006 17.002 31.2056 15.7829C30.4052 14.5639 29.2672 13.6043 27.9304 13.0214C27.9349 12.9937 27.9372 12.9656 27.9375 12.9375V8.4375C27.9368 7.84097 27.6996 7.26906 27.2777 6.84725C26.8559 6.42544 26.284 6.18817 25.6875 6.1875H22.5455L22.4107 6.05266C22.6295 5.95981 22.8262 5.82178 22.9879 5.64762C23.1496 5.47346 23.2727 5.2671 23.3491 5.04205C23.4255 4.81701 23.4535 4.57835 23.4313 4.34173C23.409 4.10511 23.3371 3.87585 23.22 3.66899C23.103 3.46212 22.9436 3.28231 22.7523 3.14134C22.561 3.00037 22.342 2.90141 22.1097 2.85095C21.8775 2.8005 21.6372 2.79968 21.4046 2.84856C21.172 2.89743 20.9524 2.9949 20.7601 3.13457C20.5293 2.70426 20.2135 2.32526 19.832 2.02052C19.2654 1.56698 18.5514 1.33835 17.8267 1.3784C17.1021 1.41844 16.4177 1.72436 15.9045 2.23757L15.7273 2.41472C15.1917 2.9509 14.8829 3.67262 14.865 4.43027C14.8471 5.18793 15.1214 5.92343 15.631 6.48433L16.1539 8.05291C16.1912 8.1649 16.2628 8.26231 16.3586 8.33133C16.4544 8.40036 16.5694 8.4375 16.6875 8.4375H17.5795L18.5398 9.39777C18.6453 9.50322 18.7883 9.56246 18.9375 9.56246C19.0867 9.56246 19.2297 9.50322 19.3352 9.39777L19.5 9.23301V9.96118L15.6619 15.9925L14.628 17.371C14.4667 17.5865 14.356 17.8356 14.3039 18.0998C14.2519 18.364 14.26 18.6365 14.3275 18.8972C14.395 19.1578 14.5203 19.3999 14.6941 19.6056C14.8678 19.8113 15.0856 19.9753 15.3313 20.0854L8.33787 29.3267C7.97117 29.2392 7.59063 29.2264 7.21887 29.289C6.84712 29.3516 6.49176 29.4884 6.17395 29.6912C5.85614 29.8939 5.58237 30.1586 5.36894 30.4693C5.15551 30.7801 5.00678 31.1306 4.9316 31.5H3.1875C2.73995 31.5 2.31072 31.6778 1.99426 31.9943C1.67779 32.3107 1.5 32.7399 1.5 33.1875C1.5 33.635 1.67779 34.0643 1.99426 34.3807C2.31072 34.6972 2.73995 34.875 3.1875 34.875H10.5C10.9476 34.875 11.3768 34.6972 11.6932 34.3807C12.0097 34.0643 12.1875 33.635 12.1875 33.1875C12.1875 32.7399 12.0097 32.3107 11.6932 31.9943C11.3768 31.6778 10.9476 31.5 10.5 31.5H10.4434C10.3052 30.8278 9.92638 30.2292 9.37807 29.8165L19.7806 16.0703C19.8709 15.951 19.9654 15.8363 20.0625 15.7245V23.625C20.0625 23.7742 20.1218 23.9173 20.2273 24.0227C20.3327 24.1282 20.4758 24.1875 20.625 24.1875H21.1875V28.125C21.1875 28.1773 21.1948 28.2293 21.2091 28.2796L22.1946 31.7288L20.8981 32.2474C20.4846 32.4113 20.13 32.696 19.8806 33.0643C19.6312 33.4327 19.4986 33.8676 19.5 34.3125C19.5 34.4617 19.5593 34.6048 19.6648 34.7102C19.7702 34.8157 19.9133 34.875 20.0625 34.875H25.6875C25.8367 34.875 25.9798 34.8157 26.0852 34.7102C26.1907 34.6048 26.25 34.4617 26.25 34.3125V32.0625H26.2493C26.2495 32.0359 26.2479 32.0093 26.2443 31.9829L25.7628 28.612L28.7128 31.8897L28.1297 32.1813C27.733 32.3779 27.3992 32.6819 27.1664 33.0586C26.9336 33.4353 26.811 33.8697 26.8125 34.3125C26.8125 34.4617 26.8718 34.6048 26.9773 34.7102C27.0827 34.8157 27.2258 34.875 27.375 34.875H31.3125C31.4342 34.875 31.5526 34.8355 31.65 34.7625L33.9 33.075C33.9645 33.0267 34.0178 32.965 34.0564 32.8943C34.095 32.8235 34.1179 32.7453 34.1236 32.6649C34.1293 32.5845 34.1177 32.5038 34.0895 32.4283C34.0613 32.3528 34.0172 32.2842 33.9602 32.2272L32.3259 30.5929L30.1134 26.7209C30.0753 26.6542 30.0239 26.5961 29.9625 26.55L27.9375 25.0312V23.2422C28.3292 23.2233 28.7181 23.1659 29.0985 23.0708L29.199 23.0457C29.3437 23.0095 29.4681 22.9173 29.5449 22.7894C29.6216 22.6614 29.6444 22.5083 29.6082 22.3636L28.4832 17.8636C28.472 17.8186 28.4552 17.7752 28.4334 17.7344L26.6014 14.3144L27.0975 13.901C27.91 14.1939 28.6545 14.6489 29.2858 15.2384ZM11.0625 33.1875C11.0623 33.3366 11.003 33.4796 10.8976 33.5851C10.7921 33.6905 10.6491 33.7498 10.5 33.75H3.1875C3.03832 33.75 2.89524 33.6907 2.78975 33.5852C2.68426 33.4798 2.625 33.3367 2.625 33.1875C2.625 33.0383 2.68426 32.8952 2.78975 32.7897C2.89524 32.6843 3.03832 32.625 3.1875 32.625H10.5C10.6491 32.6252 10.7921 32.6845 10.8976 32.7899C11.003 32.8954 11.0623 33.0384 11.0625 33.1875ZM6.09677 31.5C6.21303 31.171 6.42844 30.8861 6.71333 30.6847C6.99821 30.4832 7.33857 30.375 7.6875 30.375C8.03643 30.375 8.37679 30.4832 8.66167 30.6847C8.94656 30.8861 9.16197 31.171 9.27823 31.5H6.09677ZM21.1875 23.0625V16.8178C21.4689 17.0078 21.8006 17.1095 22.1402 17.1097C22.4023 17.1097 22.6608 17.0487 22.8952 16.9313L23.6169 16.5704L24.4825 23.0625H21.1875ZM21.7782 14.9743L22.5419 14.3527L23.2138 15.5142L22.3922 15.9251C22.2668 15.9878 22.1226 16.002 21.9874 15.9651C21.8521 15.9281 21.7353 15.8425 21.6592 15.7247C21.5832 15.607 21.5533 15.4652 21.5752 15.3268C21.5971 15.1883 21.6694 15.0628 21.7782 14.9743ZM22.753 12.7095C22.2028 12.8714 21.6729 13.0956 21.1736 13.3777C21.1505 13.2734 21.0982 13.1778 21.0227 13.1022L20.7694 12.8489C20.4586 12.5367 20.2649 12.127 20.2208 11.6888C20.1767 11.2505 20.2849 10.8105 20.5271 10.4426L20.5371 10.427L20.5364 10.4266C20.594 10.3365 20.6248 10.2319 20.625 10.125V9.23301L20.7898 9.39777C20.8953 9.50325 21.0383 9.5625 21.1875 9.5625C21.3367 9.5625 21.4797 9.50325 21.5852 9.39777L22.7102 8.27277C22.8157 8.16727 22.875 8.02419 22.875 7.875V7.3125H23.7395C23.5412 7.65424 23.437 8.04241 23.4375 8.4375V12.1177L22.753 12.7095ZM21.75 3.9375C21.8613 3.9375 21.97 3.97049 22.0625 4.03229C22.155 4.0941 22.2271 4.18195 22.2697 4.28474C22.3123 4.38752 22.3234 4.50062 22.3017 4.60973C22.28 4.71885 22.2264 4.81908 22.1477 4.89774C22.0691 4.97641 21.9689 5.02998 21.8597 5.05169C21.7506 5.07339 21.6375 5.06225 21.5347 5.01968C21.432 4.9771 21.3441 4.90501 21.2823 4.8125C21.2205 4.72 21.1875 4.61125 21.1875 4.5C21.1877 4.35086 21.247 4.20789 21.3524 4.10244C21.4579 3.99698 21.6009 3.93767 21.75 3.9375ZM16.6999 3.03311C17.0173 2.71567 17.4406 2.52645 17.8888 2.50168C18.337 2.47691 18.7786 2.61834 19.129 2.89888C19.3018 3.0372 19.4554 3.19786 19.5859 3.37666C19.3644 3.38502 19.1489 3.45175 18.9614 3.5701C18.7739 3.68845 18.6209 3.85423 18.518 4.05065C17.8142 3.6629 17.0024 3.51718 16.2077 3.63594C16.2914 3.47945 16.3975 3.33604 16.5227 3.21027L16.6999 3.03311ZM18.9375 8.20452L18.2102 7.47722C18.1047 7.37175 17.9617 7.31249 17.8125 7.3125H17.0929L16.6586 6.00959C16.631 5.92677 16.5845 5.85152 16.5228 5.78979C16.256 5.52273 16.0788 5.17935 16.0157 4.80718L16.3354 4.75392C16.7325 4.68825 17.1396 4.71806 17.5229 4.84088C17.9062 4.96371 18.2548 5.17603 18.5398 5.46027C18.6184 5.53892 18.7187 5.59248 18.8278 5.61418C18.9369 5.63587 19.05 5.62473 19.1528 5.58215C19.2555 5.53958 19.3434 5.46748 19.4052 5.37499C19.467 5.28249 19.5 5.17374 19.5 5.0625V4.63293C19.5 4.59769 19.514 4.5639 19.539 4.53898C19.5639 4.51406 19.5977 4.50004 19.6329 4.5C19.6573 4.49998 19.6812 4.50676 19.702 4.51956C19.7232 4.53269 19.7403 4.55148 19.7514 4.57381L20.122 5.31422L20.1224 5.31398C20.1493 5.36806 20.1847 5.41745 20.2273 5.46027L21.75 6.98297V7.64201L21.1875 8.20451L20.4602 7.47722C20.3547 7.37175 20.2117 7.31249 20.0625 7.31249C19.9133 7.31249 19.7703 7.37175 19.6648 7.47722L18.9375 8.20452ZM15.5901 18.9196C15.477 18.8055 15.4085 18.6546 15.3971 18.4943C15.3857 18.334 15.4322 18.1749 15.528 18.0459L16.2139 17.1315L17.0328 17.8369L16.0658 19.1148C15.9775 19.1156 15.89 19.0987 15.8083 19.0652C15.7266 19.0317 15.6524 18.9822 15.5901 18.9196ZM18.8835 15.3914L17.7131 16.938L16.8608 16.2039L19.2433 12.46C19.3913 12.9063 19.6415 13.3119 19.9739 13.6444L20.0625 13.733V14.1513C19.6242 14.5191 19.2287 14.9351 18.8835 15.3914ZM20.7786 33.75C20.9023 33.5422 21.0912 33.3812 21.3159 33.2919L22.9833 32.625H25.125V33.75H20.7786ZM24.5682 28.2046L25.0389 31.5H23.2993L22.3125 28.0462V24.1875H23.7465L24.0034 26.4996C24.0164 26.6165 24.0657 26.7264 24.1444 26.8138L24.5625 27.2783V28.125C24.5625 28.1516 24.5644 28.1782 24.5682 28.2046ZM31.125 33.75H28.069C28.1907 33.5062 28.3887 33.3087 28.6328 33.1875L29.7578 32.625H30.0547C30.4097 32.6261 30.7611 32.5539 31.0869 32.4131C31.4127 32.2723 31.706 32.0658 31.9485 31.8065L32.7062 32.5642L31.125 33.75ZM29.1944 27.3801L31.2212 30.9271C31.084 31.106 30.9074 31.2507 30.705 31.3501C30.5027 31.4495 30.2801 31.5008 30.0547 31.5H29.8755L25.1016 26.1957L24.8785 24.1875H25.125C25.2051 24.1875 25.2844 24.1704 25.3574 24.1372C25.4303 24.1041 25.4954 24.0558 25.5482 23.9955C25.601 23.9352 25.6403 23.8643 25.6635 23.7876C25.6866 23.7109 25.6931 23.6301 25.6826 23.5506L25.5923 22.8735C25.9865 23.022 26.3956 23.1276 26.8125 23.1883V25.3125C26.8125 25.3998 26.8328 25.486 26.8719 25.5641C26.9109 25.6422 26.9677 25.7101 27.0375 25.7625L29.1944 27.3801ZM27.4087 18.2041L28.3751 22.0698C27.3603 22.2248 26.3225 22.0467 25.4174 21.562L24.6661 15.9271L25.719 15.0497L27.4087 18.2041ZM26.8125 12.674L24.1527 14.8905L23.5235 13.8027L23.4185 13.6212L24.3679 12.8005C24.429 12.7477 24.4779 12.6824 24.5115 12.609C24.5451 12.5355 24.5625 12.4557 24.5625 12.375V8.4375C24.5625 8.13913 24.681 7.85298 24.892 7.642C25.103 7.43102 25.3891 7.3125 25.6875 7.3125C25.9859 7.3125 26.272 7.43102 26.483 7.642C26.694 7.85298 26.8125 8.13913 26.8125 8.4375V12.674Z" fill="#1A3F34"/>
</svg>
