<svg width="37" height="36" viewBox="0 0 37 36" fill="none" xmlns="http://www.w3.org/2000/svg">
<g clipPath="url(#clip0_710_1381)">
<path d="M18.4932 11.7615L12.5027 15.6341C12.1765 15.8449 12.0831 16.2802 12.2939 16.6063C12.5047 16.9324 12.9399 17.0259 13.2661 16.8151L13.9358 16.3821V22.9419C13.9358 23.3302 14.2506 23.645 14.6389 23.645H23.1109C23.4992 23.645 23.814 23.3302 23.814 22.9419V16.3821L24.4837 16.8151C24.8099 17.0259 25.2451 16.9323 25.4559 16.6063C25.6667 16.2802 25.5733 15.8449 25.2471 15.6341L19.2566 11.7615C19.0243 11.6115 18.7256 11.6115 18.4932 11.7615ZM18.1661 22.2389V19.4473C18.1661 19.4262 18.1832 19.4091 18.2043 19.4091H19.5457C19.5668 19.4091 19.5839 19.4262 19.5839 19.4473V22.2389H18.1661ZM22.4078 22.2389H20.9901V19.4473C20.9901 18.6509 20.3421 18.0029 19.5457 18.0029H18.2043C17.4078 18.0029 16.7598 18.6509 16.7598 19.4473V22.2389H15.3421V15.4731L18.875 13.1893L22.4078 15.4731V22.2389Z" fill="#1A3F34"/>
<path d="M17.4658 15.882C17.4658 16.2704 17.7806 16.5852 18.1689 16.5852H19.581C19.9693 16.5852 20.2841 16.2704 20.2841 15.882C20.2841 15.4938 19.9693 15.1789 19.581 15.1789H18.1689C17.7806 15.1789 17.4658 15.4937 17.4658 15.882Z" fill="#1A3F34"/>
<path d="M5.81412 3.52997H4.4021C4.01383 3.52997 3.69897 3.84476 3.69897 4.23309C3.69897 4.62143 4.01383 4.93622 4.4021 4.93622H5.81412C6.20238 4.93622 6.51724 4.62136 6.51724 4.23309C6.51724 3.84483 6.20245 3.52997 5.81412 3.52997Z" fill="#1A3F34"/>
<path d="M5.81412 7.05994H4.4021C4.01383 7.05994 3.69897 7.37473 3.69897 7.76306C3.69897 8.15133 4.01383 8.46619 4.4021 8.46619H5.81412C6.20238 8.46619 6.51724 8.15133 6.51724 7.76306C6.51724 7.3748 6.20245 7.05994 5.81412 7.05994Z" fill="#1A3F34"/>
<path d="M30.524 11.9962H34.7599C35.9261 11.9962 36.875 11.0473 36.875 9.88102V2.46811C36.875 2.28164 36.8009 2.10284 36.6691 1.97093L34.9041 0.205945C34.7722 0.0741094 34.5934 0 34.4069 0H30.5239C29.3576 0 28.4087 0.948867 28.4087 2.11514V7.47183L25.3438 10.5367C21.6277 7.31152 16.12 7.31341 12.4061 10.5367L9.34119 7.47183V2.46811C9.34119 2.28164 9.26708 2.10284 9.13524 1.97093L7.37019 0.205945C7.23835 0.0741094 7.05955 0 6.87308 0H2.99014C1.82387 0 0.875 0.948867 0.875 2.11514V9.88102C0.875 11.0473 1.82387 11.9962 2.99014 11.9962H7.22605C8.39232 11.9962 9.34119 11.0473 9.34119 9.88102V9.46055L11.4117 11.5311C8.19186 15.241 8.18272 20.7484 11.4117 24.4688L9.34119 26.5394C9.33627 26.5106 9.38084 26.2204 9.13524 25.9748L7.37019 24.2098C7.23835 24.078 7.05955 24.0038 6.87308 24.0038H2.99014C1.82387 24.0038 0.875 24.9527 0.875 26.119V33.8849C0.875 35.0511 1.82387 36 2.99014 36H7.22605C8.39232 36 9.34119 35.0511 9.34119 33.8849V28.5282L12.4061 25.4633C16.1222 28.6885 21.6299 28.6866 25.3438 25.4633L28.4087 28.5282V33.8849C28.4087 35.0511 29.3576 36 30.5239 36H34.7598C35.9261 36 36.875 35.0511 36.875 33.8849V26.472C36.875 26.2855 36.8009 26.1067 36.6691 25.9748L34.9041 24.2098C34.7722 24.078 34.5934 24.0038 34.4069 24.0038H30.5239C29.3576 24.0038 28.4087 24.9527 28.4087 26.119V26.5394L26.3382 24.4688C29.5634 20.7527 29.5615 15.245 26.3382 11.5311L28.4087 9.46055V9.88102C28.4088 11.0473 29.3577 11.9962 30.524 11.9962ZM7.22605 10.5899H2.99014C2.5992 10.5899 2.28125 10.2719 2.28125 9.88102V2.11514C2.28125 1.7242 2.5992 1.40625 2.99014 1.40625H6.58184L7.93494 2.75934V9.88102C7.93494 10.272 7.61698 10.5899 7.22605 10.5899ZM7.22605 34.5938H2.99014C2.5992 34.5938 2.28125 34.2758 2.28125 33.8849V26.119C2.28125 25.728 2.5992 25.4101 2.99014 25.4101H6.58177L7.93494 26.7633V33.8849C7.93494 34.2758 7.61698 34.5938 7.22605 34.5938ZM30.524 25.4101H34.1157L35.4688 26.7632V33.8849C35.4688 34.2758 35.1508 34.5938 34.7599 34.5938H30.524C30.133 34.5938 29.8151 34.2758 29.8151 33.8849C29.8151 30.4022 29.8151 28.4451 29.8151 26.119C29.8151 25.728 30.133 25.4101 30.524 25.4101ZM18.875 26.4748C14.202 26.4748 10.4002 22.673 10.4002 18C10.4002 13.327 14.202 9.52523 18.875 9.52523C23.548 9.52523 27.3498 13.327 27.3498 18C27.3498 22.673 23.548 26.4748 18.875 26.4748ZM30.524 1.40625H34.1157L35.4688 2.75934V9.88102C35.4688 10.2719 35.1508 10.5899 34.7599 10.5899H30.524C30.133 10.5899 29.8151 10.2719 29.8151 9.88102C29.8151 8.99444 29.8151 3.08834 29.8151 2.11514C29.8151 1.7242 30.133 1.40625 30.524 1.40625Z" fill="#1A3F34"/>
<path d="M31.9358 4.93622H33.3478C33.7361 4.93622 34.0509 4.62136 34.0509 4.23309C34.0509 3.84483 33.7361 3.52997 33.3478 3.52997H31.9358C31.5475 3.52997 31.2327 3.84476 31.2327 4.23309C31.2327 4.62143 31.5475 4.93622 31.9358 4.93622Z" fill="#1A3F34"/>
<path d="M31.9358 8.46619H33.3478C33.7361 8.46619 34.0509 8.15133 34.0509 7.76306C34.0509 7.37473 33.7361 7.05994 33.3478 7.05994H31.9358C31.5475 7.05994 31.2327 7.37473 31.2327 7.76306C31.2327 8.1514 31.5475 8.46619 31.9358 8.46619Z" fill="#1A3F34"/>
<path d="M5.81412 27.5338H4.4021C4.01383 27.5338 3.69897 27.8487 3.69897 28.2369C3.69897 28.6252 4.01383 28.9401 4.4021 28.9401H5.81412C6.20238 28.9401 6.51724 28.6252 6.51724 28.2369C6.51724 27.8487 6.20245 27.5338 5.81412 27.5338Z" fill="#1A3F34"/>
<path d="M5.81412 31.0638H4.4021C4.01383 31.0638 3.69897 31.3786 3.69897 31.7669C3.69897 32.1552 4.01383 32.47 4.4021 32.47H5.81412C6.20238 32.47 6.51724 32.1552 6.51724 31.7669C6.51724 31.3786 6.20245 31.0638 5.81412 31.0638Z" fill="#1A3F34"/>
<path d="M31.9358 28.9401H33.3478C33.7361 28.9401 34.0509 28.6252 34.0509 28.2369C34.0509 27.8487 33.7361 27.5338 33.3478 27.5338H31.9358C31.5475 27.5338 31.2327 27.8487 31.2327 28.2369C31.2327 28.6252 31.5475 28.9401 31.9358 28.9401Z" fill="#1A3F34"/>
<path d="M31.9358 32.47H33.3478C33.7361 32.47 34.0509 32.1552 34.0509 31.7669C34.0509 31.3786 33.7361 31.0638 33.3478 31.0638H31.9358C31.5475 31.0638 31.2327 31.3786 31.2327 31.7669C31.2327 32.1552 31.5475 32.47 31.9358 32.47Z" fill="#1A3F34"/>
</g>
<defs>
<clipPath id="clip0_710_1381">
<rect width="36" height="36" fill="white" transform="translate(0.875)"/>
</clipPath>
</defs>
</svg>
