<svg width="37" height="36" viewBox="0 0 37 36" fill="none" xmlns="http://www.w3.org/2000/svg">
<path d="M30.8236 12.8661C31.0067 12.8668 31.1881 12.8307 31.357 12.7599C31.5259 12.6892 31.6788 12.5853 31.8068 12.4543C32.7293 11.5144 34.2768 9.63168 34.2768 7.58193C34.2801 6.89037 34.0748 6.21388 33.6875 5.64089C33.3003 5.06789 32.7493 4.62503 32.1063 4.3702C31.4634 4.11537 30.7586 4.06042 30.084 4.21253C29.4093 4.36465 28.7963 4.71674 28.3249 5.22281C27.6873 5.89808 27.3434 6.79864 27.3687 7.72706C27.439 9.72056 28.9403 11.5397 29.8296 12.447C29.9588 12.5798 30.1134 12.6853 30.2841 12.7573C30.4548 12.8293 30.6383 12.8663 30.8236 12.8661ZM29.1423 5.99287C29.4603 5.65312 29.8732 5.41697 30.3272 5.31516C30.7813 5.21335 31.2555 5.25059 31.6881 5.42205C32.1207 5.5935 32.4917 5.89122 32.7528 6.27646C33.0138 6.66169 33.1528 7.11659 33.1518 7.58193C33.1518 9.23175 31.8063 10.8489 31.0041 11.6657C30.954 11.7141 30.8867 11.7406 30.8169 11.7395C30.7472 11.7383 30.6808 11.7095 30.6323 11.6595C29.8578 10.8692 28.5511 9.30206 28.4948 7.68768C28.478 7.05936 28.7108 6.44996 29.1423 5.99287ZM32.6691 7.59937C32.6691 7.23391 32.5608 6.87665 32.3577 6.57278C32.1547 6.26891 31.8661 6.03207 31.5284 5.89222C31.1908 5.75236 30.8193 5.71577 30.4608 5.78706C30.1024 5.85836 29.7731 6.03435 29.5147 6.29277C29.2563 6.55119 29.0803 6.88044 29.009 7.23888C28.9377 7.59732 28.9743 7.96885 29.1142 8.3065C29.254 8.64414 29.4909 8.93273 29.7947 9.13577C30.0986 9.33881 30.4559 9.44718 30.8213 9.44718C31.3112 9.44659 31.7809 9.25172 32.1273 8.90531C32.4737 8.55891 32.6685 8.08926 32.6691 7.59937ZM30.0985 7.59937C30.0985 7.45641 30.1409 7.31666 30.2203 7.1978C30.2998 7.07893 30.4126 6.98629 30.5447 6.93158C30.6768 6.87687 30.8221 6.86256 30.9623 6.89045C31.1025 6.91834 31.2313 6.98718 31.3324 7.08827C31.4335 7.18935 31.5024 7.31815 31.5302 7.45836C31.5581 7.59857 31.5438 7.7439 31.4891 7.87598C31.4344 8.00806 31.3418 8.12094 31.2229 8.20037C31.104 8.27979 30.9643 8.32218 30.8213 8.32218C30.6298 8.32174 30.4463 8.24542 30.3109 8.10995C30.1755 7.97448 30.0988 7.79088 30.0985 7.59937ZM34.3825 27.7476C34.3494 27.6294 34.2785 27.5253 34.1807 27.4512C34.0829 27.377 33.9635 27.3369 33.8408 27.3369H32.8356V24.5717C32.8356 24.481 32.8136 24.3916 32.7716 24.3113C32.7295 24.2309 32.6687 24.1619 32.5942 24.1101C32.5197 24.0583 32.4338 24.0253 32.3438 24.0139C32.2538 24.0025 32.1624 24.0131 32.0774 24.0446L30.4461 24.6499C30.1108 23.8573 29.592 23.1557 28.9324 22.6029H31.1476C31.5951 22.6029 32.0243 22.4251 32.3408 22.1087C32.6573 21.7922 32.8351 21.363 32.8351 20.9154V16.0875C32.8351 15.6399 32.6573 15.2107 32.3408 14.8943C32.0243 14.5778 31.5951 14.4 31.1476 14.4H24.6687C25.0205 14.267 25.3425 14.0654 25.6158 13.807C25.8892 13.5486 26.1085 13.2386 26.2611 12.8947C26.667 12.0597 26.7247 11.0976 26.4214 10.2201C26.3622 10.0128 26.2534 9.82317 26.1045 9.66744C25.9555 9.5117 25.7708 9.3946 25.5664 9.32625C25.3294 9.25953 25.079 9.25623 24.8403 9.31668C25.0266 8.38939 25.0708 7.43915 24.9713 6.49856C24.8657 5.56841 24.543 4.67611 24.0291 3.89362C22.9368 2.33381 21.5305 1.69312 19.0133 1.60987C16.8196 1.53731 15.1833 2.02275 14.1629 3.05268C13.5892 3.62849 13.2284 4.38225 13.1397 5.19018C12.3184 5.94393 12.2211 7.32768 12.8286 9.30487C12.6234 9.2649 12.4117 9.2726 12.2099 9.32737C12.0069 9.39641 11.8236 9.51356 11.6757 9.66881C11.5278 9.82407 11.4196 10.0128 11.3605 10.2189C11.0573 11.0967 11.115 12.0589 11.5208 12.8942C11.6731 13.2378 11.892 13.5478 12.1648 13.8063C12.4377 14.0648 12.7591 14.2666 13.1104 14.4H6.60176C6.15421 14.4 5.72499 14.5778 5.40852 14.8943C5.09205 15.2107 4.91426 15.6399 4.91426 16.0875V20.9154C4.91426 21.363 5.09205 21.7922 5.40852 22.1087C5.72499 22.4251 6.15421 22.6029 6.60176 22.6029H8.8062C8.15544 23.1587 7.6451 23.8602 7.3167 24.6504L5.70289 24.0446C5.61776 24.0127 5.52616 24.0019 5.43595 24.0131C5.34573 24.0244 5.25958 24.0573 5.18488 24.1091C5.11017 24.1609 5.04914 24.2301 5.00701 24.3106C4.96487 24.3912 4.94289 24.4808 4.94295 24.5717V27.3375H3.90907C3.78635 27.3375 3.66699 27.3776 3.56919 27.4517C3.47139 27.5259 3.40052 27.63 3.36739 27.7481C2.97161 29.1581 2.97161 30.6497 3.36739 32.0597C3.40052 32.1778 3.47139 32.2819 3.56919 32.3561C3.66699 32.4302 3.78635 32.4703 3.90907 32.4703H4.94295V33.8355C4.94295 33.9847 5.00221 34.1278 5.1077 34.2332C5.21319 34.3387 5.35626 34.398 5.50545 34.398H32.2731C32.4223 34.398 32.5654 34.3387 32.6709 34.2332C32.7764 34.1278 32.8356 33.9847 32.8356 33.8355V32.4697H33.8408C33.9635 32.4698 34.0829 32.4296 34.1807 32.3555C34.2785 32.2814 34.3494 32.1773 34.3825 32.0591C34.7783 30.6492 34.7783 29.1575 34.3825 27.7476ZM29.3937 25.0408L27.4553 25.7625L27.5307 23.0062C28.3581 23.4617 29.0127 24.1766 29.3937 25.0408ZM19.0538 24.0339C18.9462 24.0009 18.8312 24.0009 18.7236 24.0339L13.7264 25.5684L13.831 21.6011L14.1831 21.4723C14.786 22.1049 15.5103 22.6094 16.3126 22.9557C17.115 23.3019 17.9789 23.4828 18.8528 23.4875C19.7266 23.4922 20.5925 23.3205 21.3985 22.9829C22.2045 22.6452 22.9341 22.1485 23.5437 21.5224L23.9374 21.6613L24.0404 25.5651L19.0538 24.0339ZM14.794 17.3402C14.8699 17.4201 14.9459 17.4937 15.019 17.5697V19.0322C15.0184 19.3063 14.9339 19.5737 14.7768 19.7983C14.6197 20.023 14.3976 20.1941 14.1404 20.2888L13.7579 20.4289C13.676 20.2631 13.5409 20.1295 13.3742 20.0495C13.2075 19.9696 13.0187 19.9479 12.8382 19.9879L11.3757 20.3051C11.0915 20.3675 10.8318 20.5119 10.6287 20.7203C10.4257 20.9288 10.2882 21.1922 10.2333 21.4779H9.83951V15.525H13.6381C13.902 16.1994 14.2943 16.816 14.794 17.3402ZM16.3746 6.11212C16.9214 5.8635 18.1437 6.27131 18.6499 6.50587C18.7248 6.54099 18.8064 6.5592 18.889 6.5592C18.9716 6.5592 19.0533 6.54099 19.1281 6.50587C19.6343 6.26906 20.8578 5.86125 21.4034 6.11212C22.2561 6.50137 22.9289 6.8085 22.7534 9.06018C22.7453 9.1631 22.7658 9.26624 22.8124 9.35831L23.4031 10.5187V13.4657C23.4073 14.6193 22.9653 15.7299 22.1695 16.5651C21.4711 17.3749 20.595 18.0123 19.6096 18.4275C19.1388 18.5621 18.6398 18.5621 18.169 18.4275C17.1835 18.0121 16.3072 17.3747 15.6085 16.5651C14.8125 15.7296 14.3705 14.6186 14.3749 13.4646V10.5187L14.9644 9.35887C15.0112 9.26663 15.0317 9.16328 15.0235 9.06018C14.8491 6.80625 15.5219 6.50137 16.3746 6.11212ZM26.3899 20.3062L24.9274 19.9896C24.7367 19.9474 24.5372 19.9739 24.3641 20.0645C24.191 20.155 24.0554 20.3038 23.9813 20.4846L23.5825 20.3428C23.3409 20.2571 23.1317 20.0986 22.9838 19.8892C22.8358 19.6798 22.7563 19.4298 22.7562 19.1734V17.5697C22.8321 17.4937 22.9075 17.4201 22.9812 17.3402C23.482 16.8163 23.8758 16.1997 24.1405 15.525H27.9312V21.4779H27.5374C27.4819 21.1917 27.3435 20.9282 27.1396 20.7199C26.9356 20.5116 26.6749 20.3678 26.3899 20.3062ZM22.4845 20.9925C21.4856 21.8846 20.1908 22.3736 18.8516 22.3647C17.5123 22.3557 16.2242 21.8495 15.2373 20.9441C15.5209 20.7125 15.7496 20.4208 15.9069 20.0901C16.0642 19.7593 16.1462 19.3978 16.1468 19.0316V18.5625C16.6479 18.9602 17.2102 19.274 17.8118 19.4917C18.5143 19.7027 19.2632 19.7027 19.9656 19.4917C20.5674 19.2741 21.1299 18.9603 21.6312 18.5625V19.1722C21.6314 19.5194 21.708 19.8622 21.8555 20.1765C22.0029 20.4908 22.2177 20.7688 22.4845 20.9908V20.9925ZM11.4499 26.199L11.3279 21.7687C11.3257 21.6839 11.3532 21.6009 11.4057 21.5341C11.4582 21.4674 11.5323 21.421 11.6153 21.4031L12.7178 21.1641L12.5929 25.9149L11.5506 26.235L11.4499 26.199ZM25.1749 25.9132L25.0501 21.1657L26.1526 21.4042C26.2356 21.4224 26.3096 21.4689 26.3621 21.5357C26.4146 21.6025 26.4421 21.6855 26.44 21.7704L26.3196 26.1827L26.1993 26.2271L25.1749 25.9132ZM31.7106 16.0875V20.9154C31.7106 21.0646 31.6514 21.2077 31.5459 21.3132C31.4404 21.4187 31.2973 21.4779 31.1481 21.4779H30.8984V15.525H31.1481C31.2973 15.525 31.4404 15.5843 31.5459 15.6897C31.6514 15.7952 31.7106 15.9383 31.7106 16.0875ZM29.7734 15.525V21.4779H29.0562V15.525H29.7734ZM25.2346 10.4017C25.2728 10.4136 25.3223 10.4906 25.3606 10.5986C25.561 11.1933 25.5207 11.8429 25.2481 12.4082C25.0944 12.7453 24.8447 13.0296 24.5303 13.2255V10.683C24.9207 10.4276 25.1609 10.3798 25.2346 10.4012V10.4017ZM14.0037 5.93718C14.0827 5.88335 14.1467 5.81027 14.1896 5.72484C14.2325 5.63941 14.2529 5.54445 14.2489 5.44893C14.2755 4.84323 14.5301 4.26997 14.9616 3.84412C15.7418 3.05662 17.1346 2.67581 18.9756 2.73375C21.1429 2.80518 22.2235 3.27768 23.1066 4.53825C23.5066 5.15707 23.7605 5.85878 23.8491 6.59025C23.8873 7.02169 23.899 7.45507 23.884 7.88793C23.8879 7.26829 23.6952 6.66338 23.3336 6.16021C22.9719 5.65705 22.46 5.28157 21.8714 5.08781C20.9033 4.64568 19.4701 5.14406 18.8901 5.38425C18.3091 5.14518 16.8758 4.64512 15.9089 5.08781C14.7158 5.63231 13.7404 6.3045 13.8895 8.92687C13.4226 7.38618 13.4502 6.31462 14.0037 5.93718ZM12.5322 12.4059C12.2597 11.8406 12.2193 11.1911 12.4197 10.5964C12.4579 10.4889 12.5074 10.4113 12.5457 10.3995C12.6171 10.3781 12.8573 10.4226 13.2528 10.6807V13.2238C12.9375 13.0285 12.6869 12.7446 12.5322 12.4076V12.4059ZM6.03926 20.9154V16.0875C6.03926 15.9383 6.09852 15.7952 6.20401 15.6897C6.3095 15.5843 6.45258 15.525 6.60176 15.525H6.86839V21.4779H6.60176C6.45258 21.4779 6.3095 21.4187 6.20401 21.3132C6.09852 21.2077 6.03926 21.0646 6.03926 20.9154ZM7.99339 21.4779V15.525H8.71282V21.4779H7.99339ZM10.2355 22.977L10.312 25.7726L8.37026 25.0447C8.74593 24.1682 9.40173 23.441 10.2349 22.977H10.2355ZM4.34895 28.4625H5.52626C5.71794 28.4587 5.90846 28.4932 6.08665 28.5639C6.26485 28.6347 6.42715 28.7402 6.56405 28.8745C6.70095 29.0087 6.8097 29.1689 6.88394 29.3456C6.95818 29.5224 6.99642 29.7122 6.99642 29.9039C6.99642 30.0956 6.95818 30.2854 6.88394 30.4622C6.8097 30.6389 6.70095 30.7991 6.56405 30.9333C6.42715 31.0676 6.26485 31.1731 6.08665 31.2439C5.90846 31.3146 5.71794 31.3491 5.52626 31.3453H4.34895C4.1446 30.3952 4.1446 29.4126 4.34895 28.4625ZM11.5321 30.0645C11.3829 30.0645 11.2398 30.1238 11.1343 30.2292C11.0288 30.3347 10.9696 30.4778 10.9696 30.627V33.2707H6.06795V32.4096C6.64084 32.286 7.1541 31.9698 7.52223 31.5138C7.89037 31.0578 8.09115 30.4894 8.09115 29.9033C8.09115 29.3173 7.89037 28.7489 7.52223 28.2929C7.1541 27.8368 6.64084 27.5207 6.06795 27.3971V25.3828L11.3346 27.3577C11.4511 27.401 11.5785 27.405 11.6974 27.369L18.3271 25.3327V33.2724H12.0946V30.6287C12.0949 30.5546 12.0805 30.4812 12.0524 30.4127C12.0243 30.3442 11.9829 30.282 11.9306 30.2295C11.8784 30.177 11.8162 30.1354 11.7479 30.107C11.6795 30.0786 11.6061 30.0639 11.5321 30.0639V30.0645ZM19.4521 33.2707V25.3327L25.6559 27.2385V29.5779C25.6559 29.7271 25.7151 29.8702 25.8206 29.9757C25.9261 30.0812 26.0692 30.1404 26.2184 30.1404C26.3676 30.1404 26.5106 30.0812 26.6161 29.9757C26.7216 29.8702 26.7809 29.7271 26.7809 29.5779V27.2115L31.7112 25.38V27.3887C31.1316 27.5069 30.6106 27.8217 30.2364 28.2799C29.8622 28.7381 29.6578 29.3115 29.6578 29.9031C29.6578 30.4946 29.8622 31.068 30.2364 31.5262C30.6106 31.9844 31.1316 32.2992 31.7112 32.4174V33.2719L19.4521 33.2707ZM33.4021 31.3431H32.2236C31.8463 31.3356 31.4869 31.1805 31.2227 30.911C30.9584 30.6415 30.8104 30.2791 30.8104 29.9017C30.8104 29.5242 30.9584 29.1618 31.2227 28.8923C31.4869 28.6228 31.8463 28.4677 32.2236 28.4602H33.4009C33.6055 29.4109 33.6055 30.3941 33.4009 31.3447L33.4021 31.3431ZM12.0946 28.8349C12.0946 28.9461 12.0616 29.0549 11.9998 29.1474C11.938 29.2399 11.8501 29.312 11.7473 29.3546C11.6445 29.3971 11.5314 29.4083 11.4223 29.3866C11.3132 29.3649 11.213 29.3113 11.1343 29.2326C11.0557 29.154 11.0021 29.0537 10.9804 28.9446C10.9587 28.8355 10.9698 28.7224 11.0124 28.6196C11.055 28.5168 11.1271 28.429 11.2196 28.3672C11.3121 28.3054 11.4208 28.2724 11.5321 28.2724C11.6813 28.2724 11.8243 28.3316 11.9298 28.4371C12.0353 28.5426 12.0946 28.6857 12.0946 28.8349ZM26.7809 31.3689C26.7809 31.4802 26.7479 31.5889 26.6861 31.6814C26.6243 31.7739 26.5364 31.846 26.4336 31.8886C26.3309 31.9312 26.2178 31.9423 26.1086 31.9206C25.9995 31.8989 25.8993 31.8453 25.8206 31.7667C25.742 31.688 25.6884 31.5878 25.6667 31.4787C25.645 31.3696 25.6561 31.2565 25.6987 31.1537C25.7413 31.0509 25.8134 30.963 25.9059 30.9012C25.9984 30.8394 26.1071 30.8064 26.2184 30.8064C26.2923 30.8065 26.3654 30.8211 26.4336 30.8495C26.5018 30.8778 26.5638 30.9193 26.616 30.9716C26.6681 31.0239 26.7095 31.0859 26.7377 31.1542C26.7659 31.2225 26.7804 31.2956 26.7803 31.3695L26.7809 31.3689Z" fill="#1A3F34"/>
</svg>
