<svg width="37" height="36" viewBox="0 0 37 36" fill="none" xmlns="http://www.w3.org/2000/svg">
<g clipPath="url(#clip0_710_1372)">
<path d="M35.1809 14.1926C35.4722 14.1926 35.7083 13.9565 35.7083 13.6652V10.3331C35.7083 9.09949 34.7043 8.09578 33.4702 8.09578H30.3589V5.21796C30.8812 5.00808 31.2514 4.49733 31.2514 3.90087V3.05473C31.2514 1.37032 29.8811 0 28.1967 0H25.3839C23.6996 0 22.3293 1.37032 22.3293 3.05473V3.90087C22.3293 4.49726 22.6994 5.00808 23.2215 5.21796V8.09578H20.1108C18.8768 8.09578 17.8728 9.09942 17.8728 10.3331V15.0496H14.4866V14.1741C14.4866 12.8589 13.4165 11.7889 12.1013 11.7889C10.7862 11.7889 9.7162 12.8589 9.7162 14.1741V15.0496H5.58703C4.47117 15.0496 3.56337 15.9574 3.56337 17.0732V23.7188C3.56337 24.01 3.7994 24.2461 4.09071 24.2461C4.38201 24.2461 4.61805 24.01 4.61805 23.7188V21.976C4.90605 22.1337 5.23624 22.2236 5.5871 22.2236H6.3071V22.7873C5.80718 22.8337 5.41434 23.2552 5.41434 23.767V24.3058C5.41434 24.8486 5.8559 25.2902 6.39872 25.2902H9.07572C9.61854 25.2902 10.0601 24.8486 10.0601 24.3058V23.767C10.0601 23.2552 9.66726 22.8337 9.16734 22.7873V22.2236H15.0353V22.7873C14.5354 22.8337 14.1426 23.2552 14.1426 23.767V24.3058C14.1426 24.8486 14.5841 25.2902 15.127 25.2902H17.8039C18.3467 25.2902 18.7883 24.8486 18.7883 24.3058V23.767C18.7883 23.2552 18.3955 22.8338 17.8956 22.7873V22.2236H18.616C18.9667 22.2236 19.2968 22.1338 19.5847 21.9761V33.9763C19.5847 34.5106 19.15 34.9452 18.6157 34.9452H5.58696C5.05265 34.9452 4.61805 34.5106 4.61805 33.9763V26.1925C4.61805 25.9012 4.38201 25.6651 4.09071 25.6651C3.7994 25.6651 3.56337 25.9012 3.56337 26.1925V26.7242H3.06534C1.94955 26.7242 1.04175 27.632 1.04175 28.7478V31.8277C1.04175 32.9436 1.94955 33.8513 3.06534 33.8513H3.56337V33.9764C3.56337 35.0923 4.47117 36 5.58696 36H18.6157C19.7316 36 20.6394 35.0922 20.6394 33.9764V33.8513H21.0727V34.503C21.0727 35.2998 21.7209 35.948 22.5176 35.948C23.3144 35.948 23.9626 35.2998 23.9626 34.503V33.5566H29.6182V34.5028C29.6182 35.2996 30.2664 35.9478 31.0632 35.9478C31.8601 35.9478 32.5083 35.2995 32.5083 34.5028V33.5566H33.4703C34.7043 33.5566 35.7083 32.553 35.7083 31.3193V16.1564C35.7083 15.8652 35.4723 15.6291 35.181 15.6291C34.8897 15.6291 34.6537 15.8652 34.6537 16.1564V31.3193C34.6537 31.9714 34.1228 32.502 33.4703 32.502H23.045C23.1198 32.2909 23.1609 32.064 23.1609 31.8277V28.7478C23.1609 28.1521 22.902 27.6157 22.4909 27.245V11.0538C22.4909 10.7626 22.2549 10.5265 21.9636 10.5265C21.6723 10.5265 21.4362 10.7626 21.4362 11.0538V26.7465C21.3386 26.732 21.2389 26.7242 21.1373 26.7242H20.6394V17.0732C20.6394 16.0633 19.8958 15.224 18.9274 15.0737V10.3331C18.9274 9.68105 19.4583 9.15047 20.1108 9.15047H33.4702C34.1227 9.15047 34.6535 9.68098 34.6535 10.3331V13.6652C34.6536 13.9565 34.8896 14.1926 35.1809 14.1926ZM3.06534 32.7966C2.53104 32.7966 2.09644 32.362 2.09644 31.8277V28.7478C2.09644 28.2135 2.53111 27.7789 3.06534 27.7789H3.56337V32.7966H3.06534ZM16.8409 21.6908C16.8409 21.6927 16.8406 21.6944 16.8406 21.6963C16.8406 21.6981 16.8409 21.6998 16.8409 21.7017V22.7826H16.09V16.1042H16.8409V21.6908ZM10.7709 14.1741C10.7709 13.4404 11.3677 12.8436 12.1013 12.8436C12.8351 12.8436 13.4319 13.4405 13.4319 14.1741V15.0496H10.7709V14.1741ZM8.11265 22.7827H7.36179V16.1044H8.11265V22.7827ZM5.5871 21.169C5.05272 21.169 4.61805 20.7343 4.61805 20.2001V17.0732C4.61805 16.5389 5.05279 16.1043 5.58703 16.1043H6.3071V21.169H5.5871ZM9.00541 24.2356H6.46903V23.8374H9.00541V24.2356ZM9.16734 21.169V16.1043H15.0353V21.169H9.16734ZM17.7336 24.2356H15.1973V23.8374H17.7336V24.2356ZM22.9079 34.503C22.9079 34.7182 22.7329 34.8933 22.5176 34.8933C22.3024 34.8933 22.1273 34.7182 22.1273 34.503V33.5917C22.1477 33.5802 22.168 33.5688 22.1879 33.5566H22.9079V34.503ZM31.4536 34.5028C31.4536 34.7181 31.2784 34.8931 31.0631 34.8931C30.8479 34.8931 30.6728 34.718 30.6728 34.5028V33.5566H31.4535L31.4536 34.5028ZM21.1373 27.7789C21.6716 27.7789 22.1062 28.2136 22.1062 28.7478V31.8277C22.1062 32.362 21.6716 32.7966 21.1373 32.7966H20.6394V27.7789H21.1373ZM19.5847 17.0732V20.2001C19.5847 20.7343 19.1501 21.169 18.616 21.169H17.8956V16.1043H18.6159C19.15 16.1043 19.5847 16.539 19.5847 17.0732ZM23.384 3.05473C23.384 1.95187 24.2812 1.05469 25.3839 1.05469H28.1966C29.2995 1.05469 30.1967 1.95195 30.1967 3.05473V3.90087C30.1967 4.10217 30.0329 4.26593 29.8315 4.26593C29.6302 4.26593 29.4663 4.10217 29.4663 3.90087V3.05473C29.4663 2.35462 28.8967 1.78502 28.1966 1.78502H25.3839C24.6838 1.78502 24.1143 2.35462 24.1143 3.05473V3.90087C24.1143 4.10217 23.9503 4.26593 23.7488 4.26593C23.5477 4.26593 23.384 4.10217 23.384 3.90087V3.05473ZM24.2762 5.21803C24.7987 5.00815 25.1691 4.4974 25.1691 3.90087V3.05473C25.1691 2.93618 25.2655 2.83971 25.3839 2.83971H28.1967C28.3153 2.83971 28.4117 2.93618 28.4117 3.05473V3.90087C28.4117 4.49733 28.7819 5.00815 29.3042 5.21796V8.09578H24.2762V5.21803Z" fill="#1A3F34"/>
<path d="M24.6543 11.0539V29.5819C24.6543 29.8732 24.8903 30.1093 25.1816 30.1093C25.4729 30.1093 25.709 29.8732 25.709 29.5819V11.0539C25.709 10.7627 25.4729 10.5266 25.1816 10.5266C24.8903 10.5266 24.6543 10.7627 24.6543 11.0539Z" fill="#1A3F34"/>
<path d="M27.8718 11.0539V29.5819C27.8718 29.8732 28.1079 30.1093 28.3992 30.1093C28.6905 30.1093 28.9265 29.8732 28.9265 29.5819V11.0539C28.9265 10.7627 28.6905 10.5266 28.3992 10.5266C28.1079 10.5266 27.8718 10.7627 27.8718 11.0539Z" fill="#1A3F34"/>
<path d="M31.0896 11.0539V29.5819C31.0896 29.8732 31.3256 30.1093 31.6169 30.1093C31.9082 30.1093 32.1443 29.8732 32.1443 29.5819V11.0539C32.1443 10.7627 31.9082 10.5266 31.6169 10.5266C31.3256 10.5266 31.0896 10.7627 31.0896 11.0539Z" fill="#1A3F34"/>
<path d="M16.4678 33.0484C17.1712 33.0484 17.7434 32.4761 17.7434 31.7729V27.9086C17.7434 27.2054 17.1712 26.6332 16.4678 26.6332H7.73494C7.03168 26.6332 6.45947 27.2054 6.45947 27.9086V31.7729C6.45947 32.4761 7.03168 33.0484 7.73494 33.0484H16.4678ZM7.51416 31.7729V27.9086C7.51416 27.7869 7.61316 27.6879 7.73494 27.6879H16.4678C16.5895 27.6879 16.6887 27.7869 16.6887 27.9086V31.7729C16.6887 31.8946 16.5896 31.9937 16.4678 31.9937H7.73494C7.61316 31.9937 7.51416 31.8946 7.51416 31.7729Z" fill="#1A3F34"/>
</g>
<defs>
<clipPath id="clip0_710_1372">
<rect width="36" height="36" fill="white" transform="translate(0.375)"/>
</clipPath>
</defs>
</svg>
