<svg width="18" height="18" viewBox="0 0 18 18" fill="none" xmlns="http://www.w3.org/2000/svg">
<path fillRule="evenodd" clipRule="evenodd" d="M3 5.57143V12.4286C3 12.8832 3.18061 13.3193 3.5021 13.6408C3.82359 13.9622 4.25963 14.1429 4.71429 14.1429H13.2857C13.7404 14.1429 14.1764 13.9622 14.4979 13.6408C14.8194 13.3193 15 12.8832 15 12.4286V5.57143C15 5.11678 14.8194 4.68074 14.4979 4.35925C14.1764 4.03776 13.7404 3.85715 13.2857 3.85715H4.71429C4.25963 3.85715 3.82359 4.03776 3.5021 4.35925C3.18061 4.68074 3 5.11678 3 5.57143Z" stroke="white" stroke-linecap="round" stroke-linejoin="round"/>
<path d="M4.71436 6.42859L9.00007 9.00002L13.2858 6.42859" stroke="white" stroke-linecap="round" stroke-linejoin="round"/>
</svg>
