<svg width="37" height="36" viewBox="0 0 37 36" fill="none" xmlns="http://www.w3.org/2000/svg">
<g clipPath="url(#clip0_710_1325)">
<path d="M33.6762 22.6634H29.7367C29.8388 22.4982 29.9263 22.321 29.9944 22.1314C30.3944 21.0179 30.0633 19.8117 29.1505 19.0587L24.4745 15.2008C23.9354 12.7375 21.7378 10.8875 19.115 10.8875C16.594 10.8875 14.466 12.597 13.8258 14.9173L12.6495 10.8C14.3308 9.86119 15.4708 8.06477 15.4708 6.0063C15.4708 2.98069 13.0093 0.519047 9.98356 0.519047C6.95781 0.519047 4.49623 2.98048 4.49623 6.00616C4.49623 7.17145 4.86249 8.2523 5.48434 9.14182C4.36932 10.2011 3.7377 11.6568 3.7377 13.2133V22.6813C2.13127 22.8497 0.875 24.212 0.875 25.8623C0.875 27.6212 2.30206 29.0528 4.05924 29.0608V30.9518C4.05924 31.3111 4.35055 31.6024 4.70984 31.6024C5.06914 31.6024 5.36045 31.3111 5.36045 30.9518V29.061H6.99788V34.1797H5.36045V34.0481C5.36045 33.6888 5.06914 33.3975 4.70984 33.3975C4.35055 33.3975 4.05924 33.6888 4.05924 34.0481V34.8304C4.05924 35.1896 4.35055 35.481 4.70984 35.481H7.64848C8.00778 35.481 8.29909 35.1896 8.29909 34.8304V34.2195L18.7603 29.1338L29.391 34.302C29.4108 34.3116 29.4308 34.3195 29.4509 34.3271V34.8304C29.4509 35.1896 29.7422 35.481 30.1015 35.481H33.0402C33.3995 35.481 33.6908 35.1896 33.6908 34.8304V29.0606C35.4479 29.0527 36.875 27.6211 36.875 25.8622C36.875 24.0984 35.4401 22.6634 33.6762 22.6634ZM24.57 16.9664L28.3224 20.0624C28.9098 20.547 28.9386 21.2216 28.7699 21.6914C28.601 22.1613 28.1493 22.6634 27.3875 22.6634H19.7656V21.822C20.7867 21.7008 21.722 21.2984 22.493 20.6942C22.5473 20.7089 22.6041 20.7175 22.663 20.7175H25.0341C25.3934 20.7175 25.6847 20.4262 25.6847 20.0669C25.6847 19.7076 25.3934 19.4163 25.0341 19.4163H23.6795C24.1583 18.7 24.4731 17.8654 24.57 16.9664ZM19.115 12.1887C21.4232 12.1887 23.3011 14.0665 23.3011 16.3747C23.3011 18.6829 21.4233 20.5608 19.115 20.5608C16.8068 20.5608 14.929 18.6829 14.929 16.3747C14.929 14.0665 16.8069 12.1887 19.115 12.1887ZM14.5506 19.4163H13.196C12.8367 19.4163 12.5454 19.7076 12.5454 20.0669C12.5454 20.4262 12.8367 20.7175 13.196 20.7175H15.4427C15.534 20.7175 15.6207 20.6986 15.6995 20.6647C16.4774 21.2854 17.4268 21.6989 18.4644 21.8222V22.6635H10.8422C10.0806 22.6635 9.62877 22.1614 9.45988 21.6915C9.29105 21.2216 9.31995 20.547 9.90734 20.0625L13.6601 16.9662C13.757 17.8653 14.0717 18.7 14.5506 19.4163ZM9.98342 1.82004C12.2916 1.82004 14.1695 3.69787 14.1695 6.00609C14.1695 8.31431 12.2916 10.1921 9.98342 10.1921C7.67527 10.1921 5.79737 8.31438 5.79737 6.00609C5.79737 3.69787 7.67527 1.82004 9.98342 1.82004ZM5.03884 13.2132C5.03884 12.0315 5.51218 10.9249 6.35002 10.1131C7.31865 10.9711 8.59088 11.4934 9.98342 11.4934C10.487 11.4934 10.9743 11.4238 11.4379 11.2962L12.7828 16.0031L10.8046 17.6351L9.80574 14.628C9.69247 14.287 9.3241 14.1024 8.98323 14.2157C8.64221 14.329 8.45764 14.6972 8.57091 15.0382L9.72854 18.5231L9.07934 19.0587C8.16669 19.8118 7.83537 21.0179 8.23545 22.1314C8.30352 22.3211 8.39105 22.4982 8.49308 22.6635H5.03884V13.2132ZM8.29909 32.7727V29.061H15.934L8.29909 32.7727ZM32.3896 34.1797H30.7521V29.061H32.3896V34.1797ZM33.6762 27.7598H28.1136C27.7543 27.7598 27.463 28.0511 27.463 28.4104C27.463 28.7697 27.7543 29.061 28.1136 29.061H29.4511V32.8843L21.5866 29.061H24.6028C24.9621 29.061 25.2534 28.7697 25.2534 28.4104C25.2534 28.0511 24.9621 27.7598 24.6028 27.7598H4.0738C3.02748 27.7598 2.1762 26.9085 2.1762 25.8622C2.1762 24.8159 3.02748 23.9646 4.0738 23.9646H10.8422H27.3875H33.6762C34.7225 23.9646 35.5738 24.8159 35.5738 25.8622C35.5738 26.9085 34.7225 27.7598 33.6762 27.7598Z" fill="#1A3F34"/>
</g>
<defs>
<clipPath id="clip0_710_1325">
<rect width="36" height="36" fill="white" transform="translate(0.875)"/>
</clipPath>
</defs>
</svg>
