<svg width="37" height="36" viewBox="0 0 37 36" fill="none" xmlns="http://www.w3.org/2000/svg">
<g clipPath="url(#clip0_710_1340)">
<path d="M2 21.8025V22.0331C2 25.3924 4.73263 28.125 8.09188 28.125H10.5444L11.3757 28.998L7.8905 32.6554C7.10131 32.7966 6.5 33.4839 6.5 34.3125C6.5 35.2429 7.25712 36 8.1875 36C9.0425 36 9.74337 35.3588 9.8525 34.533L13.25 30.9656L16.6475 34.5324C16.7561 35.3582 17.4575 36 18.3125 36C19.2429 36 20 35.2429 20 34.3125C20 33.4839 19.3987 32.7966 18.6101 32.6548L15.1248 28.9958L15.9539 28.125H18.4076C21.7674 28.125 24.5 25.3924 24.5 22.0331V21.8025C24.5 20.6612 23.7789 19.6914 22.7709 19.3067L26.3484 17.0297L28.0151 16.4745C27.2962 20.3704 26.7073 23.8241 26.2263 26.9724C26.2055 27.0641 26.1487 27.3066 26.2623 27.5844C26.5413 28.2656 27.3367 28.2606 28.4369 28.197V32.922C28.2766 33.0435 28.1664 33.1031 28.1669 33.1031C27.7439 33.3231 27.4801 33.3816 27.1151 33.4631C26.921 33.5059 26.714 33.5526 26.4665 33.6251C26.0531 33.7478 25.6132 34.2107 25.6256 34.7535C25.6407 35.1799 25.9271 35.5337 26.5025 35.8172C26.9851 36.0405 27.3597 35.9854 27.7231 35.9325C27.9177 35.9038 28.1377 35.8712 28.4302 35.8695C28.7598 35.8763 29.0287 35.9072 29.2604 35.9432C29.4472 35.9713 29.6367 36.0006 29.8359 36.0006C30.0333 36.0006 30.2409 35.9702 30.4648 35.8853C30.6459 35.8999 30.8073 35.9218 30.9479 35.9432C31.1347 35.9713 31.3237 36.0006 31.5234 36.0006C31.7709 36.0006 32.0352 35.9561 32.3289 35.8104C32.645 35.6524 32.8638 35.4437 32.9774 35.1911C33.1383 34.8368 33.0596 34.5223 32.996 34.2686C32.9797 34.2017 32.9611 34.1286 32.9454 34.0481C32.9156 33.8901 32.9184 33.8147 32.9274 33.5649C32.9307 33.466 32.9352 33.3478 32.9381 33.1988C32.9493 32.598 32.9516 30.5848 32.9443 28.287C33.0877 28.2966 33.2283 28.305 33.3594 28.305C33.9382 28.305 34.4011 28.1874 34.7696 27.7509C35.2359 27.1958 35.1909 26.5056 35.1763 26.2783C35.0486 24.3197 34.6503 22.4044 34.2656 20.5532L32.9937 14.4219C32.7558 13.2969 32.5038 12.1382 32.0729 11.0436L32.2029 10.6543C32.3244 10.2915 32.2951 9.88763 32.1241 9.54507C31.9503 9.19801 31.6522 8.93982 31.2849 8.81719C31.1926 8.78626 31.0987 8.76545 31.0042 8.75363C30.6926 8.3177 30.3804 7.87557 30.0671 7.41263C29.9259 7.20451 29.7971 7.00145 29.6609 6.79557C29.8792 6.47382 30.2173 5.92369 30.4788 5.25882C31.5976 6.07163 32.9066 6.21001 33.6164 6.21001C33.9123 6.21001 34.1036 6.18807 34.1323 6.18413C34.3786 6.15376 34.5755 5.96588 34.6171 5.72176C34.6593 5.47707 34.5361 5.23407 34.3145 5.12326C33.4078 4.66876 32.9094 4.30538 32.3638 1.57726C32.1787 0.651382 31.7861 0.0950693 31.1966 -0.0748057C30.4934 -0.277306 29.7661 0.163694 29.1969 0.677819C28.9235 0.516382 28.6181 0.373507 28.2789 0.250319C27.3311 -0.0939307 26.5132 -0.0568057 25.8449 0.361694C24.6884 1.08563 24.5096 2.68651 24.5023 2.75401C24.4916 2.85638 24.5174 2.95032 24.5568 3.03807C24.4978 3.61969 24.4972 4.22663 24.5017 4.82232C24.5045 5.21663 24.5079 5.60363 24.4899 5.96194C24.4814 6.12844 24.5478 6.28932 24.6693 6.40238C24.7796 6.50476 24.9382 6.56663 25.0743 6.55201C25.0929 6.56607 25.1227 6.59476 25.1508 6.63694C25.2009 6.71344 25.2402 6.79669 25.2802 6.87938C25.3454 7.01326 25.4129 7.14657 25.4962 7.26807C25.85 7.79007 26.4598 8.07751 27.0892 8.07751C27.2602 8.07751 27.4318 8.05219 27.6005 8.00888C27.7141 8.43413 27.7591 8.85432 27.7248 9.26213C27.677 9.83195 27.4959 10.269 27.3198 10.692C27.0841 11.2584 26.8406 11.844 26.9885 12.6068C27.0689 13.0241 27.2647 13.4156 27.5504 13.7829L24.7779 14.8236C24.4578 14.9434 24.2069 15.1819 24.0646 15.4834L18.1533 19.125H15.1822L18.8407 9.19463C18.9357 8.93588 18.8294 8.64563 18.5893 8.51007C18.3491 8.37451 18.0459 8.43357 17.8737 8.64845C15.8802 11.1414 11.7408 10.1531 11.6986 10.1413C11.4849 10.089 11.261 10.1644 11.1237 10.3359C9.15556 12.7969 6.23787 11.8806 6.11637 11.8418C5.96281 11.7894 5.79575 11.808 5.65625 11.8884C5.51675 11.97 5.41831 12.1067 5.38681 12.2648C4.86481 14.8736 2.19237 17.5753 2.16537 17.6023C2.05006 17.7176 1.99044 17.8774 2.00225 18.0399C2.01406 18.2025 2.0945 18.3521 2.225 18.45L3.50244 19.4079C2.6165 19.845 2 20.7489 2 21.8025ZM7.0625 23.0625C6.752 23.0625 6.5 22.8105 6.5 22.5C6.5 22.1895 6.752 21.9375 7.0625 21.9375C7.373 21.9375 7.625 22.1895 7.625 22.5C7.625 22.8105 7.373 23.0625 7.0625 23.0625ZM8.37819 23.5434L12.8613 28.2499C12.8619 28.2504 12.8619 28.2504 12.8619 28.251C12.8619 28.251 12.8624 28.251 12.8624 28.2516L13.9559 29.3996C13.9571 29.4008 13.9576 29.4024 13.9587 29.4036C13.9593 29.4041 13.9604 29.4047 13.9616 29.4053L17.3321 32.9439C17.2049 33.0356 17.0936 33.1459 16.9963 33.2685L13.6387 29.7433C13.6381 29.7428 13.6381 29.7422 13.6376 29.7416C13.6376 29.7416 13.637 29.7411 13.6364 29.7411L12.5435 28.5936C12.5424 28.5924 12.5418 28.5908 12.5407 28.5891C12.5401 28.5885 12.539 28.5879 12.5379 28.5874L11.1884 27.1704C11.1851 27.1671 11.1823 27.1637 11.1794 27.1609L8.04294 23.868C8.17006 23.7769 8.28087 23.6661 8.37819 23.5434ZM8.1875 34.875C7.877 34.875 7.625 34.623 7.625 34.3125C7.625 34.002 7.877 33.75 8.1875 33.75C8.498 33.75 8.75 34.002 8.75 34.3125C8.75 34.623 8.498 34.875 8.1875 34.875ZM9.50319 33.2685C9.40587 33.1459 9.29506 33.0356 9.16794 32.9445L12.152 29.8131L12.4732 30.15L9.50319 33.2685ZM18.3125 34.875C18.002 34.875 17.75 34.623 17.75 34.3125C17.75 34.002 18.002 33.75 18.3125 33.75C18.623 33.75 18.875 34.002 18.875 34.3125C18.875 34.623 18.623 34.875 18.3125 34.875ZM14.0268 27.8438L18.1218 23.544C18.2191 23.6666 18.3299 23.7769 18.4571 23.868L15.3166 27.1637C15.3161 27.1643 15.3155 27.1648 15.3149 27.1654L14.348 28.1801L14.0268 27.8438ZM19.4375 23.0625C19.127 23.0625 18.875 22.8105 18.875 22.5C18.875 22.1895 19.127 21.9375 19.4375 21.9375C19.748 21.9375 20 22.1895 20 22.5C20 22.8105 19.748 23.0625 19.4375 23.0625ZM30.1267 28.1222L30.1306 29.2579C30.1317 29.5684 30.3832 29.8187 30.6931 29.8187H30.6948C31.0059 29.8176 31.2567 29.565 31.2556 29.2545L31.2523 28.1481C31.4519 28.1593 31.6398 28.1728 31.8187 28.188C31.8249 30.0375 31.8249 31.7104 31.8187 32.625H31.2556C31.2579 32.2358 31.2584 31.7115 31.2584 31.0922C31.2584 30.7811 31.007 30.5297 30.6959 30.5297C30.3849 30.5297 30.1334 30.7811 30.1334 31.0922C30.1334 31.7126 30.1323 32.238 30.1306 32.625H29.5625V28.1368C29.7442 28.1295 29.9315 28.1239 30.1267 28.1222ZM30.1391 34.8024C29.9394 34.902 29.8083 34.8868 29.4292 34.83C29.1704 34.7912 28.8464 34.749 28.4229 34.7439C28.0511 34.7462 27.7782 34.7867 27.5583 34.8193C27.2383 34.866 27.1466 34.8756 26.9744 34.7957C26.8957 34.7569 26.8423 34.7243 26.8046 34.6984C27.0144 34.6376 27.1921 34.5977 27.3592 34.5611C27.7563 34.4728 28.1321 34.3884 28.685 34.1016C28.712 34.0875 28.9224 33.9711 29.1991 33.7506H30.1087C30.107 33.9154 30.1143 34.0594 30.152 34.2574C30.1717 34.362 30.1947 34.4559 30.2167 34.542C30.2347 34.6146 30.2594 34.713 30.2718 34.713C30.2718 34.713 30.242 34.7507 30.1391 34.8024ZM31.8266 34.8019C31.6809 34.875 31.5706 34.8863 31.3732 34.8649C31.3963 34.6427 31.3512 34.4402 31.3079 34.2681C31.2916 34.2011 31.2731 34.128 31.2573 34.0476C31.2371 33.9379 31.2326 33.8653 31.2342 33.75H31.7967C31.7951 33.9148 31.8024 34.0588 31.8401 34.2568C31.8598 34.3615 31.8828 34.4554 31.9048 34.5415C31.9228 34.614 31.9475 34.7124 31.9599 34.7124C31.9593 34.713 31.9295 34.7507 31.8266 34.8019ZM31.8969 14.6773L33.1625 20.7816C33.5399 22.5951 33.9297 24.4704 34.0524 26.3503C34.0653 26.5506 34.0642 26.8391 33.9084 27.0253C33.7436 27.2205 33.3796 27.2048 32.4577 27.1164C31.9874 27.0714 31.4019 27.0146 30.6987 27C29.8871 26.9859 29.1665 27.027 28.5883 27.0613C28.1433 27.0883 27.6089 27.1198 27.3463 27.0872C27.8525 23.7819 28.4718 20.1701 29.2346 16.0678L29.7419 15.8985C30.2431 15.7314 30.6419 15.3326 30.8084 14.832L31.4733 12.8368C31.6336 13.4409 31.7669 14.0603 31.8969 14.6773ZM28.2676 12.8402C28.1861 12.6934 28.1231 12.5449 28.0938 12.393C28.0477 12.1551 28.0764 11.9396 28.1411 11.7135C28.3076 11.6888 28.5146 11.6477 28.739 11.5824L28.2676 12.8402ZM29.4483 9.69132L29.3263 10.0164C29.1181 10.2133 28.8656 10.3511 28.6186 10.4411C28.7227 10.1256 28.8121 9.77007 28.8464 9.35551C28.8993 8.72213 28.8104 8.07469 28.5984 7.42613C28.6248 7.39969 28.6512 7.37269 28.6766 7.34457C28.8296 7.57688 28.9758 7.80638 29.135 8.04095C29.3819 8.40545 29.6272 8.74857 29.873 9.0962C29.6846 9.25595 29.5361 9.45732 29.4483 9.69132ZM30.8855 1.00632C30.9918 1.03726 31.1544 1.26226 31.2612 1.79776C31.5701 3.34126 31.8958 4.27838 32.3289 4.91626C31.8147 4.77563 31.268 4.51182 30.8062 4.06519C30.8804 3.57357 30.8776 3.06282 30.7353 2.56501C30.6104 2.12626 30.3888 1.73869 30.0828 1.39669C30.4839 1.06482 30.7713 0.971444 30.8855 1.00632ZM26.4457 1.31344C26.804 1.09069 27.2917 1.08901 27.8947 1.30726C28.8656 1.66051 29.4562 2.18588 29.6531 2.87044C29.8359 3.50832 29.6812 4.21763 29.4371 4.83357C29.4033 4.39819 29.3127 3.93751 29.1491 3.43576C28.9111 2.70451 28.3981 2.32088 27.8412 2.45926C27.7169 2.49019 27.6151 2.54419 27.5341 2.59594C27.5156 2.56782 27.4964 2.53744 27.4762 2.50763C27.2759 2.20107 26.7691 1.72238 26.2134 1.50919C26.2837 1.43494 26.3596 1.36688 26.4457 1.31344ZM26.4271 6.63638C26.3737 6.55763 26.3332 6.47101 26.2916 6.38551C26.2303 6.25951 26.1667 6.13519 26.0896 6.01763C25.9608 5.82301 25.8022 5.67169 25.6278 5.57044C25.6312 5.32463 25.6295 5.07151 25.6278 4.81444C25.6222 4.03482 25.616 3.22988 25.7741 2.53576C25.9861 2.60326 26.3832 2.89013 26.5588 3.15901C26.7134 3.39751 26.9969 3.84469 27.542 3.80307C27.7456 3.78901 27.9048 3.70182 28.0151 3.62926C28.037 3.67032 28.0606 3.72263 28.0809 3.78507C28.3098 4.48651 28.3829 5.07769 28.3031 5.59182C28.2142 6.16276 27.911 6.64594 27.5116 6.85182C27.1764 7.02451 26.6606 6.98063 26.4271 6.63638ZM25.1733 15.8777L28.3666 14.6796C28.6715 14.5659 28.9123 14.3258 29.027 14.0209L30.5019 10.0868C30.5311 10.0091 30.5868 9.94669 30.6785 9.90113C30.7246 9.87807 30.7747 9.86626 30.8247 9.86626C30.8596 9.86626 30.8939 9.87188 30.9283 9.88257C31.0109 9.9107 31.0784 9.96863 31.1173 10.0468C31.1555 10.1239 31.1623 10.215 31.1353 10.296L29.7419 14.4759C29.6857 14.643 29.5529 14.7758 29.3859 14.832L25.2864 16.1983C25.2222 16.2197 25.1576 16.2023 25.112 16.1573C25.0546 16.0999 25.0586 16.0346 25.0664 16.0009C25.0743 15.9671 25.0974 15.9053 25.1733 15.8777ZM24.158 16.7479C24.2058 16.8199 24.2553 16.8908 24.3177 16.9532C24.3251 16.9605 24.3346 16.9661 24.3419 16.9734L20.9608 19.125H20.2981L24.158 16.7479ZM3.125 21.8025C3.125 20.9464 3.82138 20.25 4.6775 20.25H8.1875C8.49856 20.25 8.75 19.9986 8.75 19.6875C8.75 19.3764 8.49856 19.125 8.1875 19.125H4.99981L3.40119 17.9258C4.17519 17.0589 5.74513 15.1194 6.35038 13.0461C7.46131 13.2424 9.91775 13.3757 11.7751 11.3063C12.665 11.4711 15.0652 11.772 17.0789 10.7213L13.9829 19.125H10.7188C10.4077 19.125 10.1562 19.3764 10.1562 19.6875C10.1562 19.9986 10.4077 20.25 10.7188 20.25H21.8225C22.6781 20.25 23.375 20.9464 23.375 21.8025V22.0331C23.375 24.7719 21.1469 27 18.4081 27H17.0261L19.7345 24.1577C20.5237 24.0159 21.125 23.3286 21.125 22.5C21.125 21.5696 20.3679 20.8125 19.4375 20.8125C18.5825 20.8125 17.8816 21.4538 17.7725 22.2795L13.25 27.0281L8.7275 22.2801C8.61894 21.4543 7.9175 20.8125 7.0625 20.8125C6.13212 20.8125 5.375 21.5696 5.375 22.5C5.375 23.3286 5.97631 24.0159 6.76494 24.1577L9.47281 27H8.09188C5.35306 27 3.125 24.7719 3.125 22.0331V21.8025Z" fill="#1A3F34"/>
</g>
<defs>
<clipPath id="clip0_710_1340">
<rect width="36" height="36" fill="white" transform="translate(0.875)"/>
</clipPath>
</defs>
</svg>
