<svg width="33" height="63" viewBox="0 0 33 63" fill="none" xmlns="http://www.w3.org/2000/svg">
<g clipPath="url(#clip0_710_1410)">
<path d="M2.76519 25.2162C2.80829 24.9814 2.80444 24.7727 2.77058 24.5556C2.52739 24.5364 2.28727 24.5211 2.0564 24.6484C2.10796 24.7328 2.16337 24.8042 2.19877 24.8847C2.24879 25.0006 2.33499 25.072 2.44735 25.1134C2.5497 25.1517 2.65514 25.1809 2.76519 25.2154V25.2162Z" fill="#42221F"/>
<path d="M6.94876 24.3546C6.82485 24.2763 6.16993 24.5932 6.05372 24.5034C5.73204 24.2548 5.36879 24.1774 4.97707 24.261C4.62383 24.3362 4.27597 24.4328 3.92658 24.5241C3.68724 24.5863 3.44789 24.6339 3.19855 24.617C3.14314 24.6131 3.1162 24.5978 3.10004 24.5433C3.06541 24.4313 3.00384 24.3346 2.90995 24.2617C2.8707 24.2318 2.82068 24.195 2.77758 24.2341C2.74911 24.2602 2.73679 24.3155 2.73679 24.3577C2.73679 24.4252 2.75065 24.4935 2.76065 24.5602C2.79451 24.775 2.80067 24.9906 2.74218 25.2009C2.69062 25.3858 2.70832 25.5584 2.79143 25.728C2.80221 25.7502 2.80913 25.7755 2.82376 25.8131C2.71217 25.8131 2.60827 25.8945 2.50592 25.7993C2.48976 25.784 2.47359 25.7648 2.4659 25.7448C2.37663 25.5193 2.29274 25.2914 2.19808 25.0681C2.15652 24.9707 2.0965 24.8809 2.04032 24.7912C1.95335 24.6523 1.8687 24.5111 1.77173 24.3799C1.69939 24.2825 1.60319 24.2034 1.48775 24.1574C1.45697 24.1451 1.42157 24.1375 1.38847 24.139C1.30382 24.1428 1.26457 24.1942 1.2815 24.2771C1.2892 24.3139 1.30382 24.35 1.31921 24.3853C1.43234 24.6431 1.55547 24.8963 1.65629 25.1587C1.73479 25.362 1.78635 25.576 1.83637 25.7924C1.7825 25.7257 1.73094 25.6581 1.67476 25.5937C1.46004 25.3466 1.22763 25.1172 0.96289 24.9239C0.852838 24.8433 0.721238 24.7904 0.596565 24.7313C0.563473 24.716 0.515758 24.719 0.478048 24.7275C0.414172 24.7413 0.38031 24.8073 0.406476 24.874C0.424947 24.92 0.458039 24.9615 0.491131 24.9991C0.732782 25.2714 0.991364 25.5308 1.16452 25.8561C1.17376 25.873 1.18222 25.8899 1.19069 25.9075C1.19223 25.9106 1.19069 25.9159 1.19069 25.9106C1.02215 25.8837 0.852838 25.85 0.682759 25.83C0.501136 25.8093 0.319513 25.8177 0.146355 25.8868C0.117111 25.8983 0.0832488 25.9106 0.0632394 25.9328C0.0363038 25.9643 0.00244187 26.0065 0.00475064 26.0418C0.00705941 26.0725 0.050926 26.1131 0.0855575 26.1262C0.164825 26.1553 0.248711 26.1799 0.332596 26.1906C0.695072 26.2367 1.01984 26.3909 1.34922 26.5313C1.41618 26.5597 1.48005 26.5957 1.54855 26.618C1.62858 26.6448 1.7117 26.6671 1.79482 26.6801C2.01107 26.7154 2.22963 26.74 2.44589 26.7791C2.73525 26.832 3.02308 26.895 3.31091 26.954C3.36555 26.9655 3.41865 26.9801 3.47252 26.9932C3.5718 27.0162 3.66107 26.9932 3.7465 26.9379C4.05895 26.7361 4.38218 26.5535 4.72695 26.4116C4.99015 26.3034 5.26259 26.2221 5.54426 26.1737C5.71203 26.1446 6.51779 25.7172 6.6794 25.7441M5.59736 24.5134C5.42959 24.5203 5.28952 24.5541 5.16254 24.6661C5.37187 24.6623 5.56965 24.6692 5.71587 24.8234C5.86441 24.9799 5.86517 25.1763 5.84132 25.3804C5.45114 25.2722 5.09328 25.3704 4.75389 25.5408C4.45683 25.6896 4.17285 25.8645 3.88348 26.0287C3.82422 26.0625 3.7642 26.0955 3.76573 26.1768C3.76573 26.1806 3.75727 26.1845 3.74265 26.1968C3.75958 26.0809 3.68339 26.0172 3.62875 25.9436C3.56949 25.863 3.51023 25.7817 3.44712 25.7049C3.41403 25.6651 3.41942 25.639 3.46021 25.6129C3.56872 25.5431 3.62952 25.4364 3.68493 25.3244C3.76035 25.1694 3.83885 25.016 3.92042 24.8633C3.94428 24.8188 3.98045 24.7804 4.01046 24.739C4.00662 24.7344 4.00354 24.729 3.99969 24.7244C3.92735 24.7635 3.85578 24.8027 3.78267 24.841C3.76497 24.8502 3.74188 24.8656 3.72649 24.861C3.54871 24.8096 3.37094 24.7559 3.19393 24.6998C3.17161 24.6929 3.15468 24.6722 3.12851 24.653C3.14852 24.6454 3.15237 24.6423 3.15622 24.6423C3.18162 24.6461 3.20624 24.6507 3.23164 24.6553C3.38864 24.6845 3.54717 24.6968 3.70109 24.6461C3.99122 24.5518 4.28906 24.4981 4.59227 24.4712C4.81315 24.4513 5.03402 24.4282 5.25566 24.4175C5.37033 24.4114 5.48115 24.4459 5.59967 24.5134H5.59736ZM3.38171 25.606C3.31399 25.4917 3.2655 25.3965 3.20393 25.3106C3.16546 25.2569 3.1593 25.2055 3.17007 25.141C3.33092 25.141 3.45559 25.2208 3.57334 25.3136C3.58257 25.3213 3.58642 25.3528 3.57872 25.3628C3.5187 25.4402 3.45482 25.5162 3.38171 25.606ZM2.64059 25.9083C2.71294 25.8968 2.76681 25.886 2.82145 25.8799C2.83376 25.8783 2.85531 25.8891 2.85993 25.8998C2.89764 25.9812 2.93227 26.0648 2.96767 26.1484L2.64059 25.9083Z" fill="#8E4D3F"/>
<path d="M5.84194 25.3804C5.45176 25.2722 5.09313 25.3696 4.75374 25.5407C4.45745 25.6904 4.17347 25.8653 3.88411 26.0287C3.82408 26.0617 3.76482 26.0955 3.76559 26.1768C3.76559 26.1814 3.75789 26.1845 3.7425 26.1967C3.75943 26.0809 3.68248 26.0172 3.6286 25.9435C3.56858 25.863 3.51009 25.7817 3.44698 25.7049C3.41389 25.665 3.35848 25.6121 3.3985 25.586C3.46006 25.5116 3.47238 25.4909 3.56473 25.3827C3.66708 25.2745 3.24535 25.1494 3.22919 25.1448C3.22765 25.1441 3.22534 25.1441 3.2238 25.1433H3.16993C3.1707 25.1356 3.17147 25.1272 3.1707 25.1188C3.17301 25.0689 3.16916 25.0006 3.16069 24.9308C3.14299 24.7581 3.10913 24.5686 3.10913 24.5686L3.15454 24.6108C3.15454 24.6108 3.1707 24.6277 3.1884 24.6484C3.20148 24.65 3.21533 24.653 3.22996 24.6553C3.38695 24.6845 3.54472 24.6968 3.69941 24.6469C3.98877 24.5525 4.28737 24.498 4.58982 24.4712C4.81069 24.452 5.03157 24.4282 5.25321 24.4175C5.36711 24.4114 5.4787 24.4451 5.59644 24.5134C5.42867 24.5203 5.28938 24.5533 5.1624 24.6653C5.37095 24.6615 5.56951 24.6691 5.71496 24.8226C5.86349 24.9791 5.86426 25.1755 5.8404 25.3796L5.84194 25.3804Z" fill="#42221F"/>
<path d="M3.38238 25.6075C3.45626 25.5177 3.51937 25.4425 3.5794 25.3643C3.58709 25.3543 3.58325 25.3229 3.57401 25.3152C3.45626 25.2223 3.33159 25.1433 3.17075 25.1425C3.15997 25.2062 3.16613 25.2576 3.20461 25.3121C3.26541 25.398 3.31466 25.4924 3.38238 25.6075Z" fill="white"/>
<path d="M2.64136 25.9098L2.96843 26.1499C2.93226 26.0663 2.8984 25.9834 2.86069 25.9014C2.85607 25.8906 2.83452 25.8799 2.82221 25.8814C2.76757 25.8875 2.7137 25.8975 2.64136 25.9098Z" fill="white"/>
<path d="M3.00993 26.15L3.12844 26.41C3.12844 26.41 2.60666 26.107 2.46583 25.7448C2.46583 25.7448 2.46121 25.8477 2.67823 25.8477C2.73518 25.8477 2.82446 25.8139 2.82446 25.8139L3.0107 26.15H3.00993Z" fill="#42221F"/>
<path d="M2.03172 26.0878L2.15024 26.3479C2.15024 26.3479 1.66232 25.7978 1.52148 25.4364C1.52148 25.4364 1.58613 25.5139 1.73851 25.6712C1.77622 25.7095 1.83625 25.7932 1.83625 25.7932L2.03172 26.0886V26.0878Z" fill="#42221F"/>
<path d="M1.19908 25.9159C1.19908 25.9159 1.33684 26.1921 1.39302 26.275C1.4492 26.3579 1.34376 26.2735 1.29605 26.2205C1.24834 26.1676 1.16137 26.031 1.08749 25.9896C1.01361 25.9482 0.893555 25.8615 0.893555 25.8615L1.19908 25.9167V25.9159Z" fill="#42221F"/>
<path d="M0.651862 25.1917L0.333252 24.8579C0.333252 24.8579 0.427911 24.6945 0.548737 24.7819C0.669563 24.8694 0.794236 25.0727 0.794236 25.0727L0.651862 25.1924V25.1917Z" fill="#E4E1E1"/>
<path d="M1.43681 24.65L1.19824 24.2548C1.19824 24.2548 1.32676 24.116 1.42527 24.2272C1.52378 24.3385 1.60151 24.5641 1.60151 24.5641L1.43681 24.65Z" fill="#E4E1E1"/>
<path d="M2.77739 24.6684L2.71582 24.2871C2.71582 24.2871 2.85896 24.2188 2.90052 24.3362C2.94208 24.4536 2.93207 24.6531 2.93207 24.6531L2.77739 24.6684Z" fill="#E4E1E1"/>
<path d="M0.366383 26.1853L0.000827715 26.1216C0.000827715 26.1216 -0.0161032 25.9712 0.103183 25.9697C0.22247 25.9681 0.401014 26.0402 0.401014 26.0402L0.366383 26.1845V26.1853Z" fill="#E4E1E1"/>
<path d="M6.54848 24.3416C11.0206 23.793 14.199 22.2101 14.199 22.2101C14.199 22.2101 16.5639 14.3704 17.3551 13.0637C17.6098 12.6433 18.2078 12.6126 18.5017 13.007L20.0579 15.0947C20.1818 15.2611 20.2249 15.4721 20.1733 15.6732C19.8524 16.9199 18.4594 23.0104 16.8556 24.66C15.3788 26.1791 9.41751 27.4382 7.00177 27.6576C6.59235 26.4615 6.49307 24.7313 6.54771 24.3408L6.54848 24.3416Z" fill="#1A4032"/>
<path d="M23.7704 13.4289C23.5672 14.7609 23.4333 16.0967 23.2863 17.4355C23.2524 17.7508 23.2186 18.0685 23.2047 18.3861C23.1847 18.8864 23.1232 20.8375 23.1031 21.2165C22.4882 19.2224 22.292 17.345 22.2374 16.791C22.1042 15.4161 21.8256 13.145 21.6702 13.1427C21.6771 13.1381 21.8079 13.0975 21.9957 13.0461C21.9957 13.0461 21.9934 13.0484 21.9957 13.0507C22.0157 13.1972 22.1312 13.5417 22.6668 13.0415C22.6783 13.0323 22.6914 13.0192 22.7053 13.0031C22.7006 13.0054 22.696 13.01 22.6914 13.0146C22.7391 12.9586 22.7861 12.9041 22.8361 12.8481C22.9107 12.7668 22.9877 12.6862 23.0647 12.6095C22.9969 12.6862 22.9223 12.7699 22.8546 12.8435C23.0531 12.8098 23.2301 12.7936 23.3402 12.8144C23.2812 12.7105 23.2224 12.6077 23.1639 12.5059C23.1709 12.4967 23.1801 12.4883 23.1886 12.4791C23.1955 12.4906 23.2001 12.499 23.207 12.5082C23.2047 12.5105 23.2047 12.5151 23.2047 12.5197C23.3109 12.6908 23.3787 12.7967 23.4333 12.8895C23.528 13.0384 23.5941 13.1466 23.7704 13.4305V13.4289Z" fill="#C5CED9"/>
<path d="M21.9935 13.0323C21.9889 12.987 21.9935 12.974 21.9935 13.0323V13.0323Z" fill="#C5CED9"/>
<path d="M22.5312 7.96228C22.8798 7.89707 24.516 7.83492 24.5221 7.84259C24.6761 8.17942 23.8434 8.75562 23.33 8.70652C22.8167 8.65741 22.3465 7.99681 22.5312 7.96228Z" fill="white"/>
<path d="M19.8233 33.0445C19.8179 33.1235 19.851 33.3483 19.7956 33.3851C19.7401 33.3687 19.685 33.3526 19.6301 33.3368L19.1606 33.58C19.6247 33.656 19.537 33.3491 19.7124 33.5071C20.0511 38.5426 20.6059 53.5577 21.2031 58.574C21.1539 58.775 21.6533 59.0228 21.8103 59.0612C21.8842 59.0796 22.0335 59.0474 22.1413 59.0612C22.3868 54.4584 22.2929 39.85 22.8039 35.2603C22.7346 35.1291 20.0095 35.1329 19.8233 34.3841C19.7817 34.2161 19.8825 33.9966 19.8787 33.824C19.8648 33.28 19.8864 32.7368 19.8787 32.1928H19.7686C19.8487 32.4422 19.8425 32.7867 19.824 33.0452L19.8233 33.0445Z" fill="#111112"/>
<path d="M25.5911 34.7969C25.438 35.3063 25.6712 35.4168 25.6742 35.4544C25.705 35.8657 25.6442 36.5385 25.6742 36.9153C25.6758 36.936 25.7828 36.992 25.7843 37.0127C25.8135 37.3871 25.7266 37.5214 25.7289 37.5482C25.7304 37.569 25.8374 37.625 25.8389 37.6457C25.8713 38.0508 25.7812 38.2004 25.7835 38.2303C25.7835 38.2388 25.8936 38.3677 25.8936 38.3761C25.9197 38.6968 25.8335 48.8498 25.8382 48.9081C25.8412 48.9457 26.5231 56.8484 26.9148 58.1842C27.2093 58.2006 27.5038 58.2167 27.7983 58.2325C28.1377 53.8477 28.0307 39.4549 28.1569 35.0646C28.0731 34.9664 26.4631 35.1935 25.5904 34.7969H25.5911Z" fill="#111112"/>
<path d="M26.9989 62.3228C26.4217 62.4716 25.8068 62.2852 25.2327 62.2253C25.7991 62.7194 29.8556 62.5399 29.814 61.7381C29.8033 61.5241 29.5993 61.4627 29.5932 61.4458C29.2699 62.2223 27.3437 62.0972 27.0812 62.1762C27.0289 62.1923 27.2128 62.3381 26.9981 62.322L26.9989 62.3228Z" fill="#1B2023"/>
<path d="M29.3177 60.1315C29.4039 59.8545 29.4185 59.5039 29.2622 59.2553C29.2322 59.207 29.2199 59.1302 29.1522 59.1095C25.9746 58.0822 28.9052 59.5622 29.3177 60.1323V60.1315Z" fill="#2C3434"/>
<path d="M25.2325 62.2253C25.8066 62.2851 26.4223 62.4716 26.9987 62.3227C27.0287 62.002 25.8443 62.2345 25.1217 61.7381C25.0924 61.9637 25.0086 62.0297 25.2317 62.2253H25.2325Z" fill="#111112"/>
<path d="M25.5081 61.0085C25.4273 61.1512 25.305 61.2356 25.2318 61.3982C25.4566 61.3844 25.2249 61.5102 25.2318 61.5202C25.3527 61.6875 27.2351 61.9867 27.2743 61.7634C26.7248 61.4688 26.0699 61.3529 25.6736 60.8627C25.6682 60.8719 25.5805 60.8803 25.5081 61.0085Z" fill="#2C3434"/>
<path d="M20.7612 58.7198C20.6081 58.8556 20.5981 59.0359 20.5681 59.0604C19.456 59.9658 18.7365 59.9466 17.7252 60.4238C18.3547 60.6716 19.1105 60.3126 19.74 60.3264C20.6473 60.3463 18.1539 61.1343 17.9461 60.911C17.7398 61.0422 17.235 61.2356 17.118 60.9594C17.1057 60.9294 17.1257 60.8611 17.118 60.8136C16.8802 61.0115 16.7594 61.0583 16.6208 61.3491C17.1711 61.7673 18.7742 61.6545 19.6015 61.6414C20.9629 61.6192 22.3227 61.5248 23.6587 61.3008C23.7049 61.2386 23.728 61.1796 23.7419 61.1059C23.7472 61.0752 23.7419 61.0407 23.7419 61.0085C23.7419 60.9594 23.6711 60.5704 23.6318 60.0348C22.7891 60.0425 22.4328 60.2489 21.7001 59.8399C21.253 59.5906 20.7566 59.1824 20.8721 58.6714C20.8482 58.6852 20.7674 58.7152 20.762 58.7198H20.7612Z" fill="#111112"/>
<path d="M19.6022 61.6414C19.5196 61.755 19.4367 61.8685 19.3536 61.9821C18.6379 61.9437 16.9071 62.035 16.5107 61.6414C16.5631 62.0611 17.7282 62.0558 18.1392 62.0795C20.0586 62.19 21.911 61.9315 23.7972 61.6898C24.0104 61.4565 24.0589 61.2609 23.7418 61.1051C23.728 61.1788 23.7049 61.2379 23.6587 61.3C22.3227 61.5241 20.9628 61.6192 19.6014 61.6407L19.6022 61.6414Z" fill="#111112"/>
<path d="M16.5108 61.6414C16.9072 62.035 18.638 61.9437 19.3537 61.9821C19.4363 61.8685 19.5192 61.755 19.6023 61.6414C18.7742 61.6545 17.1719 61.7673 16.6216 61.3491C16.6147 61.3637 16.4831 61.4159 16.5116 61.6414H16.5108Z" fill="#2C3434"/>
<path d="M17.7253 60.4238C17.3836 60.5849 17.3967 60.5811 17.1181 60.8136C17.1258 60.8619 17.1058 60.9302 17.1181 60.9594L17.5322 60.6187C17.6391 60.9279 18.3995 60.6225 17.9462 60.911C18.154 61.1343 20.6475 60.3463 19.7401 60.3264C19.1106 60.3126 18.3549 60.6716 17.7253 60.4238Z" fill="#2C3434"/>
<path d="M20.8714 58.6714C20.7552 59.1824 21.2523 59.5906 21.6994 59.8399C21.7364 59.5801 21.7731 59.3205 21.8095 59.0612C21.6525 59.0228 21.153 58.7757 21.2023 58.574C20.8821 58.5341 20.886 58.663 20.8714 58.6714Z" fill="#2C3434"/>
<path d="M22.1412 59.0604C22.0334 59.0466 21.8841 59.0788 21.8102 59.0604C21.7733 59.3202 21.7366 59.5798 21.7002 59.8392C22.4328 60.2473 22.7899 60.041 23.6319 60.034C23.6296 60.0018 23.6342 59.9688 23.6319 59.9366C23.6165 59.6949 23.6434 59.4486 23.6319 59.2062L23.5218 59.1087C23.0331 59.088 22.6429 59.1249 22.1419 59.0604H22.1412Z" fill="#111112"/>
<path d="M17.1179 60.9593C17.2349 61.2348 17.7397 61.0422 17.946 60.911C18.3993 60.6225 17.6389 60.9279 17.532 60.6187L17.1179 60.9593Z" fill="#B8BAB8"/>
<path d="M31.591 24.696C31.2232 25.8385 30.1981 29.1576 30.1981 29.1576C30.1981 29.1576 29.9333 25.3674 29.9049 24.7773C29.8564 23.7523 30.0118 23.6579 29.9649 22.6329C29.9426 23.3165 29.951 24.0017 29.8979 24.683C29.8818 24.7098 29.8202 24.6906 29.7902 24.696C29.7702 22.3966 29.941 20.0948 29.9518 17.7969C29.9526 17.5966 29.8125 14.7317 29.9649 14.7555C29.8756 16.3667 30.4636 17.9128 30.7576 19.4849C31.08 21.2119 31.2363 22.9735 31.591 24.696Z" fill="#19222A"/>
<path d="M23.8295 34.1332C22.3465 34.1309 19.7038 34.1332 18.9865 33.28C18.988 32.9209 19.2343 23.4799 19.3682 23.2873C19.4082 21.67 17.6105 13.1466 17.739 12.7944C21.0529 12.2382 21.1113 11.4579 22.3188 11.2292C22.3365 11.2292 22.0033 15.2473 22.011 15.268C22.0372 15.3417 21.3692 17.9887 21.4384 18.2365C21.9825 20.183 22.9453 21.9953 23.6687 23.8766C23.711 24.0469 23.7849 24.3293 23.8303 24.3055C23.781 24.452 23.7603 24.5571 23.6956 24.7067C23.6918 24.716 23.8318 34.114 23.8295 34.1324V34.1332Z" fill="#1A4032"/>
<path d="M24.012 23.8919C24.0882 23.6748 24.1828 23.4684 24.2537 23.249C24.5169 22.8807 24.7039 22.3758 24.9255 21.9493C25.1325 21.5518 26.4701 19.1403 26.5917 18.9616C26.3716 19.6521 25.9829 20.3373 25.6512 20.9848C25.415 21.4459 24.3098 23.5183 24.1459 23.7715C24.1236 23.8068 24.0512 23.8674 24.0112 23.8919H24.012Z" fill="#1D353F"/>
<path d="M30.8529 24.6285C30.6366 22.883 30.9553 21.2748 30.632 19.5478C30.338 17.9757 29.8748 16.366 29.964 14.7547C29.8116 14.731 29.9609 17.5959 29.9509 17.7961C29.4946 26.8581 30.6697 31.4279 30.689 33.7273C30.5043 33.7618 23.7411 34.1432 23.7411 34.1432C23.7411 34.1432 23.5141 29.5504 23.5156 27.8364C23.5156 27.8556 23.5441 24.706 23.548 24.6968C23.6126 24.5472 23.9712 24.007 24.012 23.8904C24.052 23.8658 25.415 21.4444 25.6512 20.9833C25.9837 20.3365 26.3716 19.6506 26.5917 18.96C26.5948 18.9554 26.6332 18.9716 26.6456 18.947C26.6671 18.9025 26.6348 18.8258 26.5917 18.96C26.4701 19.1388 25.1325 21.5495 24.9255 21.9477C24.7039 22.3743 24.5169 22.8784 24.2537 23.2474C24.7631 21.6684 25.0741 20.0403 25.4458 18.4245C26.0776 18.4176 26.1484 18.4176 26.7795 18.4115C27.2812 17.1076 27.783 15.8036 28.2848 14.4992C27.9267 14.133 27.5683 13.7668 27.2097 13.4005L28.3117 13.32C27.9444 12.6187 27.577 11.9177 27.2097 11.2169C27.6453 11.4356 30.4435 12.2834 31.6579 12.8512C32.1566 13.0844 32.5914 13.2141 32.773 13.7757C33.2663 15.2964 32.7823 22.5285 32.9162 24.6392C32.292 25.4755 29.9794 30.0138 29.6477 30.0146C29.326 30.0154 30.8968 24.9753 30.8537 24.627L30.8529 24.6285Z" fill="#235243"/>
<path d="M27.2775 20.114C27.3483 20.1048 28.6419 20.0749 28.702 20.114C28.7197 20.1255 28.722 20.1991 28.7151 20.2076C28.6596 20.2789 26.5302 20.2137 27.2775 20.114Z" fill="#1D353F"/>
<path d="M29.199 18.5066H27.2373C27.2373 18.4974 27.2373 18.489 27.2373 18.4797C27.2427 18.3999 27.2334 18.3186 27.2373 18.2388C27.4397 18.2127 29.0712 18.1728 29.159 18.212C29.2352 18.2457 29.1851 18.4452 29.199 18.5066Z" fill="#346553"/>
<path d="M29.1991 18.5066H29.3608C29.3677 18.6547 29.3661 18.7882 29.3338 18.9355H27.2775C27.1513 18.8864 27.2298 18.6163 27.2375 18.5066H29.1991Z" fill="#1A4032"/>
<path d="M27.2367 18.4797C27.2367 18.4889 27.2367 18.4974 27.2367 18.5066C27.229 18.6155 27.1505 18.8864 27.2767 18.9355H29.333C29.3307 18.9447 29.4277 18.9915 29.2661 19.0698H27.2775C26.8834 18.7782 27.2313 18.7498 27.1836 18.5074C27.1866 18.5074 27.1736 18.4705 27.2374 18.4805L27.2367 18.4797Z" fill="#1D353F"/>
<path d="M27.2366 18.2388C27.2327 18.3186 27.2419 18.4 27.2366 18.4797C27.1734 18.4698 27.1858 18.5058 27.1827 18.5066C26.8479 18.5603 26.881 18.4268 27.0619 18.212C27.0942 18.2503 27.1865 18.245 27.2366 18.2388Z" fill="#346553"/>
<path d="M29.3599 18.5066H29.2791C29.2675 18.1284 29.3391 18.0348 29.3599 18.5066Z" fill="#346553"/>
<path d="M26.5918 18.9616C26.6349 18.8273 26.6672 18.9033 26.6457 18.9485C26.6334 18.9739 26.5949 18.9577 26.5918 18.9616Z" fill="#1D353F"/>
<path d="M26.1345 8.05665C26.0252 8.30524 25.9536 8.54232 25.812 8.78017C25.3256 9.59652 23.8219 10.9822 23.0169 11.5937C22.953 11.4955 22.8437 11.385 22.8021 11.2722C22.699 10.9929 22.9884 10.93 23.0169 10.8303C23.0546 10.7021 22.953 10.1896 22.9899 9.95943C23.2477 9.98398 23.541 9.95099 23.7965 9.90572C24.7007 9.7446 25.7404 8.78247 26.0806 7.95C26.1537 7.93772 26.1337 7.98913 26.1345 8.05742V8.05665Z" fill="#19222A"/>
<path d="M23.0176 10.5755C23.0284 10.6415 23.0553 10.7021 23.0176 10.8303C22.9884 10.93 22.6998 10.9929 22.8029 11.2722C22.709 11.3351 22.3234 11.2185 22.4266 11.0313C22.4127 11.0566 22.5358 10.8494 22.5712 10.808C22.6744 10.6852 22.8121 10.5962 22.9714 10.5786C22.9922 10.5763 23.0191 10.5855 23.0176 10.5763V10.5755Z" fill="#E4E1E1"/>
<path d="M26.9411 4.78814C26.6171 4.66845 26.7164 4.82574 26.6725 5.45795C26.5586 4.89556 26.8495 4.77817 26.3231 4.73444C26.2877 4.58559 26.2084 4.41219 26.1084 4.2925C26.1192 3.69174 26.1184 3.07948 25.6112 2.6713C24.9101 2.10737 23.4233 2.05903 22.5875 2.26926C21.5386 2.53319 21.2353 3.15083 21.1361 4.17127C20.9283 2.98204 20.8952 1.82656 21.9826 1.06314C22.6044 0.626575 23.9897 0.328882 24.6969 0.607394C24.9119 0.625297 25.1269 0.643199 25.3419 0.661102C27.5529 1.45444 27.3074 2.87002 26.9411 4.78738V4.78814Z" fill="#14283A"/>
<path d="M22.319 11.1648C21.9935 11.975 22.0789 12.2642 21.9966 13.0668C21.9889 13.142 21.9173 13.1757 21.8888 13.2409C21.9304 14.4271 22.0835 15.6125 22.2382 16.791C22.3105 17.3419 22.3837 17.8774 22.4799 18.4253C22.4922 18.4966 22.6276 18.9439 22.6361 19.0222C22.9231 20.2183 23.0263 21.0577 23.3934 22.2431C23.4888 22.7656 23.5865 23.2958 23.7158 23.8106C22.9916 21.9293 22.0296 20.1171 21.4855 18.1705C21.4163 17.9227 21.3239 17.3603 21.2978 17.2867C21.2901 17.2659 21.2616 17.2736 21.2439 17.2736C21.3917 16.2294 21.4994 15.189 21.5933 14.1386C21.6218 13.8218 21.691 13.5072 21.701 13.1872C21.6803 13.1374 21.3586 13.0476 21.2708 13.0131C21.2231 12.2167 21.5394 12.1515 21.7818 11.5392C21.9609 11.4144 22.14 11.2893 22.319 11.164V11.1648Z" fill="#235243"/>
<path d="M26.8604 10.9507C26.9096 11.2492 26.8535 11.5507 26.8065 11.8484C26.4571 14.052 25.4874 17.9527 25.1103 20.1531C25.0926 19.28 25.0149 18.8864 25.0057 18.4268C24.9887 17.5667 24.7071 15.5335 24.5216 14.6627C24.4508 14.3289 24.2445 13.7965 24.1991 13.5778C24.1876 13.5225 24.1961 13.4397 24.1453 13.3637C24.2145 13.1711 24.3607 13.0231 24.4677 12.8543C25.4228 13.7504 25.2042 13.4205 24.6024 12.6134L24.5354 12.5328C24.4262 12.5174 24.2746 12.5052 24.173 12.4791C24.9449 11.9574 25.7791 11.4402 26.3501 10.6975C26.3717 10.2817 26.3625 10.6745 26.354 10.2602C26.451 10.241 26.778 10.6538 26.8604 10.9523V10.9507Z" fill="#E4E1E1"/>
<path d="M25.5166 18.426C25.1449 20.0426 24.7632 21.67 24.2537 23.249C24.1829 23.4684 24.0113 23.8919 24.0113 23.8919L23.8289 24.2403C23.8289 24.2403 23.7581 23.9809 23.7158 23.8114C23.5927 23.3226 23.4988 22.8193 23.408 22.3221C23.4033 22.2961 23.398 22.27 23.3933 22.2439C23.2971 21.9331 23.2086 21.6216 23.1248 21.3109L23.1971 18.3861C23.1971 18.3861 23.2025 18.3861 23.2048 18.3861C23.2079 18.3424 23.2109 18.2979 23.2148 18.2534C23.234 17.9803 23.2556 17.7064 23.2856 17.4348C23.3949 17.6511 23.0724 18.5987 23.4472 18.1851C23.3679 19.5785 23.3733 20.9841 23.6219 22.3651C23.9374 21.5733 24.921 19.9444 25.0056 19.1902C25.0226 19.0414 25.0118 18.6179 25.0056 18.4268C25.1103 19.4941 25.0457 19.5907 25.1195 20.2383C25.1211 20.2513 25.5028 18.4268 25.5159 18.4268L25.5166 18.426Z" fill="#DEA76C"/>
<path d="M24.1999 13.5762C24.2453 13.7957 24.4515 14.3274 24.5223 14.6611C24.7078 15.5327 24.9795 17.5659 25.0064 18.4253C25.0125 18.6171 25.0233 19.0398 25.0064 19.1887C24.9217 19.9437 23.9374 21.5725 23.6227 22.3636C23.3749 20.9825 23.3687 19.5769 23.448 18.1836C23.4826 17.5767 23.7981 14.1601 23.932 13.8294C23.9659 13.7458 24.1221 13.6422 24.2006 13.5747L24.1999 13.5762Z" fill="#EDBB7E"/>
<path d="M23.2864 12.4514C23.3048 12.6578 23.9221 13.3583 24.146 13.3622C24.1968 13.4381 24.1883 13.521 24.1999 13.5762C24.1206 13.643 23.9652 13.7473 23.9313 13.831C23.7974 14.1616 23.4819 17.5782 23.4472 18.1851C23.0724 18.5987 23.3949 17.6511 23.2856 17.4347C23.4326 16.0974 23.565 14.7593 23.7697 13.4289C23.5814 13.1251 23.3933 12.8215 23.2056 12.5182C23.2102 12.4415 23.2702 12.4568 23.2864 12.4514Z" fill="#DEA76C"/>
<path d="M24.0121 12.4515C24.0983 12.4745 24.156 12.4737 24.1737 12.4783C24.2761 12.5044 24.4277 12.5167 24.5362 12.532L24.6031 12.6126C24.5408 12.6809 24.5154 12.7799 24.4685 12.8535C24.3615 13.0215 24.2153 13.1704 24.146 13.363C23.9221 13.3591 23.3048 12.6586 23.2864 12.4522C23.3633 12.4231 23.6019 12.4185 23.6896 12.3717C23.7243 12.3901 23.9359 12.4315 24.0121 12.4522V12.4515Z" fill="#EDBB7E"/>
<path d="M24.4685 12.8527C24.5155 12.7791 24.5401 12.6793 24.6032 12.6118C25.205 13.4197 25.4236 13.7489 24.4685 12.8527Z" fill="#98B2C5"/>
<path d="M23.277 12.6509L23.1708 12.4775C23.1708 12.4775 23.1685 12.4798 23.1615 12.4867C23.0777 12.5658 22.4043 13.2034 22.2373 13.2057C22.081 13.2103 22.0133 13.0415 21.9979 12.9985L21.8894 13.2486C21.8894 13.2486 21.9794 13.5571 22.138 13.4895H22.1403C22.1857 13.4696 22.2442 13.4374 22.305 13.4059C22.6459 13.2256 23.3855 12.8289 23.4147 12.8873C23.3693 12.7975 23.3247 12.7254 23.277 12.6509ZM22.6829 13.0023C22.6875 12.9977 22.6921 12.9954 22.6944 12.9931L22.6744 13.0131C22.6744 13.0131 22.6767 13.0108 22.6767 13.0085C22.6813 13.0062 22.6813 13.0039 22.6836 13.0016L22.6829 13.0023Z" fill="#98B2C5"/>
<path d="M22.6946 12.9939L22.6746 13.0138C22.6746 13.0138 22.6769 13.0115 22.6769 13.0092C22.6815 13.0069 22.6815 13.0046 22.6838 13.0023C22.6884 12.9977 22.693 12.9954 22.6953 12.9931L22.6946 12.9939Z" fill="#98B2C5"/>
<path d="M26.2624 7.88633C26.2755 8.41343 26.3055 8.93977 26.3162 9.46687C26.3247 9.88195 26.3647 10.297 26.3432 10.7129C25.7721 11.4563 24.9387 11.9727 24.166 12.4944C24.1491 12.4898 24.0914 12.4906 24.0044 12.4676C24.1445 11.8407 25.8199 9.14079 25.8591 8.86381C25.8637 8.83158 25.836 8.80243 25.8052 8.79706C25.9468 8.55921 26.0184 8.32213 26.1277 8.07354C26.1477 8.0275 26.2123 7.87712 26.2624 7.88633Z" fill="#823D35"/>
<path d="M26.6655 5.47483C26.657 5.59222 26.6009 6.04337 26.6116 6.07789C26.6255 6.12239 26.6894 6.11472 26.6924 6.11779C26.7255 6.15155 26.7763 6.19835 26.8271 6.19835C26.8217 6.20295 26.8602 6.27047 26.7332 6.25206C26.6178 6.23518 26.6047 5.96818 26.5585 6.89501C26.46 7.22544 26.3615 7.55587 26.263 7.8863C26.213 7.8771 26.1491 8.02748 26.1283 8.07351C26.1283 8.00523 26.1476 7.95382 26.0745 7.9661C26.3507 7.28938 26.4839 5.45642 26.3161 4.75055C26.8425 4.79352 26.5516 4.91167 26.6655 5.47407V5.47483Z" fill="#2C2026"/>
<path d="M21.2638 6.27893C21.2061 6.1508 21.2207 6.13699 21.21 6.09173C21.4901 5.74339 22.1219 5.88534 22.2312 6.3196C22.5283 7.49886 21.4493 6.69172 21.2638 6.2797V6.27893Z" fill="#8E4D3F"/>
<path d="M24.5153 8.07431C24.3821 8.44105 23.8627 8.94514 23.4671 9.01189C23.0523 9.08247 22.6459 8.8592 22.7414 8.39579C23.1616 8.79399 23.6202 8.74719 24.072 8.42264C24.1089 8.39655 24.4737 8.04515 24.4883 8.0206L24.5153 8.07431Z" fill="#BD6F55"/>
<path d="M22.7953 6.89504C23.164 7.4114 23.5888 6.82598 23.9374 6.9756C24.4361 7.18889 23.2679 7.53032 22.8223 7.35078C22.5375 7.23569 22.5191 6.93263 22.7284 6.73468C22.8053 6.73621 22.7361 6.81294 22.7953 6.8958V6.89504Z" fill="#2C2026"/>
<path d="M22.4728 4.29634C22.616 4.36462 22.5352 4.44058 22.5537 4.59096C22.2181 4.56488 21.5971 4.69608 21.5455 4.69838C21.3192 4.70682 21.4185 4.47664 21.5186 4.40375C21.6478 4.31015 22.3197 4.22345 22.4728 4.29634Z" fill="#19222A"/>
<path d="M24.5152 8.0743L24.4883 8.02059C24.5321 7.94923 24.5052 7.91317 24.5152 7.85947C24.516 7.8541 24.556 7.87404 24.5422 7.75205C24.5829 7.7229 25.1571 7.17201 25.1063 7.41676C25.097 7.45973 24.6283 8.03517 24.5152 8.07353V8.0743Z" fill="#42221F"/>
<path d="M24.0051 12.4684C23.9289 12.4476 23.7165 12.407 23.6826 12.3878C23.4525 12.2612 23.1547 11.8331 23.0107 11.6106C23.8157 10.9991 25.3195 9.61341 25.8059 8.79706C25.8367 8.8032 25.8644 8.83158 25.8598 8.86381C25.8205 9.14079 24.1459 11.8407 24.0051 12.4676V12.4684Z" fill="#42221F"/>
<path d="M26.5579 6.89502C26.6041 5.96818 26.6172 6.23519 26.7326 6.25207C26.8596 6.27048 26.8211 6.20296 26.8265 6.19836C26.7757 6.19836 26.7249 6.15156 26.6918 6.1178C26.6887 6.11473 26.6249 6.1224 26.611 6.0779C26.6002 6.04337 26.6564 5.593 26.6649 5.47484C26.7087 4.84263 26.6095 4.68534 26.9335 4.80503C26.9219 4.86718 26.8211 5.14569 26.8665 5.18022C27.1182 4.94467 27.5099 4.90401 27.7392 5.19326C28.2418 5.82471 27.4791 7.15972 26.5571 6.89426L26.5579 6.89502Z" fill="#8E4D3F"/>
<path d="M27.499 5.18022C27.3358 5.60605 27.4643 5.68431 27.4451 6.07791C27.4405 6.17458 27.3381 6.27509 27.4451 6.35949C27.3397 6.46844 27.215 6.60961 27.0418 6.56051C27.185 6.08404 26.7263 5.82701 27.0149 5.38124C27.118 5.22242 27.3158 5.12191 27.499 5.18022Z" fill="#2C2026"/>
<path d="M27.4451 6.3595C27.3381 6.27587 27.4405 6.17459 27.4451 6.07792C27.4643 5.68432 27.3358 5.60606 27.4989 5.18024C27.8953 5.30683 27.7729 6.01884 27.4451 6.3595Z" fill="#42221F"/>
<path d="M22.5806 2.28693C22.5447 2.957 22.5088 3.62681 22.4728 4.29636C22.3205 4.22347 21.6478 4.3094 21.5186 4.40378C21.4185 4.47666 21.3192 4.70684 21.5455 4.6984C21.5963 4.69687 22.2181 4.5649 22.5537 4.59098C22.5929 4.59405 22.833 4.64086 22.8492 4.65774C23.0385 5.41271 23.1285 6.16768 22.7953 6.89504C22.736 6.81218 22.8053 6.73622 22.7283 6.73392C22.519 6.93187 22.5375 7.23493 22.8222 7.35002C22.8599 7.79502 23.5995 7.56562 23.2925 7.99297C23.775 7.99374 24.1405 8.03824 24.5423 7.75206C24.5561 7.87405 24.5161 7.8541 24.5153 7.85947C23.8727 8.14873 23.1255 8.07967 22.4459 7.96689C22.1812 7.60244 22.0203 7.22726 21.9087 7.36383C21.8533 7.43135 22.3389 8.22929 22.5537 8.1541C22.6191 8.23773 22.6606 8.31829 22.7414 8.39501C22.646 8.85843 23.0523 9.0817 23.4672 9.01112C23.5749 9.31495 23.6824 9.61852 23.7896 9.92184C23.5341 9.96711 23.2417 10.0001 22.9831 9.97555C22.9292 9.97018 22.8984 9.95867 22.8484 9.9487C22.3274 9.84205 22.2781 9.27735 22.0957 8.84999C22.085 8.82467 22.1065 8.75485 22.0957 8.72954C21.7671 7.95691 21.2561 7.15207 21.2623 6.27817C21.4478 6.69018 22.5267 7.49733 22.2297 6.31807C22.1204 5.8838 21.4885 5.74186 21.2084 6.09019C21.1245 5.73189 21.1807 5.30836 21.0737 4.99149C21.0917 4.96029 21.1096 4.92909 21.1276 4.89788V4.18818C21.2261 3.16697 21.5293 2.54933 22.579 2.28616L22.5806 2.28693Z" fill="#823D35"/>
<path d="M22.4458 7.96687C22.4743 8.006 22.4943 8.07888 22.5536 8.15407C22.3389 8.22927 21.8533 7.43132 21.9087 7.36381C22.0203 7.22724 22.1819 7.60242 22.4458 7.96687Z" fill="#42221F"/>
<path d="M21.8419 4.93929C22.0412 4.88482 22.4329 5.06742 22.5276 5.24773C22.6976 5.57381 22.2782 4.97152 21.7749 4.97996C21.7965 4.97689 21.8311 4.94313 21.8419 4.94006V4.93929Z" fill="#60261C"/>
<path d="M22.285 5.31449C22.1111 5.24391 22.3135 5.43418 22.1642 5.82395C22.452 5.71193 22.5736 5.78558 22.4197 5.44876C22.6713 5.78175 22.442 5.83929 22.0572 5.87765C21.9156 5.89146 21.7994 5.87382 21.6947 5.82395C21.8933 5.84543 21.7363 5.75566 21.7217 5.67663C21.6593 5.33981 21.6632 5.30759 21.6409 5.79709C21.6155 5.77714 21.5424 5.76333 21.5331 5.73034C21.5054 5.62753 21.647 5.06974 22.0841 5.15414C22.2011 5.17639 22.2181 5.26155 22.2858 5.31526L22.285 5.31449Z" fill="#0E1A2B"/>
<path d="M22.2851 5.3145C22.2928 5.32064 22.4137 5.4411 22.4198 5.44877C22.5737 5.78559 22.4529 5.71194 22.1643 5.82396C22.3136 5.43496 22.1112 5.24468 22.2851 5.3145Z" fill="white"/>
<path d="M21.694 5.82317C21.6794 5.81626 21.6486 5.80322 21.6401 5.79631C21.6625 5.30681 21.6586 5.33903 21.7209 5.67586C21.7356 5.75488 21.8926 5.84465 21.694 5.82317Z" fill="white"/>
<path d="M22.0835 5.3467C22.1797 5.31064 22.2182 5.47944 22.1374 5.50782C22.0827 5.52701 21.9904 5.382 22.0835 5.3467Z" fill="#CDECF7"/>
<path d="M26.3162 4.75133C26.4832 5.4572 26.3508 7.29016 26.0745 7.96687C25.7344 8.79934 24.6947 9.76224 23.7904 9.9226C23.6827 9.61876 23.5752 9.31519 23.4679 9.01187C23.8635 8.94512 24.383 8.44027 24.5161 8.07429C24.63 8.03669 25.0987 7.46126 25.1072 7.41752C25.158 7.172 24.5838 7.72366 24.5431 7.75281C24.1413 8.03976 23.7758 7.99526 23.2932 7.99373C23.6003 7.56637 22.8607 7.79501 22.823 7.35077C23.2686 7.53031 24.4369 7.18888 23.9382 6.97559C23.5895 6.82674 23.1647 7.41139 22.7961 6.89503C23.1293 6.16767 23.0393 5.4127 22.85 4.65772C22.8338 4.64084 22.5937 4.59404 22.5544 4.59097C22.536 4.44059 22.6175 4.36463 22.4736 4.29635C22.5095 3.62628 22.5455 2.95647 22.5814 2.28692C23.4172 2.07669 24.904 2.12503 25.6051 2.68896C26.1123 3.09713 26.113 3.7094 26.1022 4.31016C26.2023 4.43062 26.2816 4.60325 26.317 4.75209L26.3162 4.75133Z" fill="#8E4D3F"/>
<path d="M24.5693 5.90373C24.7124 5.89836 24.8194 5.82547 24.8379 5.82317C25.1265 5.78481 25.6267 5.64977 25.8322 5.94363C26.2947 6.60423 24.8432 7.20422 24.4077 6.55973C24.1937 6.24286 24.3076 6.1178 24.5693 5.90297V5.90373Z" fill="#975249"/>
<path d="M24.3137 4.26951C24.5999 4.23882 25.4627 4.3846 25.268 4.65774C25.2326 4.70761 24.4214 4.56106 24.0451 4.61784C23.8388 4.41605 24.1243 4.28946 24.3137 4.26951Z" fill="#19222A"/>
<path d="M24.8918 5.28763C24.8887 5.31985 24.9172 5.31295 24.9187 5.31448C24.9264 5.32215 24.938 5.3329 24.9457 5.34134C25.1696 5.57458 25.1935 5.73877 24.8379 5.79708C24.9333 5.34747 24.744 5.35131 24.8918 5.28763Z" fill="white"/>
<path d="M23.5881 6.68097C23.8936 6.67944 23.5226 7.01473 23.2256 6.80143C23.2264 6.78225 23.5696 6.68097 23.5881 6.68097Z" fill="#975249"/>
<path d="M23.5079 6.22522C23.6287 6.1976 23.6503 6.35412 23.6018 6.47995C23.4717 6.81447 23.3109 6.27049 23.5079 6.22522Z" fill="#823D35"/>
<path d="M24.9456 5.28763C24.9279 5.28763 24.9617 5.2577 24.8917 5.28763C24.7447 5.35131 24.9333 5.3467 24.8378 5.79708V5.82393C24.8194 5.82624 24.7124 5.89912 24.5693 5.9045C23.8497 5.93058 24.2599 4.65541 25.0533 5.30144C25.0225 5.33903 25.0056 5.28609 24.9456 5.28839V5.28763Z" fill="#0E1A2B"/>
<path d="M24.3405 5.448C24.3718 5.56871 24.4031 5.68917 24.4344 5.80937C24.419 5.9375 24.1389 5.63751 24.3405 5.448Z" fill="#E0E8E5"/>
<path d="M24.9455 5.28765C24.9316 5.28075 24.9139 5.29686 24.9185 5.31451C24.917 5.31297 24.8885 5.31988 24.8916 5.28765C24.9616 5.25773 24.9278 5.28765 24.9455 5.28765Z" fill="#8E4D3F"/>
<path d="M27.2097 11.2185C27.577 11.9198 27.9444 12.6208 28.3118 13.3215L27.2097 13.4021C27.5678 13.7683 27.9262 14.1345 28.2848 14.5008C27.783 15.8046 27.2813 17.1087 26.7795 18.413C26.3583 18.4176 25.9373 18.4219 25.5166 18.426H25.4458C25.8229 16.2263 26.457 14.0519 26.8064 11.8484C26.8534 11.5507 26.9096 11.2499 26.8603 10.9507C26.948 11.0673 27.0827 11.1548 27.2097 11.2185Z" fill="#346553"/>
<path d="M23.408 22.3221C23.4033 22.296 23.398 22.27 23.3933 22.2439C23.2971 21.9331 23.2086 21.6216 23.1248 21.3109L23.1971 18.3861L23.2048 18.0508L23.2148 18.2526L23.408 22.3214V22.3221Z" fill="#C28E5E"/>
<path d="M24.4299 5.35207C24.5261 5.31601 24.5646 5.48481 24.4838 5.5132C24.4291 5.53238 24.3368 5.38737 24.4299 5.35207Z" fill="#CDECF7"/>
<path d="M27.9961 20.2283H27.9599C27.956 20.1524 28.0145 20.0465 28.1369 20.0311V19.9889C28.13 19.9889 28.1238 19.9889 28.1169 19.9889C28.1038 19.9889 28.0953 19.9797 28.0953 19.9682C28.0953 19.9567 28.1046 19.9475 28.1169 19.9475C28.1438 19.9475 28.1715 19.9475 28.1985 19.9475C28.2116 19.9475 28.2208 19.9559 28.2208 19.9682C28.2208 19.9805 28.2116 19.9889 28.1985 19.9889C28.1923 19.9889 28.1862 19.9889 28.1792 19.9889V20.0311C28.2393 20.0388 28.2877 20.0672 28.3224 20.1171C28.3455 20.1501 28.357 20.1869 28.357 20.2283H28.0392C28.0392 20.1593 28.0661 20.1048 28.123 20.0649C28.0969 20.0672 28.0561 20.0902 28.0315 20.124C28.0084 20.1547 27.9976 20.19 27.9961 20.2283Z" fill="#EDBB7E"/>
<path d="M28.1587 20.3219C28.0902 20.3219 28.0209 20.3219 27.9524 20.3219C27.9417 20.3219 27.9324 20.3188 27.9255 20.3096C27.9178 20.2997 27.9163 20.2882 27.9216 20.2767C27.927 20.2651 27.937 20.259 27.9501 20.259C28.004 20.259 28.0571 20.259 28.111 20.259C28.1956 20.259 28.2803 20.259 28.3649 20.259C28.3772 20.259 28.3872 20.2628 28.3942 20.2736C28.4003 20.2836 28.4011 20.2943 28.3942 20.305C28.388 20.3158 28.3788 20.3211 28.3672 20.3211C28.3295 20.3211 28.2918 20.3211 28.2541 20.3211C28.2226 20.3211 28.1902 20.3211 28.1587 20.3211V20.3219Z" fill="#EDBB7E"/>
<path d="M28.1423 21.6048C27.933 21.6048 27.7275 21.5457 27.5467 21.4298C27.2973 21.271 27.1249 21.0239 27.0611 20.7355C26.9972 20.447 27.0503 20.1508 27.2096 19.9022C27.3689 19.6536 27.6167 19.4818 27.9061 19.4181C28.1954 19.3544 28.4925 19.4073 28.7418 19.5662C28.9912 19.725 29.1636 19.972 29.2274 20.2605C29.2913 20.549 29.2382 20.8452 29.0789 21.0938C28.9196 21.3424 28.6718 21.5142 28.3824 21.5779C28.3024 21.5955 28.2224 21.604 28.1423 21.604V21.6048ZM28.1469 19.4419C28.0708 19.4419 27.9938 19.4503 27.9176 19.4672C27.6413 19.5278 27.4051 19.692 27.2519 19.9298C27.0995 20.1677 27.0487 20.45 27.1095 20.7262C27.1703 21.0017 27.335 21.2372 27.5736 21.3899C27.8122 21.5418 28.0954 21.5925 28.3724 21.5319C28.6487 21.4713 28.885 21.3071 29.0381 21.0692C29.1905 20.8314 29.2413 20.549 29.1805 20.2728C29.1197 19.9974 28.955 19.7618 28.7164 19.6091C28.5441 19.4994 28.3478 19.4426 28.1477 19.4426L28.1469 19.4419Z" fill="#EDBB7E"/>
<path d="M27.8138 20.602C27.8138 20.6986 27.7368 20.7554 27.5883 20.7554H27.2974V20.1945H27.5721C27.7129 20.1945 27.7853 20.2529 27.7853 20.3403C27.7853 20.3963 27.756 20.4401 27.7106 20.4639C27.7737 20.4838 27.8138 20.5321 27.8138 20.6027V20.602ZM27.4267 20.292V20.424H27.5559C27.6198 20.424 27.6537 20.4017 27.6537 20.3572C27.6537 20.3127 27.6191 20.2912 27.5559 20.2912H27.4267V20.292ZM27.6822 20.5889C27.6822 20.5413 27.646 20.5191 27.5783 20.5191H27.4267V20.658H27.5783C27.646 20.658 27.6822 20.6373 27.6822 20.5889Z" fill="#EDBB7E"/>
<path d="M27.8777 20.6871C27.8777 20.5183 28.0077 20.3971 28.1832 20.3971C28.2802 20.3971 28.3618 20.4324 28.4149 20.4968L28.331 20.5736C28.2933 20.5306 28.2456 20.5076 28.1894 20.5076C28.0839 20.5076 28.0093 20.5812 28.0093 20.6871C28.0093 20.793 28.0839 20.8667 28.1894 20.8667C28.2456 20.8667 28.2933 20.8444 28.331 20.7999L28.4149 20.8766C28.3618 20.9418 28.2802 20.9771 28.1824 20.9771C28.0077 20.9771 27.8777 20.8559 27.8777 20.6871Z" fill="#EDBB7E"/>
<path d="M28.9906 20.3971C28.9906 20.5222 28.8967 20.5997 28.7459 20.5997H28.6327V20.7546H28.5027V20.1938H28.7466C28.8967 20.1938 28.9914 20.2713 28.9914 20.3971H28.9906ZM28.859 20.3971C28.859 20.3357 28.819 20.2997 28.739 20.2997H28.6327V20.4945H28.739C28.8182 20.4945 28.859 20.4585 28.859 20.3979V20.3971Z" fill="#EDBB7E"/>
<path d="M28.7493 20.1339L28.7488 20.1345L28.7493 20.1339Z" fill="#EDBB7E"/>
<path d="M27.4928 20.872L27.2535 20.9656L27.2473 20.9503L27.4805 20.8414C27.4859 20.8391 27.492 20.8391 27.4967 20.8429C27.5013 20.846 27.5044 20.8529 27.5036 20.8582C27.5036 20.8644 27.499 20.869 27.4936 20.8713L27.4928 20.872Z" fill="#EDBB7E"/>
<path d="M27.9531 21.1912C27.9569 21.1958 27.9577 21.2012 27.9554 21.2073L27.853 21.4429L27.8376 21.4367L27.9254 21.1958C27.9277 21.1897 27.9323 21.1858 27.9377 21.1851C27.9431 21.1843 27.95 21.1866 27.9531 21.1912Z" fill="#EDBB7E"/>
<path d="M28.5487 19.9276C28.5471 19.9222 28.5487 19.916 28.5533 19.9122L28.7411 19.7365L28.7526 19.748L28.5764 19.9352C28.5764 19.9352 28.5687 19.9406 28.5648 19.9406C28.5633 19.9406 28.5625 19.9406 28.561 19.9406C28.5556 19.9391 28.5502 19.9345 28.5487 19.9283V19.9276Z" fill="#EDBB7E"/>
<path d="M27.6869 21.0638C27.6884 21.0692 27.6869 21.0754 27.6822 21.0792L27.4945 21.2549L27.4829 21.2434L27.6591 21.0562C27.6638 21.0516 27.6692 21.05 27.6745 21.0516C27.6799 21.0531 27.6845 21.0577 27.6861 21.0638H27.6869Z" fill="#EDBB7E"/>
<path d="M28.2239 21.2204L28.2162 21.4774H28.2001L28.1924 21.2211C28.1924 21.215 28.1955 21.2096 28.2001 21.2073C28.2055 21.2042 28.2116 21.2042 28.217 21.2073C28.2216 21.2104 28.2247 21.215 28.2247 21.2211L28.2239 21.2204Z" fill="#EDBB7E"/>
<path d="M28.3833 19.5485L28.3986 19.5547L28.3109 19.7963C28.3086 19.8017 28.304 19.8056 28.2986 19.8063C28.2978 19.8063 28.2971 19.8063 28.2963 19.8063C28.2909 19.8063 28.2863 19.804 28.2832 19.8002C28.2801 19.7956 28.2786 19.7894 28.2809 19.7841L28.3833 19.5485Z" fill="#EDBB7E"/>
<path d="M27.7699 19.8592C27.7722 19.8646 27.7722 19.8708 27.7684 19.8754C27.7653 19.88 27.7599 19.8823 27.7545 19.8823H27.753C27.7468 19.8815 27.7422 19.8777 27.7399 19.8723L27.646 19.6337L27.6614 19.6268L27.7707 19.8592H27.7699Z" fill="#EDBB7E"/>
<path d="M28.0361 19.514L28.0438 19.7703C28.0438 19.7764 28.0407 19.7818 28.0361 19.7848C28.0338 19.7864 28.0307 19.7871 28.0276 19.7871C28.0246 19.7871 28.0215 19.7871 28.0192 19.7848C28.0138 19.7818 28.0115 19.7764 28.0115 19.771L28.0192 19.514H28.0353H28.0361Z" fill="#EDBB7E"/>
<path d="M28.4957 21.1191L28.5904 21.3577L28.575 21.3646L28.4657 21.1321C28.4634 21.1268 28.4634 21.1206 28.4672 21.116C28.4703 21.1114 28.4765 21.1084 28.4826 21.1091C28.488 21.1091 28.4934 21.1137 28.4957 21.1191Z" fill="#EDBB7E"/>
<path d="M28.7033 20.9303L28.8796 21.1176L28.868 21.1291L28.6802 20.9534C28.6756 20.9488 28.6741 20.9434 28.6756 20.938C28.6772 20.9327 28.6818 20.928 28.6879 20.9257C28.6933 20.9242 28.6995 20.9257 28.7033 20.9303Z" fill="#EDBB7E"/>
<path d="M27.5322 20.0611L27.356 19.8738L27.3675 19.8623L27.5553 20.038C27.5599 20.0426 27.5614 20.048 27.5599 20.0534C27.5584 20.0588 27.5537 20.0641 27.5476 20.0657C27.546 20.0657 27.5445 20.0657 27.5437 20.0657C27.5391 20.0657 27.5353 20.0641 27.5322 20.0603V20.0611Z" fill="#EDBB7E"/>
<path d="M28.7434 20.1194C28.738 20.1217 28.7342 20.1263 28.7334 20.1324C28.7334 20.1385 28.7357 20.1447 28.7403 20.1478C28.7434 20.1501 28.7465 20.1508 28.7496 20.1508C28.7519 20.1508 28.7542 20.1508 28.7565 20.1493L28.9897 20.0403L28.9827 20.025L28.7434 20.1186V20.1194Z" fill="#EDBB7E"/>
<path d="M28.8321 20.658L29.0676 20.76L29.0614 20.7754L28.8198 20.6879C28.8144 20.6856 28.8105 20.681 28.809 20.6756C28.8082 20.6702 28.8105 20.6633 28.8151 20.6603C28.8198 20.6564 28.8259 20.6557 28.8313 20.658H28.8321Z" fill="#EDBB7E"/>
<path d="M26.8795 11.2185L27.9176 13.0369L26.8348 13.3622L27.9561 14.6397L24.012 23.8919L28.2847 14.5008L27.3751 13.4619L28.3117 13.3215L27.2096 11.2185L26.8602 10.9507L26.8795 11.2185Z" fill="#EDBB7E"/>
<path d="M21.4785 11.4686C20.9275 12.5205 20.1941 12.8197 19.6431 13.8716L20.7451 13.9522C20.387 14.3184 20.0286 14.6847 19.67 15.0509C20.4227 17.0066 23.1909 22.4863 23.9435 24.442C23.7758 22.6989 21.5617 18.126 21.9049 13.3629C21.928 13.0384 22.0734 11.3305 22.3197 11.1648C22.4405 11.0834 21.6063 11.4057 21.4793 11.4694L21.4785 11.4686Z" fill="#235243"/>
<path d="M21.2438 11.7164L20.0371 13.5862L21.1199 13.9115L19.9986 15.189L23.9435 24.4413L19.67 15.0501L20.5804 14.0113L19.6431 13.8709L21.153 11.6911L21.4785 11.4686L21.2438 11.7164Z" fill="#EDBB7E"/>
<path d="M21.9956 12.9893L22.0048 12.9824L21.9979 12.9985C21.9956 12.9916 21.9956 12.9893 21.9956 12.9893Z" fill="#98B2C5"/>
<path d="M22.6946 12.9939L22.6746 13.0138C22.6746 13.0138 22.6769 13.0115 22.6769 13.0092C22.6815 13.0069 22.6815 13.0046 22.6838 13.0023C22.6884 12.9977 22.693 12.9954 22.6953 12.9931L22.6946 12.9939Z" fill="#98B2C5"/>
<path d="M29.9632 26.8528H26.5955V27.0645H29.9632V26.8528Z" fill="#EDBB7E"/>
<path d="M21.9264 27.3937H19.5122V27.6054H21.9264V27.3937Z" fill="#EDBB7E"/>
<path d="M23.6888 12.3717C23.6026 12.4169 23.3632 12.4215 23.2863 12.4507C23.2701 12.4576 23.2163 12.4438 23.207 12.5067C23.2001 12.4975 23.1955 12.4883 23.1885 12.4775C23.1793 12.4867 23.1701 12.496 23.1639 12.5044C23.1301 12.5382 23.0962 12.5719 23.0646 12.608C22.9877 12.6847 22.9107 12.766 22.8361 12.8466C22.7861 12.9026 22.7391 12.9571 22.6914 13.0131C22.696 13.0085 22.7006 13.0039 22.7052 13.0016C22.6914 13.0177 22.6783 13.0307 22.6668 13.0399C22.1311 13.5402 22.0157 13.1957 21.9957 13.0491C21.9934 13.0468 21.9957 13.0445 21.9957 13.0445V13.0399C21.9934 12.2512 21.9233 11.9313 22.3189 11.1625C22.3458 11.1103 22.4005 11.0658 22.4251 11.0297C22.6375 10.7505 22.7076 11.3336 22.8022 11.2707C22.843 11.3834 22.9538 11.4939 23.0169 11.5929C23.1616 11.8139 23.4579 12.242 23.688 12.3701L23.6888 12.3717Z" fill="#C5CED9"/>
<path d="M24.6138 25.2431C24.7757 25.2431 24.907 25.1122 24.907 24.9507C24.907 24.7893 24.7757 24.6584 24.6138 24.6584C24.4518 24.6584 24.3206 24.7893 24.3206 24.9507C24.3206 25.1122 24.4518 25.2431 24.6138 25.2431Z" fill="#EDBB7E"/>
<path d="M17.7322 13.7903L18.9589 20.0664L18.5456 21.3638C18.5456 21.3638 18.1139 19.3843 18.1424 18.0509C18.1708 16.7174 17.7329 13.7896 17.7329 13.7896L17.7322 13.7903Z" fill="#19222A"/>
<path d="M14.1991 22.2101C14.1991 22.2101 14.6462 23.4369 15.0379 23.6042C15.0379 23.6042 14.2829 23.2167 13.7373 22.4211L14.1991 22.2101Z" fill="#19222A"/>
<path d="M26.7734 59.0665C26.5309 59.3688 26.3093 59.6542 26.1161 59.9857C25.953 60.265 25.8329 60.5803 25.6744 60.8619C26.0707 61.3522 26.7257 61.468 27.2751 61.7626C27.2359 61.9851 25.3535 61.6867 25.2326 61.5194C25.2257 61.5095 25.4574 61.3836 25.2326 61.3974C25.208 61.4519 25.1957 61.4857 25.1772 61.5432C25.1642 61.5846 25.1241 61.7235 25.1218 61.7381C25.8445 62.2345 27.0281 62.0013 26.9989 62.3227C27.2136 62.3381 27.0296 62.1923 27.082 62.177C27.3444 62.0979 29.2699 62.2238 29.5939 61.4465C29.4508 61.0345 29.5154 60.9432 29.4839 60.8136C29.4292 60.5895 29.4408 60.301 29.3184 60.1315C29.1329 59.8752 28.4388 59.4356 28.0193 59.1218C27.6823 59.1256 27.376 59.1302 27.2767 59.1333C27.1458 59.1371 26.945 59.1018 26.7749 59.0665H26.7734Z" fill="#111112"/>
<path d="M30.2002 33.3851C29.9601 36.6352 29.9501 49.8933 29.7585 53.1449C29.7015 54.1093 29.433 58.274 29.3722 58.6469C29.3429 58.8264 29.239 58.9377 29.1628 59.0873L29.0743 59.085C29.0997 59.0934 29.1251 59.1011 29.1513 59.1095C29.1513 59.1095 28.5472 59.1157 28.0177 59.1226C27.6806 59.1264 27.3743 59.131 27.275 59.1341C27.1442 59.1379 26.9433 59.1018 26.7733 59.0673C26.7748 59.065 26.7763 59.0627 26.7779 59.0612C26.7763 59.0458 26.7748 59.0297 26.7733 59.0144C26.3215 54.5168 25.408 40.1745 25.0063 35.7529C24.8716 35.7605 24.7308 35.7421 24.6807 35.8442C24.0612 40.2497 23.7526 54.6763 23.521 59.1095C23.0323 59.0888 22.6421 59.1256 22.1411 59.0612C22.3866 54.4584 22.2927 39.85 22.8037 35.2595C22.7344 35.1291 20.0093 35.1329 19.8231 34.3833C19.7808 34.2153 19.8823 33.9959 19.8777 33.8232C22.372 34.1148 23.9735 34.3473 24.239 32.1683H24.4599C24.4722 32.6608 24.4445 33.4588 24.984 33.7749C25.6058 34.1393 27.3135 33.8501 28.05 33.7419C28.3771 33.6936 29.967 33.491 30.2002 33.3851Z" fill="#2C3434"/>
<path d="M29.1514 59.1095C29.1553 59.1018 29.1591 59.0949 29.163 59.0873L29.0745 59.0842C29.0999 59.0926 29.1253 59.1003 29.1514 59.1088V59.1095Z" fill="#2C3434"/>
<path d="M28.7466 60.7077C28.5503 60.9072 28.2787 61.0307 27.9993 61.0484C27.7523 61.0637 27.5075 60.9985 27.2597 60.9969C27.2359 60.9969 27.2112 60.9969 27.1897 61.0069C27.1681 61.0169 27.1497 61.0384 27.1512 61.0614C27.1528 61.0867 27.1743 61.1059 27.1951 61.1205C27.3721 61.244 27.5976 61.2724 27.8131 61.287C28.0324 61.3015 28.2563 61.3046 28.4672 61.2448C28.6781 61.1849 28.8789 61.056 28.9805 60.8619C28.999 60.8266 29.0144 60.7883 29.0129 60.7484C29.0113 60.7085 28.9905 60.667 28.9536 60.6517C28.932 60.6425 28.9066 60.6432 28.8836 60.6463C28.8043 60.6578 28.7296 60.6962 28.675 60.7545" fill="#B8BAB8"/>
</g>
<defs>
<clipPath id="clip0_710_1410">
<rect width="33" height="62" fill="white" transform="translate(0 0.5)"/>
</clipPath>
</defs>
</svg>
