<svg width="16" height="16" viewBox="0 0 16 16" fill="none" xmlns="http://www.w3.org/2000/svg">
<path d="M14.7499 14.75L11.4927 11.4928M11.4927 11.4928C12.0498 10.9356 12.4918 10.2741 12.7933 9.54616C13.0949 8.81819 13.2501 8.03795 13.2501 7.25C13.2501 6.46205 13.0949 5.68181 12.7933 4.95384C12.4918 4.22587 12.0498 3.56442 11.4927 3.00725C10.9355 2.45009 10.274 2.00812 9.54607 1.70658C8.8181 1.40505 8.03786 1.24985 7.24991 1.24985C6.46196 1.24985 5.68172 1.40505 4.95375 1.70658C4.22578 2.00812 3.56433 2.45009 3.00716 3.00725C1.88191 4.1325 1.24976 5.65866 1.24976 7.25C1.24976 8.84134 1.88191 10.3675 3.00716 11.4928C4.13241 12.618 5.65857 13.2502 7.24991 13.2502C8.84125 13.2502 10.3674 12.618 11.4927 11.4928Z" stroke="white" stroke-linecap="round" stroke-linejoin="round"/>
</svg>
