<svg width="49" height="48" viewBox="0 0 49 48" fill="none" xmlns="http://www.w3.org/2000/svg">
<path d="M24.9278 13.1568C26.843 13.1568 28.403 11.5968 28.403 9.6816C28.403 7.7664 26.843 6.2064 24.9278 6.2064C23.0126 6.2064 21.4526 7.7664 21.4526 9.6816C21.4526 11.5968 23.0078 13.1568 24.9278 13.1568ZM24.9278 7.8336C25.9454 7.8336 26.771 8.6592 26.771 9.6768C26.771 10.6944 25.9454 11.52 24.9278 11.52C23.9102 11.52 23.0846 10.6944 23.0846 9.6768C23.0846 8.6592 23.9102 7.8336 24.9278 7.8336Z" fill="#1A3F34"/>
<path d="M46.4606 19.7616L44.8238 13.128C44.651 12.4272 43.9406 12 43.2446 12.1728C43.2446 12.1728 43.2446 12.1728 43.2398 12.1728L40.4318 12.888C40.307 12.5568 40.115 12.264 39.8702 12.0096C39.875 11.664 39.7982 11.3088 39.635 10.9776C39.0878 9.8592 37.7678 9.3744 36.6302 9.8832C36.6254 9.8832 36.6206 9.888 36.6158 9.888C36.611 9.888 36.6062 9.8928 36.6014 9.8928L28.8302 13.6656C28.5182 13.8192 28.1678 13.896 27.8222 13.896H22.0238C21.6782 13.896 21.3278 13.8144 21.0158 13.6656L13.2446 9.8928C13.2398 9.8928 13.235 9.888 13.2302 9.888C13.2254 9.888 13.2206 9.8832 13.2158 9.8832C12.0782 9.3792 10.7582 9.8592 10.211 10.9776C10.0478 11.3088 9.9758 11.664 9.9758 12.0096C9.731 12.2592 9.539 12.5568 9.4142 12.888L6.635 12.168H6.6302C6.6302 12.168 6.6302 12.168 6.6254 12.168C5.9294 11.9952 5.219 12.4224 5.0462 13.1184L3.3902 19.7616C3.2174 20.4576 3.6446 21.1632 4.3358 21.3408H4.3406L5.2046 21.5616L5.051 22.2048C4.8782 22.9056 5.3054 23.6112 6.0062 23.784L12.3374 25.3488C12.443 25.3728 12.5486 25.3872 12.6542 25.3872C12.8894 25.3872 13.1198 25.3248 13.3262 25.2C13.6238 25.0176 13.835 24.7344 13.9166 24.3984L15.5054 17.9712C15.6782 17.2704 15.251 16.5648 14.5502 16.392L13.8974 16.2288L14.0942 15.4368L20.531 18.5808L20.555 25.8096C20.555 25.848 20.5502 25.8864 20.5406 25.9248L20.075 27.6144L19.2302 26.0928C19.2302 26.088 19.2254 26.088 19.2254 26.0832C18.8222 25.3392 18.0446 24.864 17.195 24.8448C16.3358 24.8256 15.5342 25.272 15.0974 26.016C14.6654 26.7456 14.6654 27.6528 15.083 28.392C15.083 28.3968 15.0878 28.3968 15.0878 28.4016L18.3806 34.3536C18.8606 35.2128 19.763 35.736 20.7326 35.736C20.8238 35.736 20.9102 35.7312 21.0014 35.7216C22.0718 35.616 22.9694 34.8864 23.3006 33.864L24.755 29.3328L26.435 39.7488C26.5358 40.3632 26.8622 40.9056 27.3614 41.2752C27.7742 41.5824 28.2638 41.7456 28.7726 41.7456C28.8782 41.7456 28.9886 41.736 29.0942 41.7216C29.7134 41.64 30.2606 41.3232 30.6446 40.8288C31.0286 40.3344 31.2014 39.7248 31.1294 39.1056C31.1294 39.1008 31.1294 39.1008 31.1294 39.096C31.1294 39.0912 31.1294 39.0912 31.1294 39.0864L29.3486 25.9056C29.3342 25.8048 29.3294 25.6992 29.3294 25.5936L29.3534 18.5712L35.7662 15.4272L35.963 16.2144L35.3102 16.3776C34.9694 16.4592 34.6862 16.6704 34.5038 16.968C34.3214 17.2656 34.2686 17.616 34.355 17.9568L35.9438 24.384C36.0254 24.7248 36.2366 25.008 36.5342 25.1904C36.7406 25.3152 36.971 25.3776 37.2062 25.3776C37.3118 25.3776 37.4174 25.3632 37.523 25.3392L43.7774 23.7888C43.8014 23.784 43.8302 23.7792 43.8542 23.7744C44.5502 23.6016 44.9774 22.896 44.8094 22.1952L44.651 21.552L45.5102 21.3312L45.5198 21.3264H45.5246C45.8558 21.24 46.1342 21.0336 46.3118 20.7408C46.4942 20.4528 46.547 20.0976 46.4606 19.7616ZM37.2302 24.0336L35.6606 17.6832L36.8606 17.3856C36.8846 17.3808 36.9086 17.376 36.9326 17.3712C36.9566 17.3664 36.9806 17.3568 37.0046 17.3472L41.9438 16.1328L43.4894 22.4784L37.2302 24.0336ZM12.923 17.3712L14.195 17.6832L12.6254 24.0336L6.3662 22.488L7.9358 16.1376L12.923 17.3712ZM4.7054 20.0448L6.3422 13.488L9.0782 14.1936L8.8814 14.9856L8.219 14.8224C7.8782 14.7408 7.5278 14.7936 7.2302 14.9712C6.9326 15.1536 6.7214 15.4368 6.6398 15.7728L5.531 20.256L4.7054 20.0448ZM12.5918 15.9024L10.187 15.3072L10.5422 13.8768L10.6142 13.5792C10.7822 13.752 10.9742 13.9008 11.1998 14.0208C11.2046 14.0256 11.2094 14.0256 11.219 14.0304C11.2238 14.0304 11.2238 14.0352 11.2238 14.0352L12.8558 14.832L12.5918 15.9024ZM28.8734 40.1088C28.4798 40.1616 28.1054 39.888 28.043 39.4944L26.243 28.32C26.1326 27.6576 25.5854 27.1632 24.9182 27.1104C24.251 27.0624 23.6414 27.4704 23.435 28.1088C23.435 28.1088 23.435 28.1136 23.4302 28.1136L21.7454 33.3696C21.6158 33.7728 21.2606 34.0608 20.8382 34.104C20.4158 34.1472 20.0126 33.936 19.8062 33.5664L16.5134 27.6144C16.5134 27.6096 16.5086 27.6096 16.5086 27.6048C16.5086 27.6 16.5038 27.6 16.5038 27.5952C16.3694 27.3648 16.3694 27.0768 16.5038 26.8464C16.6382 26.616 16.8926 26.4768 17.1566 26.4816C17.4254 26.4864 17.6702 26.64 17.795 26.8752C17.795 26.88 17.7998 26.88 17.7998 26.8848C17.7998 26.8896 17.8046 26.8896 17.8046 26.8944L19.619 30.1632C19.619 30.1632 19.619 30.168 19.6238 30.168C19.6286 30.1728 19.6286 30.1776 19.6334 30.1824C19.643 30.1968 19.6526 30.216 19.6622 30.2304C19.667 30.2352 19.667 30.24 19.6718 30.2448C19.6862 30.264 19.7006 30.2832 19.715 30.2976C19.7294 30.3168 19.7486 30.3312 19.763 30.3504C19.7678 30.3552 19.7726 30.36 19.7726 30.36C19.787 30.3744 19.8014 30.3888 19.8158 30.3984C19.8206 30.4032 19.8206 30.4032 19.8254 30.408C19.8446 30.4224 19.8638 30.4368 19.883 30.4464C19.8878 30.4512 19.8926 30.4512 19.8974 30.456C19.9118 30.4656 19.931 30.4752 19.9454 30.4848C19.9502 30.4896 19.955 30.4896 19.9598 30.4944C19.979 30.504 20.003 30.5136 20.0222 30.5232C20.027 30.5232 20.0318 30.528 20.0414 30.528C20.0606 30.5376 20.0846 30.5424 20.1038 30.5472H20.1086C20.1086 30.5472 20.1086 30.5472 20.1134 30.5472C20.123 30.552 20.1326 30.552 20.1422 30.552C20.1518 30.552 20.1566 30.5568 20.1662 30.5568C20.171 30.5568 20.1806 30.5568 20.1854 30.5616C20.2334 30.5712 20.2766 30.576 20.3246 30.576H20.3294C20.3486 30.576 20.3678 30.576 20.387 30.576C20.3918 30.576 20.4014 30.576 20.4062 30.576C20.4206 30.576 20.435 30.5712 20.4494 30.5712C20.4542 30.5712 20.459 30.5712 20.4686 30.5664C20.4878 30.5616 20.507 30.5616 20.5214 30.5568H20.5262C20.5454 30.552 20.5646 30.5472 20.5838 30.5376C20.5886 30.5376 20.5934 30.5328 20.5934 30.5328C20.6078 30.528 20.6222 30.5232 20.6366 30.5136C20.6414 30.5088 20.6462 30.5088 20.6558 30.504C20.6702 30.4992 20.6798 30.4944 20.6942 30.4848C20.699 30.48 20.7038 30.48 20.7134 30.4752C20.7182 30.4752 20.7182 30.4704 20.723 30.4704C20.7278 30.4656 20.7326 30.4656 20.7374 30.4608C20.7518 30.4512 20.7662 30.4416 20.7806 30.432C20.7902 30.4272 20.795 30.4224 20.8046 30.4176C20.819 30.408 20.8334 30.3984 20.843 30.3888C20.8478 30.384 20.8574 30.3792 20.8622 30.3744C20.8814 30.36 20.8958 30.3408 20.915 30.3264C20.9198 30.3216 20.9198 30.3216 20.9246 30.3168C20.939 30.3024 20.9534 30.288 20.963 30.2688C20.9678 30.264 20.9726 30.2544 20.9774 30.2496C20.987 30.2352 20.9966 30.2208 21.0062 30.2064C21.011 30.2016 21.0158 30.192 21.0206 30.1872C21.0302 30.1728 21.0398 30.1584 21.0446 30.144C21.0494 30.1344 21.0542 30.1296 21.0542 30.12C21.0638 30.1056 21.0686 30.0912 21.0734 30.072C21.0782 30.0624 21.0782 30.0576 21.083 30.048C21.0878 30.0336 21.0926 30.0144 21.1022 30C21.1022 29.9952 21.107 29.9856 21.107 29.9808V29.976L22.1006 26.352C22.1006 26.352 22.1006 26.352 22.1006 26.3472C22.1486 26.1744 22.1726 25.992 22.1726 25.8096L22.1486 18.552V18.5472C22.1438 17.9472 21.7982 17.3904 21.2606 17.1312L11.963 12.5808C11.6462 12.408 11.5214 12.024 11.6798 11.6976C11.8382 11.3712 12.2174 11.232 12.5486 11.376L20.3006 15.1392C20.8334 15.3984 21.4286 15.5376 22.0238 15.5376H27.827C28.4222 15.5376 29.0174 15.3984 29.5502 15.1392L37.3022 11.376C37.6334 11.232 38.0126 11.3712 38.171 11.6976C38.3294 12.024 38.2046 12.408 37.8878 12.5808L28.6046 17.1312C28.6046 17.1312 28.6046 17.1312 28.5998 17.1312C28.0622 17.3952 27.7166 17.952 27.7118 18.5472V18.552L27.6878 25.5984C27.6878 25.776 27.7022 25.9536 27.7214 26.1264L29.5022 39.2928C29.5502 39.6912 29.267 40.056 28.8734 40.1088ZM36.995 14.832L38.627 14.0304L38.6318 14.0256C38.6366 14.0208 38.6414 14.0208 38.651 14.016C38.8766 13.896 39.0734 13.7472 39.2414 13.5696L39.6686 15.3072L37.259 15.9072L36.995 14.832ZM43.2398 15.7776C43.067 15.0768 42.3566 14.6496 41.6606 14.8224L40.9742 14.9904L40.7774 14.1888L43.5326 13.488L45.1502 20.0448L44.3294 20.2512L43.2398 15.7776Z" fill="#1A3F34"/>
</svg>
